<svg width="577" height="370" viewBox="0 0 577 370" fill="none" xmlns="http://www.w3.org/2000/svg">
<rect width="576.032" height="369.851" fill="#8BAB64"/>
<rect width="565.089" height="356.926" fill="#DDF3C4"/>
<rect x="10.9395" y="7.95312" width="554.145" height="348.972" fill="#C5DAAD"/>
<rect x="23.8691" y="17.8955" width="527.283" height="93.4569" fill="#ABD37C"/>
<rect x="481.518" y="35.792" width="52.7283" height="58.6591" fill="#DDF3C4"/>
<rect x="485.496" y="40.7617" width="48.7488" height="53.688" fill="#8BAB64"/>
<rect width="41.7847" height="47.7227" transform="translate(485.496 40.7617)" fill="#C5DAAD"/>
<rect x="487.316" y="47" width="13.4839" height="12.2581" fill="#8BAB64"/>
<rect x="499.574" y="59.2581" width="13.4839" height="12.2581" fill="#8BAB64"/>
<rect x="487.316" y="71.5161" width="13.4839" height="12.2581" fill="#8BAB64"/>
<rect x="511.832" y="47" width="13.4839" height="12.2581" fill="#8BAB64"/>
<rect x="511.832" y="71.5161" width="13.4839" height="12.2581" fill="#8BAB64"/>
<path d="M59.5673 144.96H64.8073V134.28H70.2473V161.04H64.8073V147.72H59.5673V161.04H54.1273V134.28H59.5673V144.96ZM91.5755 155.6V158.4H88.8955V161.04H78.1355V158.4H75.4555V144.96H78.1355V142.28H88.8955V144.96H91.5755V150.4H88.8955V153.04H80.8955V158.28H88.8155V155.6H91.5755ZM80.8955 145.04V150.28H86.1355V145.04H80.8955ZM94.1436 142.28H96.7836V136.96H102.224V142.28H104.904V145.04H102.224V161.04H96.7836V145.04H94.1436V142.28ZM115.455 142.28H120.895V158.28H126.135V142.28H131.575V158.4H128.895V161.04H118.135V158.4H115.455V142.28ZM142.224 139.72H136.784V136.96H142.224V139.72ZM142.224 161.04H136.784V142.28H142.224V161.04ZM144.808 142.28H147.448V136.96H152.888V142.28H155.568V145.04H152.888V161.04H147.448V145.04H144.808V142.28ZM174.232 155.6V158.4H171.552V161.04H160.792V158.4H158.112V144.96H160.792V142.28H171.552V144.96H174.232V150.4H171.552V153.04H163.552V158.28H171.472V155.6H174.232ZM163.552 145.04V150.28H168.792V145.04H163.552ZM184.88 139.72H179.44V136.96H184.88V139.72ZM184.88 161.04H179.44V142.28H184.88V161.04ZM203.544 142.28V144.96H206.224V161.04H200.784V145.04H198.224V147.72H195.544V161.04H190.104V142.28H195.544V144.96H198.104V142.28H203.544ZM211.432 144.96H214.112V142.28H222.112V134.28H227.552V161.04H214.112V158.4H211.432V144.96ZM216.872 145.04V158.28H222.112V145.04H216.872ZM248.88 155.6V158.4H246.2V161.04H235.44V158.4H232.76V144.96H235.44V142.28H246.2V144.96H248.88V150.4H246.2V153.04H238.2V158.28H246.12V155.6H248.88ZM238.2 145.04V150.28H243.44V145.04H238.2ZM259.528 161.04H254.088V134.28H259.528V161.04ZM270.192 139.72H264.752V136.96H270.192V139.72ZM270.192 161.04H264.752V142.28H270.192V161.04ZM280.856 139.72H275.416V136.96H280.856V139.72ZM275.416 161.28V142.28H280.856V163.72H278.216V166.4H272.776V163.6H275.416V161.28ZM302.2 142.28V145.04H299.52V147.72H296.88V152.96H299.52V155.6H302.2V161.04H296.76V155.72H294.08V153.04H291.52V161.04H286.08V134.28H291.52V150.28H294.08V147.6H296.76V144.96H299.44V142.28H302.2ZM323.529 155.6V158.4H320.849V161.04H310.089V158.4H307.409V144.96H310.089V142.28H320.849V144.96H323.529V150.4H320.849V153.04H312.849V158.28H320.769V155.6H323.529ZM312.849 145.04V150.28H318.089V145.04H312.849ZM336.745 144.96H339.425V142.28H347.425V134.28H352.865V161.04H339.425V158.4H336.745V144.96ZM342.185 145.04V158.28H347.425V145.04H342.185ZM358.073 144.96H360.753V142.28H371.513V144.96H374.193V158.4H371.513V161.04H360.753V158.4H358.073V144.96ZM363.513 145.04V158.28H368.753V145.04H363.513ZM395.521 155.6V158.4H392.841V161.04H382.081V158.4H379.401V144.96H382.081V142.28H392.841V144.96H395.521V150.4H392.841V153.04H384.841V158.28H392.761V155.6H395.521ZM384.841 145.04V150.28H390.081V145.04H384.841ZM406.169 161.04H400.729V134.28H406.169V161.04ZM424.841 139.72H419.401V136.96H424.841V139.72ZM424.841 161.04H419.401V142.28H424.841V161.04ZM432.865 158.28H438.065V155.72H435.425V153.04H432.745V150.4H430.065V144.96H432.745V142.28H443.505V147.72H440.745V145.04H435.505V147.6H438.185V150.28H440.865V152.96H443.505V158.4H440.865V161.04H430.065V155.6H432.865V158.28ZM456.745 144.96H459.425V142.28H470.185V144.96H472.865V158.4H470.185V161.04H459.425V158.4H456.745V144.96ZM462.185 145.04V158.28H467.425V145.04H462.185ZM502.193 142.28V144.96H504.873V161.04H499.433V145.04H496.873V147.72H494.193V161.04H488.753V145.04H486.193V147.72H483.513V161.04H478.073V142.28H483.513V144.96H486.073V142.28H491.513V144.96H496.753V142.28H502.193ZM68.9033 182.72H63.4633V179.96H68.9033V182.72ZM68.9033 204.04H63.4633V185.28H68.9033V204.04ZM87.5673 185.28V187.96H90.2473V204.04H84.8073V188.04H82.2473V190.72H79.5673V204.04H74.1273V185.28H79.5673V187.96H82.1273V185.28H87.5673ZM103.463 185.4V179.96H106.143V177.28H114.263V179.96H116.903V190.72H114.263V193.4H111.583V196.04H108.903V201.28H111.543H116.903V204.04H103.463V195.96H106.143V193.28H108.823V190.6H111.463V180.04H106.263V185.4H103.463ZM122.135 179.96H124.815V177.28H135.575V179.96H138.255V201.4H135.575V204.04H124.815V201.4H122.135V179.96ZM127.575 180.04V201.28H132.815V180.04H127.575ZM151.463 190.72H143.463V177.28H156.903V180.04H148.903V187.96H154.263V190.6H156.903V201.4H154.263V204.04H143.463V201.28H151.463V190.72ZM162.135 179.96H164.815V177.28H175.575V179.96H178.255V201.4H175.575V204.04H164.815V201.4H162.135V179.96ZM167.575 180.04V201.28H172.815V180.04H167.575ZM204.911 185.28V187.96H207.591V204.04H202.151V188.04H199.591V190.72H196.911V204.04H191.471V185.28H196.911V187.96H199.471V185.28H204.911ZM212.799 193.28H215.479V190.6H223.479V188.04H215.479V185.28H226.239V187.96H228.919V204.04H215.479V201.4H212.799V193.28ZM218.239 193.4V201.28H223.479V193.4H218.239ZM234.127 193.28H236.807V190.6H244.807V188.04H236.807V185.28H247.567V187.96H250.247V204.04H236.807V201.4H234.127V193.28ZM239.567 193.4V201.28H244.807V193.4H239.567ZM260.895 187.96H263.455V185.28H266.255V190.72H260.895V204.04H255.455V185.28H260.895V187.96ZM292.904 198.6V201.4H290.224V204.04H279.464V201.4H276.784V187.96H279.464V185.28H290.224V187.96H292.904V193.4H290.224V196.04H282.224V201.28H290.144V198.6H292.904ZM282.224 188.04V193.28H287.464V188.04H282.224ZM314.232 198.6V201.4H311.552V204.04H300.792V201.4H298.112V187.96H300.792V185.28H311.552V187.96H314.232V193.4H311.552V196.04H303.552V201.28H311.472V198.6H314.232ZM303.552 188.04V193.28H308.792V188.04H303.552ZM332.88 185.28V187.96H335.56V204.04H330.12V188.04H327.56V190.72H324.88V204.04H319.44V185.28H324.88V187.96H327.44V185.28H332.88ZM351.456 204.04V201.4H348.776V187.96H351.456V185.28H362.216V190.72H359.456V188.04H354.216V201.28H359.456V198.6H362.216V201.4H359.576V204.04H351.456ZM372.888 182.72H367.448V179.96H372.888V182.72ZM372.888 204.04H367.448V185.28H372.888V204.04ZM383.552 187.96H386.112V185.28H388.912V190.72H383.552V204.04H378.112V185.28H383.552V187.96ZM394.112 204.04V201.4H391.432V187.96H394.112V185.28H404.872V190.72H402.112V188.04H396.872V201.28H402.112V198.6H404.872V201.4H402.232V204.04H394.112ZM410.104 185.28H415.544V201.28H420.784V185.28H426.224V201.4H423.544V204.04H412.784V201.4H410.104V185.28ZM436.872 204.04H431.432V177.28H436.872V204.04ZM442.096 193.28H444.776V190.6H452.776V188.04H444.776V185.28H455.536V187.96H458.216V204.04H444.776V201.4H442.096V193.28ZM447.536 193.4V201.28H452.776V193.4H447.536ZM468.864 182.72H463.424V179.96H468.864V182.72ZM468.864 204.04H463.424V185.28H468.864V204.04ZM479.528 187.96H482.088V185.28H484.888V190.72H479.528V204.04H474.088V185.28H479.528V187.96ZM503.529 198.6V201.4H500.849V204.04H490.089V201.4H487.409V187.96H490.089V185.28H500.849V187.96H503.529V193.4H500.849V196.04H492.849V201.28H500.769V198.6H503.529ZM492.849 188.04V193.28H498.089V188.04H492.849ZM130.247 241.6V244.4H127.567V247.04H116.807V244.4H114.127V230.96H116.807V228.28H127.567V230.96H130.247V236.4H127.567V239.04H119.567V244.28H127.487V241.6H130.247ZM119.567 231.04V236.28H124.807V231.04H119.567ZM138.135 247.04V244.4H135.455V230.96H138.135V228.28H148.895V233.72H146.135V231.04H140.895V244.28H146.135V241.6H148.895V244.4H146.255V247.04H138.135ZM154.127 230.96H156.807V228.28H167.567V230.96H170.247V244.4H167.567V247.04H156.807V244.4H154.127V230.96ZM159.567 231.04V244.28H164.807V231.04H159.567ZM188.895 228.28V230.96H191.575V247.04H186.135V231.04H183.575V233.72H180.895V247.04H175.455V228.28H180.895V230.96H183.455V228.28H188.895ZM196.784 230.96H199.464V228.28H210.224V230.96H212.904V244.4H210.224V247.04H199.464V244.4H196.784V230.96ZM202.224 231.04V244.28H207.464V231.04H202.224ZM242.232 228.28V230.96H244.912V247.04H239.472V231.04H236.912V233.72H234.232V247.04H228.792V231.04H226.232V233.72H223.552V247.04H218.112V228.28H223.552V230.96H226.112V228.28H231.552V230.96H236.792V228.28H242.232ZM255.544 225.72H250.104V222.96H255.544V225.72ZM255.544 247.04H250.104V228.28H255.544V247.04ZM276.888 241.6V244.4H274.208V247.04H263.448V244.4H260.768V230.96H263.448V228.28H274.208V230.96H276.888V236.4H274.208V239.04H266.208V244.28H274.128V241.6H276.888ZM266.208 231.04V236.28H271.448V231.04H266.208ZM287.464 228.28H290.104V222.96H295.544V228.28H298.224V231.04H295.544V247.04H290.104V231.04H287.464V228.28ZM316.888 241.6V244.4H314.208V247.04H303.448V244.4H300.768V230.96H303.448V228.28H314.208V230.96H316.888V236.4H314.208V239.04H306.208V244.28H314.128V241.6H316.888ZM306.208 231.04V236.28H311.448V231.04H306.208ZM335.544 233.72V247.04H330.104V220.28H335.544V230.96H338.104V228.28H343.544V230.96H346.224V247.04H340.784V231.04H338.224V233.72H335.544ZM367.552 241.6V244.4H364.872V247.04H354.112V244.4H351.432V230.96H354.112V228.28H364.872V230.96H367.552V236.4H364.872V239.04H356.872V244.28H364.792V241.6H367.552ZM356.872 231.04V236.28H362.112V231.04H356.872ZM378.2 228.28H386.2V230.96H388.88V244.4H386.2V247.04H372.76V220.28H378.2V228.28ZM378.2 231.04V244.28H383.44V231.04H378.2ZM399.528 228.28H407.528V230.96H410.208V244.4H407.528V247.04H394.088V220.28H399.528V228.28ZM399.528 231.04V244.28H404.768V231.04H399.528ZM431.536 241.6V244.4H428.856V247.04H418.096V244.4H415.416V230.96H418.096V228.28H428.856V230.96H431.536V236.4H428.856V239.04H420.856V244.28H428.776V241.6H431.536ZM420.856 231.04V236.28H426.096V231.04H420.856ZM450.185 228.28V230.96H452.865V247.04H447.425V231.04H444.865V233.72H442.185V247.04H436.745V228.28H442.185V230.96H444.745V228.28H450.185ZM102.275 271.28V279.4H99.595V284.72H96.915V290.04H91.475V284.72H86.275V290.04H80.835V284.72H78.155V279.4H75.475V271.28H80.915V279.28H83.595V284.6H86.155V281.96H88.835V279.4H86.155V271.28H91.595V279.28H94.275V284.6H96.835V271.28H102.275ZM107.467 279.28H110.147V276.6H118.147V274.04H110.147V271.28H120.907V273.96H123.587V290.04H110.147V287.4H107.467V279.28ZM112.907 279.4V287.28H118.147V279.4H112.907ZM128.795 279.28H131.475V276.6H139.475V274.04H131.475V271.28H142.235V273.96H144.915V290.04H131.475V287.4H128.795V279.28ZM134.235 279.4V287.28H139.475V279.4H134.235ZM155.563 273.96H158.123V271.28H160.923V276.72H155.563V290.04H150.123V271.28H155.563V273.96ZM171.452 279.28H174.132V276.6H182.132V274.04H174.132V271.28H184.892V273.96H187.572V290.04H174.132V287.4H171.452V279.28ZM176.892 279.4V287.28H182.132V279.4H176.892ZM198.22 290.04H192.78V263.28H198.22V290.04ZM216.892 276.72V290.04H211.452V263.28H216.892V273.96H219.452V271.28H224.892V273.96H227.572V290.04H222.132V274.04H219.572V276.72H216.892ZM248.9 284.6V287.4H246.22V290.04H235.46V287.4H232.78V273.96H235.46V271.28H246.22V273.96H248.9V279.4H246.22V282.04H238.22V287.28H246.14V284.6H248.9ZM238.22 274.04V279.28H243.46V274.04H238.22ZM251.468 271.28H254.108V265.96H259.548V271.28H262.228V274.04H259.548V290.04H254.108V274.04H251.468V271.28ZM272.78 279.28H275.46V276.6H283.46V274.04H275.46V271.28H286.22V273.96H288.9V290.04H275.46V287.4H272.78V279.28ZM278.22 279.4V287.28H283.46V279.4H278.22ZM291.468 271.28H294.108V265.96H296.788V263.28H304.908V266.04H299.548V271.28H304.908V274.04H299.548V290.04H294.108V274.04H291.468V271.28ZM323.548 271.28V279.4H320.868V284.72H318.228V290.04H312.788V284.72H310.108V279.4H307.428V271.28H312.868V279.28H315.548V284.6H318.108V271.28H323.548ZM328.756 279.28H331.436V276.6H339.436V274.04H331.436V271.28H342.196V273.96H344.876V290.04H331.436V287.4H328.756V279.28ZM334.196 279.4V287.28H339.436V279.4H334.196ZM355.524 290.04H350.084V263.28H355.524V290.04ZM374.196 273.96H376.756V271.28H379.556V276.72H374.196V290.04H368.756V271.28H374.196V273.96ZM398.197 284.6V287.4H395.517V290.04H384.757V287.4H382.077V273.96H384.757V271.28H395.517V273.96H398.197V279.4H395.517V282.04H387.517V287.28H395.437V284.6H398.197ZM387.517 274.04V279.28H392.757V274.04H387.517ZM406.085 290.04V287.4H403.405V273.96H406.085V271.28H416.845V276.72H414.085V274.04H408.845V287.28H414.085V284.6H416.845V287.4H414.205V290.04H406.085ZM430.077 287.4H427.437V282.04H424.757V276.72H422.077V271.28H427.517V276.6H430.197V281.96H432.757V271.28H438.197V276.72H435.517V284.72H432.877V292.72H430.197V295.4H424.757V289.96H430.077V287.4ZM448.845 290.04H443.405V263.28H448.845V290.04ZM470.189 284.6V287.4H467.509V290.04H456.749V287.4H454.069V273.96H456.749V271.28H467.509V273.96H470.189V279.4H467.509V282.04H459.509V287.28H467.429V284.6H470.189ZM459.509 274.04V279.28H464.749V274.04H459.509ZM475.397 273.96H478.077V271.28H486.077V263.28H491.517V290.04H478.077V287.4H475.397V273.96ZM480.837 274.04V287.28H486.077V274.04H480.837ZM258.252 314.28V322.4H255.572V327.72H252.892V333.04H247.452V327.72H242.252V333.04H236.812V327.72H234.132V322.4H231.452V314.28H236.892V322.28H239.572V327.6H242.132V324.96H244.812V322.4H242.132V314.28H247.572V322.28H250.252V327.6H252.812V314.28H258.252ZM263.444 316.96H266.124V314.28H276.884V316.96H279.564V330.4H276.884V333.04H266.124V330.4H263.444V316.96ZM268.884 317.04V330.28H274.124V317.04H268.884ZM290.212 316.96H292.772V314.28H295.572V319.72H290.212V333.04H284.772V314.28H290.212V316.96ZM298.092 316.96H300.772V314.28H308.772V306.28H314.212V333.04H300.772V330.4H298.092V316.96ZM303.532 317.04V330.28H308.772V317.04H303.532ZM316.78 314.28H319.42V308.96H324.86V314.28H327.54V317.04H324.86V333.04H319.42V317.04H316.78V314.28ZM335.524 333.04H330.084V327.6H335.524V333.04Z" fill="#64764E"/>
</svg>
