<svg width="1345" height="253" viewBox="0 0 1345 253" fill="none" xmlns="http://www.w3.org/2000/svg">
<path d="M5.58203 4.53516H1339.58V247.535H5.58203V4.53516Z" fill="#1F571E" stroke="#00FF57" stroke-width="10"/>
<path d="M132.322 166.335H151.822V136.785H131.872V126.735H121.822V86.3852H131.872V76.3351H172.222V96.7352H161.872V86.6852H142.222V116.385H162.322V126.285H172.222V166.785H162.322V176.685H121.822V156.285H132.322V166.335ZM252.292 76.3351V106.785H242.242V126.735H232.342V176.685H211.942V126.735H201.892V106.785H191.842V76.3351H212.242V106.335H222.292V126.285H231.892V76.3351H252.292ZM292.222 96.2852H302.272V116.385H312.322V136.335H321.922V76.3351H332.272V176.685H311.872V156.735H301.822V136.785H291.922V116.685H282.322V176.685H271.822V76.3351H292.222V96.2852ZM402.203 86.6852H372.203V116.385H392.303V126.735H372.203V166.335H402.203V176.685H351.803V76.3351H402.203V86.6852ZM462.261 86.3852H472.311V126.735H462.261V136.335H472.311V176.685H451.911V136.785H432.261V176.685H411.861V76.3351H462.261V86.3852ZM432.261 86.6852V126.285H451.911V86.6852H432.261ZM501.892 176.685V166.785H491.842V86.3852H501.892V76.3351H552.292V96.7352H541.942V86.6852H512.242V166.335H531.892V136.785H521.842V126.285H552.292V176.685H541.942V166.785H532.342V176.685H501.892ZM592.222 176.685H571.822V76.3351H592.222V176.685ZM662.213 86.6852H632.213V116.385H652.313V126.735H632.213V166.335H662.213V176.685H611.813V76.3351H662.213V86.6852ZM711.95 106.335H722V76.3351H742.4V106.335H752.3V136.335H762.35V176.685H741.95V146.685H712.4V176.685H701.9V136.335H711.95V106.335ZM722.3 106.785V136.335H731.9V106.785H722.3ZM791.931 176.685V166.785H781.881V86.3852H791.931V76.3351H832.281V96.7352H821.931V86.6852H802.281V166.335H821.931V156.285H832.281V166.785H822.381V176.685H791.931ZM832.039 76.3351H892.339V86.6852H872.389V176.685H851.989V86.6852H832.039V76.3351ZM922.398 176.685H901.998V76.3351H922.398V176.685ZM1002.44 76.3351V106.785H992.388V146.685H982.488V176.685H962.088V146.685H952.038V106.785H941.988V76.3351H962.388V106.335H972.438V146.385H982.038V76.3351H1002.44ZM1021.91 106.335H1031.96V76.3351H1052.36V106.335H1062.26V136.335H1072.31V176.685H1051.91V146.685H1022.36V176.685H1011.86V136.335H1021.91V106.335ZM1032.26 106.785V136.335H1041.86V106.785H1032.26ZM1071.83 76.3351H1132.13V86.6852H1112.18V176.685H1091.78V86.6852H1071.83V76.3351ZM1162.19 176.685H1141.79V76.3351H1162.19V176.685ZM1232.18 86.6852H1202.18V116.385H1222.28V126.735H1202.18V166.335H1232.18V176.685H1181.78V76.3351H1232.18V86.6852Z" fill="#00FF57"/>
</svg>
