<svg width="1345" height="254" viewBox="0 0 1345 254" fill="none" xmlns="http://www.w3.org/2000/svg">
<rect x="5.58203" y="5.53516" width="1334" height="243" fill="#00FF57" stroke="#1F571E" stroke-width="10"/>
<path d="M132.322 167.335H151.822V137.785H131.872V127.735H121.822V87.3852H131.872V77.3351H172.222V97.7352H161.872V87.6852H142.222V117.385H162.322V127.285H172.222V167.785H162.322V177.685H121.822V157.285H132.322V167.335ZM252.292 77.3351V107.785H242.242V127.735H232.342V177.685H211.942V127.735H201.892V107.785H191.842V77.3351H212.242V107.335H222.292V127.285H231.892V77.3351H252.292ZM292.222 97.2852H302.272V117.385H312.322V137.335H321.922V77.3351H332.272V177.685H311.872V157.735H301.822V137.785H291.922V117.685H282.322V177.685H271.822V77.3351H292.222V97.2852ZM402.203 87.6852H372.203V117.385H392.303V127.735H372.203V167.335H402.203V177.685H351.803V77.3351H402.203V87.6852ZM462.261 87.3852H472.311V127.735H462.261V137.335H472.311V177.685H451.911V137.785H432.261V177.685H411.861V77.3351H462.261V87.3852ZM432.261 87.6852V127.285H451.911V87.6852H432.261ZM501.892 177.685V167.785H491.842V87.3852H501.892V77.3351H552.292V97.7352H541.942V87.6852H512.242V167.335H531.892V137.785H521.842V127.285H552.292V177.685H541.942V167.785H532.342V177.685H501.892ZM592.222 177.685H571.822V77.3351H592.222V177.685ZM662.213 87.6852H632.213V117.385H652.313V127.735H632.213V167.335H662.213V177.685H611.813V77.3351H662.213V87.6852ZM711.95 107.335H722V77.3351H742.4V107.335H752.3V137.335H762.35V177.685H741.95V147.685H712.4V177.685H701.9V137.335H711.95V107.335ZM722.3 107.785V137.335H731.9V107.785H722.3ZM791.931 177.685V167.785H781.881V87.3852H791.931V77.3351H832.281V97.7352H821.931V87.6852H802.281V167.335H821.931V157.285H832.281V167.785H822.381V177.685H791.931ZM832.039 77.3351H892.339V87.6852H872.389V177.685H851.989V87.6852H832.039V77.3351ZM922.398 177.685H901.998V77.3351H922.398V177.685ZM1002.44 77.3351V107.785H992.388V147.685H982.488V177.685H962.088V147.685H952.038V107.785H941.988V77.3351H962.388V107.335H972.438V147.385H982.038V77.3351H1002.44ZM1021.91 107.335H1031.96V77.3351H1052.36V107.335H1062.26V137.335H1072.31V177.685H1051.91V147.685H1022.36V177.685H1011.86V137.335H1021.91V107.335ZM1032.26 107.785V137.335H1041.86V107.785H1032.26ZM1071.83 77.3351H1132.13V87.6852H1112.18V177.685H1091.78V87.6852H1071.83V77.3351ZM1162.19 177.685H1141.79V77.3351H1162.19V177.685ZM1232.18 87.6852H1202.18V117.385H1222.28V127.735H1202.18V167.335H1232.18V177.685H1181.78V77.3351H1232.18V87.6852Z" fill="#1F571E"/>
</svg>
