<svg width="579" height="372" viewBox="0 0 579 372" fill="none" xmlns="http://www.w3.org/2000/svg">
<rect width="579" height="372" fill="#F26F91"/>
<rect width="568" height="359" fill="#FBD4E0"/>
<rect x="11" y="8" width="557" height="351" fill="#FFA7C1"/>
<rect x="24" y="18" width="530" height="94" fill="#FF93B3"/>
<rect x="484" y="36" width="53" height="59" fill="#FBD4E0"/>
<rect x="488" y="41" width="49" height="54" fill="#F26F91"/>
<rect width="42" height="48" transform="translate(488 41)" fill="#FFA7C1"/>
<rect x="494" y="50" width="11" height="10" fill="#F26F91"/>
<rect x="504" y="60" width="11" height="10" fill="#F26F91"/>
<rect x="494" y="70" width="11" height="10" fill="#F26F91"/>
<rect x="514" y="50" width="11" height="10" fill="#F26F91"/>
<rect x="514" y="70" width="11" height="10" fill="#F26F91"/>
<path d="M67.4387 209.05H60.6387V202.25H67.4387V209.05ZM80.7688 209.05H73.9688V202.25H80.7688V209.05ZM94.0988 182.25H97.4488V188.95H100.799V195.6H103.999V175.6H107.449V209.05H100.649V202.4H97.2988V195.75H93.9988V189.05H90.7988V209.05H87.2988V175.6H94.0988V182.25ZM120.759 182.4H113.959V178.95H120.759V182.4ZM120.759 209.05H113.959V185.6H120.759V209.05ZM147.439 202.25V205.75H144.089V209.05H130.639V205.75H127.289V188.95H130.639V185.6H144.089V188.95H147.439V195.75H144.089V199.05H134.089V205.6H143.989V202.25H147.439ZM134.089 189.05V195.6H140.639V189.05H134.089ZM150.649 185.6H153.949V178.95H160.749V185.6H164.099V189.05H160.749V209.05H153.949V189.05H150.649V185.6ZM184.089 209.05H177.289V202.25H184.089V209.05ZM197.419 209.05H190.619V202.25H197.419V209.05ZM220.649 185.6V175.6H227.449V209.05H220.649V192.4H217.449V202.4H210.649V192.4H207.449V209.05H203.949V175.6H210.749V185.6H214.099V192.25H217.299V185.6H220.649ZM233.93 188.95H237.28V185.6H250.73V188.95H254.08V205.75H250.73V209.05H237.28V205.75H233.93V188.95ZM240.73 189.05V205.6H247.28V189.05H240.73ZM273.94 209.05H263.94V205.75H260.59V188.95H263.94V185.6H284.09V189.05H280.74V212.4H277.39V215.75H263.94V212.25H273.94V209.05ZM267.39 189.05V205.6H273.94V189.05H267.39ZM307.4 202.25V205.75H304.05V209.05H290.6V205.75H287.25V188.95H290.6V185.6H304.05V188.95H307.4V195.75H304.05V199.05H294.05V205.6H303.95V202.25H307.4ZM294.05 189.05V195.6H300.6V189.05H294.05ZM320.71 209.05H313.91V175.6H320.71V209.05ZM334.04 182.4H327.24V178.95H334.04V182.4ZM334.04 209.05H327.24V185.6H334.04V209.05ZM347.37 182.4H340.57V178.95H347.37V182.4ZM340.57 209.35V185.6H347.37V212.4H344.07V215.75H337.27V212.25H340.57V209.35ZM374.05 185.6V189.05H370.7V192.4H367.4V198.95H370.7V202.25H374.05V209.05H367.25V202.4H363.9V199.05H360.7V209.05H353.9V175.6H360.7V195.6H363.9V192.25H367.25V188.95H370.6V185.6H374.05ZM387.361 209.05H380.561V202.25H387.361V209.05ZM400.691 209.05H393.891V202.25H400.691V209.05ZM414.021 209.05H407.221V202.25H414.021V209.05ZM420.551 178.95H423.901V175.6H437.351V178.95H440.701V205.75H437.351V209.05H423.901V205.75H420.551V178.95ZM427.351 179.05V205.6H433.901V179.05H427.351ZM477.361 185.6V188.95H480.711V209.05H473.911V189.05H470.711V192.4H467.361V209.05H460.561V189.05H457.361V192.4H454.011V209.05H447.211V185.6H454.011V188.95H457.211V185.6H464.011V188.95H470.561V185.6H477.361ZM494.001 209.05H487.201V202.25H494.001V209.05ZM507.331 209.05H500.531V202.25H507.331V209.05ZM112.424 231.95H115.774V245.4H112.424V248.6H115.774V262.05H108.974V248.75H102.424V262.05H95.624V228.6H112.424V231.95ZM102.424 232.05V245.25H108.974V232.05H102.424ZM142.434 255.25V258.75H139.084V262.05H125.634V258.75H122.284V241.95H125.634V238.6H139.084V241.95H142.434V248.75H139.084V252.05H129.084V258.6H138.984V255.25H142.434ZM129.084 242.05V248.6H135.634V242.05H129.084ZM152.444 258.6H158.944V255.4H155.644V252.05H152.294V248.75H148.944V241.95H152.294V238.6H165.744V245.4H162.294V242.05H155.744V245.25H159.094V248.6H162.444V251.95H165.744V258.75H162.444V262.05H148.944V255.25H152.444V258.6ZM172.284 238.6H179.084V258.6H185.634V238.6H192.434V258.75H189.084V262.05H175.634V258.75H172.284V238.6ZM205.744 262.05H198.944V228.6H205.744V262.05ZM208.974 238.6H212.274V231.95H219.074V238.6H222.424V242.05H219.074V262.05H212.274V242.05H208.974V238.6ZM225.604 248.6H228.954V245.25H238.954V242.05H228.954V238.6H242.404V241.95H245.754V262.05H228.954V258.75H225.604V248.6ZM232.404 248.75V258.6H238.954V248.75H232.404ZM248.965 238.6H252.265V231.95H259.065V238.6H262.415V242.05H259.065V262.05H252.265V242.05H248.965V238.6ZM285.745 255.25V258.75H282.395V262.05H268.945V258.75H265.595V241.95H268.945V238.6H282.395V241.95H285.745V248.75H282.395V252.05H272.395V258.6H282.295V255.25H285.745ZM272.395 242.05V248.6H278.945V242.05H272.395ZM309.055 238.6V241.95H312.405V262.05H305.605V242.05H302.405V245.4H299.055V262.05H292.255V238.6H299.055V241.95H302.255V238.6H309.055ZM325.715 262.05H318.915V255.25H325.715V262.05ZM339.045 262.05H332.245V255.25H339.045V262.05ZM352.375 262.05H345.575V255.25H352.375V262.05ZM365.705 262.05H358.905V255.25H365.705V262.05ZM372.235 241.95H375.585V238.6H389.035V241.95H392.385V258.75H389.035V262.05H375.585V258.75H372.235V241.95ZM379.035 242.05V258.6H385.585V242.05H379.035ZM415.696 241.95H419.046V258.75H415.696V262.05H405.696V268.75H398.896V238.6H415.696V241.95ZM405.696 242.05V258.6H412.246V242.05H405.696ZM432.356 262.05H425.556V255.25H432.356V262.05ZM445.686 262.05H438.886V255.25H445.686V262.05ZM459.016 262.05H452.216V255.25H459.016V262.05ZM472.346 262.05H465.546V255.25H472.346V262.05Z" fill="#AF556C"/>
</svg>
