<svg width="579" height="372" viewBox="0 0 579 372" fill="none" xmlns="http://www.w3.org/2000/svg">
<rect width="579" height="372" fill="#8BAB64"/>
<rect width="568" height="359" fill="#DDF3C4"/>
<rect x="11" y="8" width="557" height="351" fill="#C5DAAD"/>
<rect x="24" y="18" width="530" height="94" fill="#ABD37C"/>
<rect x="484" y="36" width="53" height="59" fill="#DDF3C4"/>
<rect x="488" y="41" width="49" height="54" fill="#8BAB64"/>
<rect width="42" height="48" transform="translate(488 41)" fill="#C5DAAD"/>
<rect x="494" y="50" width="11" height="10" fill="#8BAB64"/>
<rect x="504" y="60" width="11" height="10" fill="#8BAB64"/>
<rect x="494" y="70" width="11" height="10" fill="#8BAB64"/>
<rect x="514" y="50" width="11" height="10" fill="#8BAB64"/>
<rect x="514" y="70" width="11" height="10" fill="#8BAB64"/>
<path d="M124.95 195.6H145.05V199.05H138.4V229.05H131.6V199.05H124.95V195.6ZM165.05 222.25V225.75H161.7V229.05H148.25V225.75H144.9V208.95H148.25V205.6H161.7V208.95H165.05V215.75H161.7V219.05H151.7V225.6H161.6V222.25H165.05ZM151.7 209.05V215.6H158.25V209.05H151.7ZM175.061 225.6H181.561V222.4H178.261V219.05H174.911V215.75H171.561V208.95H174.911V205.6H188.361V212.4H184.911V209.05H178.361V212.25H181.711V215.6H185.061V218.95H188.361V225.75H185.061V229.05H171.561V222.25H175.061V225.6ZM191.6 205.6H194.9V198.95H201.7V205.6H205.05V209.05H201.7V229.05H194.9V209.05H191.6V205.6ZM235.04 198.95H238.39V212.4H235.04V215.6H238.39V229.05H231.59V215.75H225.04V229.05H218.24V195.6H235.04V198.95ZM225.04 199.05V212.25H231.59V199.05H225.04ZM265.05 222.25V225.75H261.7V229.05H248.25V225.75H244.9V208.95H248.25V205.6H261.7V208.95H265.05V215.75H261.7V219.05H251.7V225.6H261.6V222.25H265.05ZM251.7 209.05V215.6H258.25V209.05H251.7ZM275.061 225.6H281.561V222.4H278.261V219.05H274.911V215.75H271.561V208.95H274.911V205.6H288.361V212.4H284.911V209.05H278.361V212.25H281.711V215.6H285.061V218.95H288.361V225.75H285.061V229.05H271.561V222.25H275.061V225.6ZM294.9 205.6H301.7V225.6H308.25V205.6H315.05V225.75H311.7V229.05H298.25V225.75H294.9V205.6ZM328.361 229.05H321.561V195.6H328.361V229.05ZM331.591 205.6H334.891V198.95H341.691V205.6H345.041V209.05H341.691V229.05H334.891V209.05H331.591V205.6ZM368.371 205.6V208.95H371.721V225.75H355.021V228.95H368.371V232.4H354.921V229.05H351.571V225.75H348.221V212.25H351.571V208.95H354.921V205.6H368.371ZM355.021 212.4H351.721V225.6H354.921V215.6H358.221V212.25H365.021V222.25H368.221V209.05H355.021V212.4ZM358.371 215.75V222.25H361.571V215.75H358.371ZM374.901 205.6H378.201V198.95H385.001V205.6H388.351V209.05H385.001V229.05H378.201V209.05H374.901V205.6ZM411.681 222.25V225.75H408.331V229.05H394.881V225.75H391.531V208.95H394.881V205.6H408.331V208.95H411.681V215.75H408.331V219.05H398.331V225.6H408.231V222.25H411.681ZM398.331 209.05V215.6H404.881V209.05H398.331ZM434.991 205.6V208.95H438.341V229.05H431.541V209.05H428.341V212.4H424.991V229.05H418.191V205.6H424.991V208.95H428.191V205.6H434.991Z" fill="#64764E"/>
</svg>
