<svg width="625" height="1080" viewBox="0 0 625 1080" fill="none" xmlns="http://www.w3.org/2000/svg">
<rect width="625" height="1080" fill="#FFF8C8"/>
<path d="M33.95 54.6H54.05V58.05H47.4V88.05H40.6V58.05H33.95V54.6ZM74.0504 81.25V84.75H70.7004V88.05H57.2504V84.75H53.9004V67.95H57.2504V64.6H70.7004V67.95H74.0504V74.75H70.7004V78.05H60.7004V84.6H70.6004V81.25H74.0504ZM60.7004 68.05V74.6H67.2504V68.05H60.7004ZM84.0605 84.6H90.5605V81.4H87.2605V78.05H83.9105V74.75H80.5605V67.95H83.9105V64.6H97.3605V71.4H93.9105V68.05H87.3605V71.25H90.7105V74.6H94.0605V77.95H97.3605V84.75H94.0605V88.05H80.5605V81.25H84.0605V84.6ZM100.6 64.6H103.9V57.95H110.7V64.6H114.05V68.05H110.7V88.05H103.9V68.05H100.6V64.6ZM144.04 57.95H147.39V71.4H144.04V74.6H147.39V88.05H140.59V74.75H134.04V88.05H127.24V54.6H144.04V57.95ZM134.04 58.05V71.25H140.59V58.05H134.04ZM174.05 81.25V84.75H170.7V88.05H157.25V84.75H153.9V67.95H157.25V64.6H170.7V67.95H174.05V74.75H170.7V78.05H160.7V84.6H170.6V81.25H174.05ZM160.7 68.05V74.6H167.25V68.05H160.7ZM184.061 84.6H190.561V81.4H187.261V78.05H183.911V74.75H180.561V67.95H183.911V64.6H197.361V71.4H193.911V68.05H187.361V71.25H190.711V74.6H194.061V77.95H197.361V84.75H194.061V88.05H180.561V81.25H184.061V84.6ZM203.9 64.6H210.7V84.6H217.25V64.6H224.05V84.75H220.7V88.05H207.25V84.75H203.9V64.6ZM237.361 88.05H230.561V54.6H237.361V88.05ZM240.591 64.6H243.891V57.95H250.691V64.6H254.041V68.05H250.691V88.05H243.891V68.05H240.591V64.6ZM277.371 64.6V67.95H280.721V84.75H264.021V87.95H277.371V91.4H263.921V88.05H260.571V84.75H257.221V71.25H260.571V67.95H263.921V64.6H277.371ZM264.021 71.4H260.721V84.6H263.921V74.6H267.221V71.25H274.021V81.25H277.221V68.05H264.021V71.4ZM267.371 74.75V81.25H270.571V74.75H267.371ZM283.901 64.6H287.201V57.95H294.001V64.6H297.351V68.05H294.001V88.05H287.201V68.05H283.901V64.6ZM320.681 81.25V84.75H317.331V88.05H303.881V84.75H300.531V67.95H303.881V64.6H317.331V67.95H320.681V74.75H317.331V78.05H307.331V84.6H317.231V81.25H320.681ZM307.331 68.05V74.6H313.881V68.05H307.331ZM343.991 64.6V67.95H347.341V88.05H340.541V68.05H337.341V71.4H333.991V88.05H327.191V64.6H333.991V67.95H337.191V64.6H343.991ZM54.05 164.05H44.05V173.95H50.75V177.4H44.05V190.6H54.05V194.05H37.25V160.6H54.05V164.05ZM64.0695 173.95H67.2695V170.6H70.7695V177.4H64.0695V194.05H57.2695V170.6H64.0695V173.95ZM80.7199 173.95H83.9199V170.6H87.4199V177.4H80.7199V194.05H73.9199V170.6H80.7199V173.95ZM90.5703 173.95H93.9203V170.6H107.37V173.95H110.72V190.75H107.37V194.05H93.9203V190.75H90.5703V173.95ZM97.3703 174.05V190.6H103.92V174.05H97.3703ZM124.03 173.95H127.23V170.6H130.73V177.4H124.03V194.05H117.23V170.6H124.03V173.95ZM140.681 194.05H133.881V187.25H140.681V194.05ZM154.011 194.05H147.211V187.25H154.011V194.05ZM167.341 194.05H160.541V187.25H167.341V194.05ZM180.671 194.05H173.871V187.25H180.671V194.05ZM194.001 194.05H187.201V187.25H194.001V194.05ZM207.331 194.05H200.531V187.25H207.331V194.05ZM220.661 194.05H213.861V187.25H220.661V194.05ZM233.991 194.05H227.191V187.25H233.991V194.05ZM247.321 194.05H240.521V187.25H247.321V194.05ZM260.652 194.05H253.852V187.25H260.652V194.05ZM273.982 194.05H267.182V187.25H273.982V194.05ZM287.312 194.05H280.512V187.25H287.312V194.05ZM300.642 194.05H293.842V187.25H300.642V194.05ZM313.972 194.05H307.172V187.25H313.972V194.05ZM327.302 194.05H320.502V187.25H327.302V194.05ZM340.632 194.05H333.832V187.25H340.632V194.05ZM353.962 194.05H347.162V187.25H353.962V194.05ZM367.292 194.05H360.492V187.25H367.292V194.05ZM380.622 194.05H373.822V187.25H380.622V194.05ZM393.952 194.05H387.152V187.25H393.952V194.05ZM407.282 194.05H400.482V187.25H407.282V194.05ZM420.613 194.05H413.813V187.25H420.613V194.05ZM433.943 194.05H427.143V187.25H433.943V194.05ZM447.273 194.05H440.473V187.25H447.273V194.05ZM460.603 194.05H453.803V187.25H460.603V194.05ZM473.933 194.05H467.133V187.25H473.933V194.05ZM487.263 194.05H480.463V187.25H487.263V194.05ZM500.593 194.05H493.793V187.25H500.593V194.05ZM44.05 300.05H37.25V293.25H44.05V300.05ZM57.3801 300.05H50.5801V293.25H57.3801V300.05ZM70.7102 300.05H63.9102V293.25H70.7102V300.05ZM84.0402 300.05H77.2402V293.25H84.0402V300.05ZM97.3703 300.05H90.5703V293.25H97.3703V300.05ZM110.7 300.05H103.9V293.25H110.7V300.05ZM124.03 300.05H117.23V293.25H124.03V300.05ZM137.361 300.05H130.561V293.25H137.361V300.05ZM150.691 300.05H143.891V293.25H150.691V300.05ZM164.021 300.05H157.221V293.25H164.021V300.05ZM177.351 300.05H170.551V293.25H177.351V300.05ZM190.681 300.05H183.881V293.25H190.681V300.05ZM204.011 300.05H197.211V293.25H204.011V300.05ZM217.341 300.05H210.541V293.25H217.341V300.05ZM230.671 300.05H223.871V293.25H230.671V300.05ZM254.001 270.05H244.001V279.95H250.701V283.4H244.001V296.6H254.001V300.05H237.201V266.6H254.001V270.05ZM264.021 279.95H267.221V276.6H270.721V283.4H264.021V300.05H257.221V276.6H264.021V279.95ZM280.671 279.95H283.871V276.6H287.371V283.4H280.671V300.05H273.871V276.6H280.671V279.95ZM290.521 269.95H293.871V266.6H307.321V269.95H310.671V296.75H307.321V300.05H293.871V296.75H290.521V269.95ZM297.321 270.05V296.6H303.871V270.05H297.321ZM323.982 279.95H327.182V276.6H330.682V283.4H323.982V300.05H317.182V276.6H323.982V279.95ZM340.632 300.05H333.832V293.25H340.632V300.05ZM353.962 300.05H347.162V293.25H353.962V300.05ZM367.292 300.05H360.492V293.25H367.292V300.05ZM380.622 300.05H373.822V293.25H380.622V300.05ZM393.952 300.05H387.152V293.25H393.952V300.05ZM407.282 300.05H400.482V293.25H407.282V300.05ZM420.613 300.05H413.813V293.25H420.613V300.05ZM433.943 300.05H427.143V293.25H433.943V300.05ZM447.273 300.05H440.473V293.25H447.273V300.05ZM460.603 300.05H453.803V293.25H460.603V300.05ZM473.933 300.05H467.133V293.25H473.933V300.05ZM487.263 300.05H480.463V293.25H487.263V300.05ZM500.593 300.05H493.793V293.25H500.593V300.05ZM513.923 300.05H507.123V293.25H513.923V300.05ZM527.253 300.05H520.453V293.25H527.253V300.05ZM540.583 300.05H533.783V293.25H540.583V300.05ZM54.05 376.05H44.05V385.95H50.75V389.4H44.05V402.6H54.05V406.05H37.25V372.6H54.05V376.05ZM64.0695 385.95H67.2695V382.6H70.7695V389.4H64.0695V406.05H57.2695V382.6H64.0695V385.95ZM80.7199 385.95H83.9199V382.6H87.4199V389.4H80.7199V406.05H73.9199V382.6H80.7199V385.95ZM90.5703 385.95H93.9203V382.6H107.37V385.95H110.72V402.75H107.37V406.05H93.9203V402.75H90.5703V385.95ZM97.3703 386.05V402.6H103.92V386.05H97.3703ZM124.03 385.95H127.23V382.6H130.73V389.4H124.03V406.05H117.23V382.6H124.03V385.95ZM140.681 406.05H133.881V399.25H140.681V406.05ZM154.011 406.05H147.211V399.25H154.011V406.05ZM167.341 406.05H160.541V399.25H167.341V406.05ZM180.671 406.05H173.871V399.25H180.671V406.05ZM194.001 406.05H187.201V399.25H194.001V406.05ZM207.331 406.05H200.531V399.25H207.331V406.05ZM220.661 406.05H213.861V399.25H220.661V406.05ZM233.991 406.05H227.191V399.25H233.991V406.05ZM247.321 406.05H240.521V399.25H247.321V406.05ZM260.652 406.05H253.852V399.25H260.652V406.05ZM273.982 406.05H267.182V399.25H273.982V406.05ZM287.312 406.05H280.512V399.25H287.312V406.05ZM300.642 406.05H293.842V399.25H300.642V406.05ZM313.972 406.05H307.172V399.25H313.972V406.05ZM327.302 406.05H320.502V399.25H327.302V406.05ZM340.632 406.05H333.832V399.25H340.632V406.05ZM353.962 406.05H347.162V399.25H353.962V406.05ZM367.292 406.05H360.492V399.25H367.292V406.05ZM380.622 406.05H373.822V399.25H380.622V406.05ZM393.952 406.05H387.152V399.25H393.952V406.05ZM44.05 565.05H37.25V558.25H44.05V565.05ZM57.3801 565.05H50.5801V558.25H57.3801V565.05ZM70.7102 565.05H63.9102V558.25H70.7102V565.05ZM84.0402 565.05H77.2402V558.25H84.0402V565.05ZM97.3703 538.25H100.72V544.95H104.07V551.6H107.27V531.6H110.72V565.05H103.92V558.4H100.57V551.75H97.2703V545.05H94.0703V565.05H90.5703V531.6H97.3703V538.25ZM124.03 538.4H117.23V534.95H124.03V538.4ZM124.03 565.05H117.23V541.6H124.03V565.05ZM150.711 558.25V561.75H147.361V565.05H133.911V561.75H130.561V544.95H133.911V541.6H147.361V544.95H150.711V551.75H147.361V555.05H137.361V561.6H147.261V558.25H150.711ZM137.361 545.05V551.6H143.911V545.05H137.361ZM153.921 541.6H157.221V534.95H164.021V541.6H167.371V545.05H164.021V565.05H157.221V545.05H153.921V541.6ZM177.351 565.05H170.551V558.25H177.351V565.05ZM190.681 565.05H183.881V558.25H190.681V565.05ZM204.011 565.05H197.211V558.25H204.011V565.05ZM227.241 541.6V531.6H234.041V565.05H227.241V548.4H224.041V558.4H217.241V548.4H214.041V565.05H210.541V531.6H217.341V541.6H220.691V548.25H223.891V541.6H227.241ZM240.521 544.95H243.871V541.6H257.321V544.95H260.671V561.75H257.321V565.05H243.871V561.75H240.521V544.95ZM247.321 545.05V561.6H253.871V545.05H247.321ZM280.532 565.05H270.532V561.75H267.182V544.95H270.532V541.6H290.682V545.05H287.332V568.4H283.982V571.75H270.532V568.25H280.532V565.05ZM273.982 545.05V561.6H280.532V545.05H273.982ZM293.842 538.4V534.95H297.192V531.6H307.342V534.95H310.642V545.05H307.342V548.25H310.642V561.75H307.342V565.05H293.842V561.6H303.842V548.4H297.192V544.95H303.842V535.05H297.342V538.4H293.842ZM323.982 565.05H317.182V531.6H323.982V565.05ZM337.312 538.4H330.512V534.95H337.312V538.4ZM337.312 565.05H330.512V541.6H337.312V565.05ZM350.642 538.4H343.842V534.95H350.642V538.4ZM343.842 565.35V541.6H350.642V568.4H347.342V571.75H340.542V568.25H343.842V565.35ZM377.322 541.6V545.05H373.972V548.4H370.672V554.95H373.972V558.25H377.322V565.05H370.522V558.4H367.172V555.05H363.972V565.05H357.172V531.6H363.972V551.6H367.172V548.25H370.522V544.95H373.872V541.6H377.322ZM390.632 565.05H383.832V558.25H390.632V565.05ZM403.962 565.05H397.162V558.25H403.962V565.05ZM417.292 565.05H410.492V558.25H417.292V565.05ZM423.822 534.95H427.172V531.6H440.622V534.95H443.972V561.75H440.622V565.05H427.172V561.75H423.822V534.95ZM430.622 535.05V561.6H437.172V535.05H430.622ZM480.632 541.6V544.95H483.982V565.05H477.182V545.05H473.982V548.4H470.632V565.05H463.832V545.05H460.632V548.4H457.282V565.05H450.482V541.6H457.282V544.95H460.482V541.6H467.282V544.95H473.832V541.6H480.632ZM497.273 565.05H490.473V558.25H497.273V565.05ZM510.603 565.05H503.803V558.25H510.603V565.05ZM523.933 565.05H517.133V558.25H523.933V565.05ZM44.05 671.05H37.25V664.25H44.05V671.05ZM57.3801 671.05H50.5801V664.25H57.3801V671.05ZM70.7102 671.05H63.9102V664.25H70.7102V671.05ZM84.0402 671.05H77.2402V664.25H84.0402V671.05ZM97.3703 671.05H90.5703V664.25H97.3703V671.05ZM120.7 640.95H124.05V654.4H120.7V657.6H124.05V671.05H117.25V657.75H110.7V671.05H103.9V637.6H120.7V640.95ZM110.7 641.05V654.25H117.25V641.05H110.7ZM150.711 664.25V667.75H147.361V671.05H133.911V667.75H130.561V650.95H133.911V647.6H147.361V650.95H150.711V657.75H147.361V661.05H137.361V667.6H147.261V664.25H150.711ZM137.361 651.05V657.6H143.911V651.05H137.361ZM160.721 667.6H167.221V664.4H163.921V661.05H160.571V657.75H157.221V650.95H160.571V647.6H174.021V654.4H170.571V651.05H164.021V654.25H167.371V657.6H170.721V660.95H174.021V667.75H170.721V671.05H157.221V664.25H160.721V667.6ZM180.561 647.6H187.361V667.6H193.911V647.6H200.711V667.75H197.361V671.05H183.911V667.75H180.561V647.6ZM214.021 671.05H207.221V637.6H214.021V671.05ZM217.251 647.6H220.551V640.95H227.351V647.6H230.701V651.05H227.351V671.05H220.551V651.05H217.251V647.6ZM233.881 657.6H237.231V654.25H247.231V651.05H237.231V647.6H250.681V650.95H254.031V671.05H237.231V667.75H233.881V657.6ZM240.681 657.75V667.6H247.231V657.75H240.681ZM257.241 647.6H260.541V640.95H267.341V647.6H270.691V651.05H267.341V671.05H260.541V651.05H257.241V647.6ZM294.021 664.25V667.75H290.671V671.05H277.221V667.75H273.871V650.95H277.221V647.6H290.671V650.95H294.021V657.75H290.671V661.05H280.671V667.6H290.571V664.25H294.021ZM280.671 651.05V657.6H287.221V651.05H280.671ZM317.331 647.6V650.95H320.681V671.05H313.881V651.05H310.681V654.4H307.331V671.05H300.531V647.6H307.331V650.95H310.531V647.6H317.331ZM333.991 671.05H327.191V664.25H333.991V671.05ZM347.321 671.05H340.521V664.25H347.321V671.05ZM360.652 671.05H353.852V664.25H360.652V671.05ZM373.982 671.05H367.182V664.25H373.982V671.05ZM387.312 671.05H380.512V664.25H387.312V671.05ZM393.842 640.95H397.192V637.6H410.642V640.95H413.992V667.75H410.642V671.05H397.192V667.75H393.842V640.95ZM400.642 641.05V667.6H407.192V641.05H400.642ZM437.302 650.95H440.652V667.75H437.302V671.05H427.302V677.75H420.502V647.6H437.302V650.95ZM427.302 651.05V667.6H433.852V651.05H427.302ZM453.962 671.05H447.162V664.25H453.962V671.05ZM467.292 671.05H460.492V664.25H467.292V671.05ZM480.622 671.05H473.822V664.25H480.622V671.05ZM493.952 671.05H487.152V664.25H493.952V671.05ZM507.282 671.05H500.482V664.25H507.282V671.05ZM44.05 724.05H37.25V717.25H44.05V724.05ZM57.3801 724.05H50.5801V717.25H57.3801V724.05ZM70.7102 724.05H63.9102V717.25H70.7102V724.05ZM73.9402 700.6H77.2402V693.95H84.0402V700.6H87.3902V704.05H84.0402V724.05H77.2402V704.05H73.9402V700.6ZM110.72 717.25V720.75H107.37V724.05H93.9203V720.75H90.5703V703.95H93.9203V700.6H107.37V703.95H110.72V710.75H107.37V714.05H97.3703V720.6H107.27V717.25H110.72ZM97.3703 704.05V710.6H103.92V704.05H97.3703ZM124.03 724.05H117.23V717.25H124.03V724.05ZM137.361 724.05H130.561V717.25H137.361V724.05ZM150.691 724.05H143.891V717.25H150.691V724.05ZM164.021 724.05H157.221V717.25H164.021V724.05ZM177.351 707.4V724.05H170.551V690.6H177.351V703.95H180.551V700.6H187.351V703.95H190.701V724.05H183.901V704.05H180.701V707.4H177.351ZM197.211 710.6H200.561V707.25H210.561V704.05H200.561V700.6H214.011V703.95H217.361V724.05H200.561V720.75H197.211V710.6ZM204.011 710.75V720.6H210.561V710.75H204.011ZM230.671 724.05H223.871V690.6H230.671V724.05ZM237.201 697.4V693.95H240.551V690.6H250.701V693.95H254.001V704.05H250.701V707.25H254.001V720.75H250.701V724.05H237.201V720.6H247.201V707.4H240.551V703.95H247.201V694.05H240.701V697.4H237.201ZM277.341 700.6V703.95H280.691V724.05H273.891V704.05H270.691V707.4H267.341V724.05H260.541V700.6H267.341V703.95H270.541V700.6H277.341ZM294.001 724.05H287.201V717.25H294.001V724.05ZM307.331 724.05H300.531V717.25H307.331V724.05ZM320.661 724.05H313.861V717.25H320.661V724.05ZM333.991 724.05H327.191V717.25H333.991V724.05ZM347.321 724.05H340.521V717.25H347.321V724.05ZM360.652 724.05H353.852V717.25H360.652V724.05ZM373.982 724.05H367.182V717.25H373.982V724.05ZM387.312 724.05H380.512V717.25H387.312V724.05ZM400.642 724.05H393.842V717.25H400.642V724.05ZM413.972 724.05H407.172V717.25H413.972V724.05ZM427.302 724.05H420.502V717.25H427.302V724.05ZM440.632 724.05H433.832V717.25H440.632V724.05ZM453.962 724.05H447.162V717.25H453.962V724.05ZM467.292 724.05H460.492V717.25H467.292V724.05ZM480.622 724.05H473.822V717.25H480.622V724.05ZM493.952 724.05H487.152V717.25H493.952V724.05ZM507.282 724.05H500.482V717.25H507.282V724.05ZM520.613 724.05H513.813V717.25H520.613V724.05ZM533.943 724.05H527.143V717.25H533.943V724.05ZM547.273 724.05H540.473V717.25H547.273V724.05ZM560.603 724.05H553.803V717.25H560.603V724.05ZM44.05 830.05H37.25V823.25H44.05V830.05ZM57.3801 830.05H50.5801V823.25H57.3801V830.05ZM70.7102 830.05H63.9102V823.25H70.7102V830.05ZM97.3902 796.6V806.75H94.0402V820.05H90.7402V830.05H83.9402V820.05H80.5902V806.75H77.2402V796.6H84.0402V806.6H87.3902V819.95H90.5902V796.6H97.3902ZM110.7 830.05H103.9V796.6H110.7V830.05ZM134.03 799.95H137.38V813.4H134.03V816.6H137.38V830.05H130.58V816.75H124.03V830.05H117.23V796.6H134.03V799.95ZM124.03 800.05V813.25H130.58V800.05H124.03ZM143.891 796.6H150.691V826.6H157.241V796.6H164.041V826.75H160.691V830.05H147.241V826.75H143.891V796.6ZM174.051 826.6H180.551V816.75H173.901V813.4H170.551V799.95H173.901V796.6H187.351V803.4H183.901V800.05H177.351V809.95H184.051V813.25H187.351V826.75H184.051V830.05H170.551V823.25H174.051V826.6ZM200.691 830.05H193.891V823.25H200.691V830.05ZM214.021 830.05H207.221V823.25H214.021V830.05ZM227.351 830.05H220.551V823.25H227.351V830.05ZM240.681 830.05H233.881V823.25H240.681V830.05ZM254.011 830.05H247.211V823.25H254.011V830.05ZM267.341 830.05H260.541V823.25H267.341V830.05ZM280.671 830.05H273.871V823.25H280.671V830.05ZM294.001 830.05H287.201V823.25H294.001V830.05ZM307.331 830.05H300.531V823.25H307.331V830.05ZM320.661 830.05H313.861V823.25H320.661V830.05ZM333.991 830.05H327.191V823.25H333.991V830.05ZM347.321 830.05H340.521V823.25H347.321V830.05ZM360.652 830.05H353.852V823.25H360.652V830.05ZM373.982 830.05H367.182V823.25H373.982V830.05ZM387.312 830.05H380.512V823.25H387.312V830.05ZM400.642 830.05H393.842V823.25H400.642V830.05ZM413.972 830.05H407.172V823.25H413.972V830.05ZM427.302 830.05H420.502V823.25H427.302V830.05ZM440.632 830.05H433.832V823.25H440.632V830.05ZM453.962 830.05H447.162V823.25H453.962V830.05ZM467.292 830.05H460.492V823.25H467.292V830.05ZM480.622 830.05H473.822V823.25H480.622V830.05ZM493.952 830.05H487.152V823.25H493.952V830.05ZM507.282 830.05H500.482V823.25H507.282V830.05ZM520.613 830.05H513.813V823.25H520.613V830.05ZM533.943 830.05H527.143V823.25H533.943V830.05ZM547.273 830.05H540.473V823.25H547.273V830.05ZM560.603 830.05H553.803V823.25H560.603V830.05ZM573.933 830.05H567.133V823.25H573.933V830.05ZM44.05 883.05H37.25V876.25H44.05V883.05ZM57.3801 883.05H50.5801V876.25H57.3801V883.05ZM70.7102 883.05H63.9102V876.25H70.7102V883.05ZM84.0402 883.05H77.2402V876.25H84.0402V883.05ZM97.3703 883.05H90.5703V876.25H97.3703V883.05ZM117.25 883.05H107.25V879.75H103.9V862.95H107.25V859.6H127.4V863.05H124.05V886.4H120.7V889.75H107.25V886.25H117.25V883.05ZM110.7 863.05V879.6H117.25V863.05H110.7ZM150.711 876.25V879.75H147.361V883.05H133.911V879.75H130.561V862.95H133.911V859.6H147.361V862.95H150.711V869.75H147.361V873.05H137.361V879.6H147.261V876.25H150.711ZM137.361 863.05V869.6H143.911V863.05H137.361ZM157.221 862.95H160.571V859.6H170.571V849.6H177.371V883.05H160.571V879.75H157.221V862.95ZM164.021 863.05V879.6H170.571V863.05H164.021ZM204.031 876.25V879.75H200.681V883.05H187.231V879.75H183.881V862.95H187.231V859.6H200.681V862.95H204.031V869.75H200.681V873.05H190.681V879.6H200.581V876.25H204.031ZM190.681 863.05V869.6H197.231V863.05H190.681ZM207.241 859.6H210.541V852.95H217.341V859.6H220.691V863.05H217.341V883.05H210.541V863.05H207.241V859.6ZM244.021 876.25V879.75H240.671V883.05H227.221V879.75H223.871V862.95H227.221V859.6H240.671V862.95H244.021V869.75H240.671V873.05H230.671V879.6H240.571V876.25H244.021ZM230.671 863.05V869.6H237.221V863.05H230.671ZM253.881 883.05V879.75H250.531V862.95H253.881V859.6H267.331V866.4H263.881V863.05H257.331V879.6H263.881V876.25H267.331V879.75H264.031V883.05H253.881ZM270.571 859.6H273.871V852.95H280.671V859.6H284.021V863.05H280.671V883.05H273.871V863.05H270.571V859.6ZM307.351 876.25V879.75H304.001V883.05H290.551V879.75H287.201V862.95H290.551V859.6H304.001V862.95H307.351V869.75H304.001V873.05H294.001V879.6H303.901V876.25H307.351ZM294.001 863.05V869.6H300.551V863.05H294.001ZM334.011 876.25V879.75H330.661V883.05H317.211V879.75H313.861V862.95H317.211V859.6H330.661V862.95H334.011V869.75H330.661V873.05H320.661V879.6H330.561V876.25H334.011ZM320.661 863.05V869.6H327.211V863.05H320.661ZM347.321 862.95H350.521V859.6H354.021V866.4H347.321V883.05H340.521V859.6H347.321V862.95ZM357.172 862.95H360.522V859.6H370.522V849.6H377.322V883.05H360.522V879.75H357.172V862.95ZM363.972 863.05V879.6H370.522V863.05H363.972ZM390.632 883.05H383.832V876.25H390.632V883.05ZM403.962 883.05H397.162V876.25H403.962V883.05ZM417.292 883.05H410.492V876.25H417.292V883.05ZM430.622 883.05H423.822V876.25H430.622V883.05ZM443.952 883.05H437.152V876.25H443.952V883.05ZM457.282 883.05H450.482V876.25H457.282V883.05ZM470.613 883.05H463.813V876.25H470.613V883.05ZM483.943 883.05H477.143V876.25H483.943V883.05ZM497.273 883.05H490.473V876.25H497.273V883.05ZM510.603 883.05H503.803V876.25H510.603V883.05Z" fill="#8D5905"/>
</svg>
