<svg width="579" height="372" viewBox="0 0 579 372" fill="none" xmlns="http://www.w3.org/2000/svg">
<rect width="579" height="372" fill="#8BAB64"/>
<rect width="568" height="359" fill="#DDF3C4"/>
<rect x="11" y="8" width="557" height="351" fill="#C5DAAD"/>
<rect x="24" y="18" width="530" height="94" fill="#ABD37C"/>
<rect x="484" y="36" width="53" height="59" fill="#DDF3C4"/>
<rect x="488" y="41" width="49" height="54" fill="#8BAB64"/>
<rect width="42" height="48" transform="translate(488 41)" fill="#C5DAAD"/>
<rect x="494" y="50" width="11" height="10" fill="#8BAB64"/>
<rect x="504" y="60" width="11" height="10" fill="#8BAB64"/>
<rect x="494" y="70" width="11" height="10" fill="#8BAB64"/>
<rect x="514" y="50" width="11" height="10" fill="#8BAB64"/>
<rect x="514" y="70" width="11" height="10" fill="#8BAB64"/>
<path d="M260.225 160.05H253.425V153.25H260.225V160.05ZM273.555 160.05H266.755V153.25H273.555V160.05ZM276.785 136.6H280.085V129.95H286.885V136.6H290.235V140.05H286.885V160.05H280.085V140.05H276.785V136.6ZM313.565 153.25V156.75H310.215V160.05H296.765V156.75H293.415V139.95H296.765V136.6H310.215V139.95H313.565V146.75H310.215V150.05H300.215V156.6H310.115V153.25H313.565ZM300.215 140.05V146.6H306.765V140.05H300.215ZM66.9387 213.05H60.1387V206.25H66.9387V213.05ZM80.2688 213.05H73.4688V206.25H80.2688V213.05ZM93.5988 196.4V213.05H86.7988V179.6H93.5988V192.95H96.7988V189.6H103.599V192.95H106.949V213.05H100.149V193.05H96.9488V196.4H93.5988ZM113.459 199.6H116.809V196.25H126.809V193.05H116.809V189.6H130.259V192.95H133.609V213.05H116.809V209.75H113.459V199.6ZM120.259 199.75V209.6H126.809V199.75H120.259ZM146.919 213.05H140.119V179.6H146.919V213.05ZM173.599 206.25V209.75H170.249V213.05H156.799V209.75H153.449V192.95H156.799V189.6H170.249V192.95H173.599V199.75H170.249V203.05H160.249V209.6H170.149V206.25H173.599ZM160.249 193.05V199.6H166.799V193.05H160.249ZM196.909 189.6V192.95H200.259V213.05H193.459V193.05H190.259V196.4H186.909V213.05H180.109V189.6H186.909V192.95H190.109V189.6H196.909ZM213.57 213.05H206.77V206.25H213.57V213.05ZM226.9 213.05H220.1V206.25H226.9V213.05ZM240.23 213.05H233.43V206.25H240.23V213.05ZM253.56 213.05H246.76V179.6H253.56V213.05ZM276.89 189.6V192.95H280.24V213.05H273.44V193.05H270.24V196.4H266.89V213.05H260.09V189.6H266.89V192.95H270.09V189.6H276.89ZM283.45 189.6H286.75V182.95H293.55V189.6H296.9V193.05H293.55V213.05H286.75V193.05H283.45V189.6ZM320.23 206.25V209.75H316.88V213.05H303.43V209.75H300.08V192.95H303.43V189.6H316.88V192.95H320.23V199.75H316.88V203.05H306.88V209.6H316.78V206.25H320.23ZM306.88 193.05V199.6H313.43V193.05H306.88ZM333.54 192.95H336.74V189.6H340.24V196.4H333.54V213.05H326.74V189.6H333.54V192.95ZM343.46 189.6H346.76V182.95H350.11V179.6H360.26V183.05H353.56V189.6H360.26V193.05H353.56V213.05H346.76V193.05H343.46V189.6ZM383.56 206.25V209.75H380.21V213.05H366.76V209.75H363.41V192.95H366.76V189.6H380.21V192.95H383.56V199.75H380.21V203.05H370.21V209.6H380.11V206.25H383.56ZM370.21 193.05V199.6H376.76V193.05H370.21ZM396.87 192.95H400.07V189.6H403.57V196.4H396.87V213.05H390.07V189.6H396.87V192.95ZM426.871 206.25V209.75H423.521V213.05H410.071V209.75H406.721V192.95H410.071V189.6H423.521V192.95H426.871V199.75H423.521V203.05H413.521V209.6H423.421V206.25H426.871ZM413.521 193.05V199.6H420.071V193.05H413.521ZM450.181 189.6V192.95H453.531V213.05H446.731V193.05H443.531V196.4H440.181V213.05H433.381V189.6H440.181V192.95H443.381V189.6H450.181ZM456.741 189.6H460.041V182.95H466.841V189.6H470.191V193.05H466.841V213.05H460.041V193.05H456.741V189.6ZM480.171 186.4H473.371V182.95H480.171V186.4ZM480.171 213.05H473.371V189.6H480.171V213.05ZM506.851 206.25V209.75H503.501V213.05H490.051V209.75H486.701V192.95H490.051V189.6H503.501V192.95H506.851V199.75H503.501V203.05H493.501V209.6H503.401V206.25H506.851ZM493.501 193.05V199.6H500.051V193.05H493.501ZM133.589 266.05H126.789V259.25H133.589V266.05ZM146.919 266.05H140.119V259.25H146.919V266.05ZM160.249 266.05H153.449V259.25H160.249V266.05ZM170.129 266.05V262.75H166.779V235.95H170.129V232.6H186.929V239.4H183.479V236.05H173.579V262.6H180.129V252.75H176.779V249.25H186.929V266.05H183.479V262.75H180.279V266.05H170.129ZM213.589 259.25V262.75H210.239V266.05H196.789V262.75H193.439V245.95H196.789V242.6H210.239V245.95H213.589V252.75H210.239V256.05H200.239V262.6H210.139V259.25H213.589ZM200.239 246.05V252.6H206.789V246.05H200.239ZM220.1 245.95H223.45V242.6H233.45V232.6H240.25V266.05H223.45V262.75H220.1V245.95ZM226.9 246.05V262.6H233.45V246.05H226.9ZM266.91 259.25V262.75H263.56V266.05H250.11V262.75H246.76V245.95H250.11V242.6H263.56V245.95H266.91V252.75H263.56V256.05H253.56V262.6H263.46V259.25H266.91ZM253.56 246.05V252.6H260.11V246.05H253.56ZM270.12 242.6H273.42V235.95H280.22V242.6H283.57V246.05H280.22V266.05H273.42V246.05H270.12V242.6ZM306.9 259.25V262.75H303.55V266.05H290.1V262.75H286.75V245.95H290.1V242.6H303.55V245.95H306.9V252.75H303.55V256.05H293.55V262.6H303.45V259.25H306.9ZM293.55 246.05V252.6H300.1V246.05H293.55ZM316.76 266.05V262.75H313.41V245.95H316.76V242.6H330.21V249.4H326.76V246.05H320.21V262.6H326.76V259.25H330.21V262.75H326.91V266.05H316.76ZM333.45 242.6H336.75V235.95H343.55V242.6H346.9V246.05H343.55V266.05H336.75V246.05H333.45V242.6ZM370.23 259.25V262.75H366.88V266.05H353.43V262.75H350.08V245.95H353.43V242.6H366.88V245.95H370.23V252.75H366.88V256.05H356.88V262.6H366.78V259.25H370.23ZM356.88 246.05V252.6H363.43V246.05H356.88ZM396.89 259.25V262.75H393.54V266.05H380.09V262.75H376.74V245.95H380.09V242.6H393.54V245.95H396.89V252.75H393.54V256.05H383.54V262.6H393.44V259.25H396.89ZM383.54 246.05V252.6H390.09V246.05H383.54ZM410.2 245.95H413.4V242.6H416.9V249.4H410.2V266.05H403.4V242.6H410.2V245.95ZM420.051 245.95H423.401V242.6H433.401V232.6H440.201V266.05H423.401V262.75H420.051V245.95ZM426.851 246.05V262.6H433.401V246.05H426.851Z" fill="#64764E"/>
</svg>
