<svg width="557" height="351" viewBox="0 0 557 351" fill="none" xmlns="http://www.w3.org/2000/svg">
<rect width="557" height="351" fill="#FFF8C8"/>
<rect x="13" y="10" width="530" height="94" fill="#FFD17E"/>
<rect x="473" y="28" width="53" height="59" fill="#F4EBBC"/>
<rect x="477" y="33" width="49" height="54" fill="#FCC560"/>
<rect width="42" height="48" transform="translate(477 33)" fill="#FFF8C8"/>
<rect x="483" y="42" width="11" height="10" fill="#FCC560"/>
<rect x="493" y="52" width="11" height="10" fill="#FCC560"/>
<rect x="483" y="62" width="11" height="10" fill="#FCC560"/>
<rect x="503" y="42" width="11" height="10" fill="#FCC560"/>
<rect x="503" y="62" width="11" height="10" fill="#FCC560"/>
<path d="M106.05 152.05H96.05V161.95H102.75V165.4H96.05V178.6H106.05V182.05H89.25V148.6H106.05V152.05ZM116.07 161.95H119.27V158.6H122.77V165.4H116.07V182.05H109.27V158.6H116.07V161.95ZM132.72 161.95H135.92V158.6H139.42V165.4H132.72V182.05H125.92V158.6H132.72V161.95ZM142.57 161.95H145.92V158.6H159.37V161.95H162.72V178.75H159.37V182.05H145.92V178.75H142.57V161.95ZM149.37 162.05V178.6H155.92V162.05H149.37ZM176.03 161.95H179.23V158.6H182.73V165.4H176.03V182.05H169.23V158.6H176.03V161.95ZM192.681 182.05H185.881V175.25H192.681V182.05ZM206.011 182.05H199.211V175.25H206.011V182.05ZM219.341 182.05H212.541V175.25H219.341V182.05ZM232.671 182.05H225.871V175.25H232.671V182.05ZM246.001 182.05H239.201V175.25H246.001V182.05ZM259.331 182.05H252.531V175.25H259.331V182.05ZM272.661 182.05H265.861V175.25H272.661V182.05ZM285.991 182.05H279.191V175.25H285.991V182.05ZM299.321 182.05H292.521V175.25H299.321V182.05ZM312.652 182.05H305.852V175.25H312.652V182.05ZM335.982 152.05H325.982V161.95H332.682V165.4H325.982V178.6H335.982V182.05H319.182V148.6H335.982V152.05ZM346.001 161.95H349.201V158.6H352.701V165.4H346.001V182.05H339.201V158.6H346.001V161.95ZM362.652 161.95H365.852V158.6H369.352V165.4H362.652V182.05H355.852V158.6H362.652V161.95ZM372.502 161.95H375.852V158.6H389.302V161.95H392.652V178.75H389.302V182.05H375.852V178.75H372.502V161.95ZM379.302 162.05V178.6H385.852V162.05H379.302ZM405.962 161.95H409.162V158.6H412.662V165.4H405.962V182.05H399.162V158.6H405.962V161.95ZM422.613 182.05H415.813V175.25H422.613V182.05ZM435.943 182.05H429.143V175.25H435.943V182.05ZM449.273 182.05H442.473V175.25H449.273V182.05ZM462.603 182.05H455.803V175.25H462.603V182.05ZM96.05 235.05H89.25V228.25H96.05V235.05ZM109.38 235.05H102.58V228.25H109.38V235.05ZM122.71 235.05H115.91V228.25H122.71V235.05ZM136.04 235.05H129.24V228.25H136.04V235.05ZM149.37 235.05H142.57V228.25H149.37V235.05ZM162.7 235.05H155.9V228.25H162.7V235.05ZM176.03 235.05H169.23V228.25H176.03V235.05ZM189.361 235.05H182.561V228.25H189.361V235.05ZM202.691 235.05H195.891V228.25H202.691V235.05ZM216.021 235.05H209.221V228.25H216.021V235.05ZM229.351 235.05H222.551V228.25H229.351V235.05ZM252.681 205.05H242.681V214.95H249.381V218.4H242.681V231.6H252.681V235.05H235.881V201.6H252.681V205.05ZM262.7 214.95H265.9V211.6H269.4V218.4H262.7V235.05H255.9V211.6H262.7V214.95ZM279.351 214.95H282.551V211.6H286.051V218.4H279.351V235.05H272.551V211.6H279.351V214.95ZM289.201 214.95H292.551V211.6H306.001V214.95H309.351V231.75H306.001V235.05H292.551V231.75H289.201V214.95ZM296.001 215.05V231.6H302.551V215.05H296.001ZM322.661 214.95H325.861V211.6H329.361V218.4H322.661V235.05H315.861V211.6H322.661V214.95ZM339.312 235.05H332.512V228.25H339.312V235.05ZM352.642 235.05H345.842V228.25H352.642V235.05ZM365.972 235.05H359.172V228.25H365.972V235.05ZM379.302 235.05H372.502V228.25H379.302V235.05ZM392.632 235.05H385.832V228.25H392.632V235.05Z" fill="#A18755"/>
</svg>
