<svg width="1345" height="253" viewBox="0 0 1345 253" fill="none" xmlns="http://www.w3.org/2000/svg">
<rect x="5.58203" y="5" width="1334" height="243" fill="#712222" stroke="#FF0000" stroke-width="10"/>
<path d="M152.096 76.8V107.25H142.046V147.15H132.146V177.15H111.746V147.15H101.696V107.25H91.6465V76.8H112.046V106.8H122.096V146.85H131.696V76.8H152.096ZM192.027 177.15H171.627V76.8H192.027V177.15ZM262.017 86.85H272.067V127.2H262.017V136.8H272.067V177.15H251.667V137.25H232.017V177.15H211.617V76.8H262.017V86.85ZM232.017 87.15V126.75H251.667V87.15H232.017ZM291.598 76.8H311.998V166.8H331.648V76.8H352.048V167.25H341.998V177.15H301.648V167.25H291.598V76.8ZM382.078 166.8H401.578V137.25H381.628V127.2H371.578V86.85H381.628V76.8H421.978V97.2H411.628V87.15H391.978V116.85H412.078V126.75H421.978V167.25H412.078V177.15H371.578V156.75H382.078V166.8ZM481.677 177.15V167.25H471.627V86.85H481.677V76.8H532.077V97.2H521.727V87.15H492.027V166.8H511.677V137.25H501.627V126.75H532.077V177.15H521.727V167.25H512.127V177.15H481.677ZM602.007 87.15H572.007V116.85H592.107V127.2H572.007V166.8H602.007V177.15H551.607V76.8H602.007V87.15ZM662.066 86.85H672.116V167.25H662.066V177.15H611.666V76.8H662.066V86.85ZM632.066 87.15V166.8H651.716V87.15H632.066ZM742.046 87.15H712.046V116.85H732.146V127.2H712.046V166.8H742.046V177.15H691.646V76.8H742.046V87.15ZM741.805 76.8H802.105V87.15H782.155V177.15H761.755V87.15H741.805V76.8ZM862.164 87.15H832.164V116.85H852.264V127.2H832.164V166.8H862.164V177.15H811.764V76.8H862.164V87.15ZM881.872 177.15V167.25H871.822V86.85H881.872V76.8H922.222V97.2H911.872V87.15H892.222V166.8H911.872V156.75H922.222V167.25H912.322V177.15H881.872ZM921.981 76.8H982.281V87.15H962.331V177.15H941.931V87.15H921.981V76.8ZM1042.34 87.15H1012.34V116.85H1032.44V127.2H1012.34V166.8H1042.34V177.15H991.939V76.8H1042.34V87.15ZM1102.4 87.15H1072.4V116.85H1092.5V127.2H1072.4V166.8H1102.4V177.15H1052V76.8H1102.4V87.15ZM1162.46 86.85H1172.51V127.2H1162.46V136.8H1172.51V177.15H1152.11V137.25H1132.46V177.15H1112.06V76.8H1162.46V86.85ZM1132.46 87.15V126.75H1152.11V87.15H1132.46ZM1242.44 86.85H1252.49V167.25H1242.44V177.15H1192.04V76.8H1242.44V86.85ZM1212.44 87.15V166.8H1232.09V87.15H1212.44Z" fill="#FF0000"/>
</svg>
