<svg width="1345" height="253" viewBox="0 0 1345 253" fill="none" xmlns="http://www.w3.org/2000/svg">
<rect x="5.05469" y="5" width="1334" height="243" fill="#FF0000" stroke="#712222" stroke-width="10"/>
<path d="M151.569 76.8V107.25H141.519V147.15H131.619V177.15H111.219V147.15H101.169V107.25H91.1191V76.8H111.519V106.8H121.569V146.85H131.169V76.8H151.569ZM191.5 177.15H171.1V76.8H191.5V177.15ZM261.49 86.85H271.54V127.2H261.49V136.8H271.54V177.15H251.14V137.25H231.49V177.15H211.09V76.8H261.49V86.85ZM231.49 87.15V126.75H251.14V87.15H231.49ZM291.07 76.8H311.47V166.8H331.12V76.8H351.52V167.25H341.47V177.15H301.12V167.25H291.07V76.8ZM381.551 166.8H401.051V137.25H381.101V127.2H371.051V86.85H381.101V76.8H421.451V97.2H411.101V87.15H391.451V116.85H411.551V126.75H421.451V167.25H411.551V177.15H371.051V156.75H381.551V166.8ZM481.15 177.15V167.25H471.1V86.85H481.15V76.8H531.55V97.2H521.2V87.15H491.5V166.8H511.15V137.25H501.1V126.75H531.55V177.15H521.2V167.25H511.6V177.15H481.15ZM601.48 87.15H571.48V116.85H591.58V127.2H571.48V166.8H601.48V177.15H551.08V76.8H601.48V87.15ZM661.539 86.85H671.589V167.25H661.539V177.15H611.139V76.8H661.539V86.85ZM631.539 87.15V166.8H651.189V87.15H631.539ZM741.519 87.15H711.519V116.85H731.619V127.2H711.519V166.8H741.519V177.15H691.119V76.8H741.519V87.15ZM741.278 76.8H801.578V87.15H781.628V177.15H761.228V87.15H741.278V76.8ZM861.636 87.15H831.636V116.85H851.736V127.2H831.636V166.8H861.636V177.15H811.236V76.8H861.636V87.15ZM881.345 177.15V167.25H871.295V86.85H881.345V76.8H921.695V97.2H911.345V87.15H891.695V166.8H911.345V156.75H921.695V167.25H911.795V177.15H881.345ZM921.454 76.8H981.754V87.15H961.804V177.15H941.404V87.15H921.454V76.8ZM1041.81 87.15H1011.81V116.85H1031.91V127.2H1011.81V166.8H1041.81V177.15H991.412V76.8H1041.81V87.15ZM1101.87 87.15H1071.87V116.85H1091.97V127.2H1071.87V166.8H1101.87V177.15H1051.47V76.8H1101.87V87.15ZM1161.93 86.85H1171.98V127.2H1161.93V136.8H1171.98V177.15H1151.58V137.25H1131.93V177.15H1111.53V76.8H1161.93V86.85ZM1131.93 87.15V126.75H1151.58V87.15H1131.93ZM1241.91 86.85H1251.96V167.25H1241.91V177.15H1191.51V76.8H1241.91V86.85ZM1211.91 87.15V166.8H1231.56V87.15H1211.91Z" fill="#712222"/>
</svg>
