<svg width="1125" height="825" viewBox="0 0 1125 825" fill="none" xmlns="http://www.w3.org/2000/svg">
<rect x="13.0234" y="6.97461" width="1110.98" height="818.025" fill="#D9D9D9"/>
<g filter="url(#filter0_d_220_3909)">
<rect x="13.0234" y="12.9529" width="1098.95" height="795.109" fill="#FFF6C9"/>
</g>
<rect x="37.0664" y="28.8949" width="1051.87" height="99.6377" fill="#FFD17E"/>
<rect x="1001.78" y="40.8514" width="68.1211" height="67.7536" fill="#F4EBBC"/>
<path d="M1005.79 44.837H1069.9V108.605H1005.79V44.837Z" fill="#FCC560"/>
<rect width="59.1051" height="59.7826" transform="translate(1005.79 44.837)" fill="#FFF8C8"/>
<rect x="1012.79" y="51.837" width="15.6129" height="15.3333" fill="#FCC560"/>
<rect x="1026.98" y="67.1703" width="15.6129" height="15.3333" fill="#FCC560"/>
<rect x="1012.79" y="82.5037" width="15.6129" height="15.3333" fill="#FCC560"/>
<rect x="1041.18" y="51.837" width="15.6129" height="15.3333" fill="#FCC560"/>
<rect x="1041.18" y="82.5037" width="15.6129" height="15.3333" fill="#FCC560"/>
<rect x="1111.98" width="13.0232" height="808.062" fill="#FFD17E"/>
<rect y="12.9529" width="13.0232" height="795.109" fill="#F4EBBC"/>
<rect x="1111.98" width="12.9529" height="1111.98" transform="rotate(90 1111.98 0)" fill="#F4EBBC"/>
<rect x="1125" y="808.062" width="12.9529" height="1125" transform="rotate(90 1125 808.062)" fill="#FFD17E"/>
<path d="M890.602 250.96H893.282V248.28H898.722V275.04H893.282V253.72H890.602V250.96ZM906.617 250.96H909.297V248.28H920.057V250.96H922.737V272.4H920.057V275.04H909.297V272.4H906.617V250.96ZM912.057 251.04V272.28H917.297V251.04H912.057ZM927.945 250.96H930.625V248.28H941.385V250.96H944.065V272.4H941.385V275.04H930.625V272.4H927.945V250.96ZM933.385 251.04V272.28H938.625V251.04H933.385ZM973.401 269.6V272.4H970.721V275.04H959.961V272.4H957.281V258.96H959.961V256.28H970.721V258.96H973.401V264.4H970.721V267.04H962.721V272.28H970.641V269.6H973.401ZM962.721 259.04V264.28H967.961V259.04H962.721ZM978.61 256.28H984.05V272.28H989.29V256.28H994.73V272.4H992.05V275.04H981.29V272.4H978.61V256.28ZM1005.38 258.96H1007.94V256.28H1010.74V261.72H1005.38V275.04H999.938V256.28H1005.38V258.96ZM1013.26 258.96H1015.94V256.28H1026.7V258.96H1029.38V272.4H1026.7V275.04H1015.94V272.4H1013.26V258.96ZM1018.7 259.04V272.28H1023.94V259.04H1018.7Z" fill="#F48FB0"/>
<path d="M511.602 299.72V296.96H514.282V294.28H522.402V296.96H525.042V305.04H522.402V307.6H525.042V318.4H522.402V321.04H511.602V318.28H519.602V307.72H514.282V304.96H519.602V297.04H514.402V299.72H511.602ZM535.714 299.6V305.04H533.074V310.28H538.274V294.28H543.714V310.28H546.394V313.04H543.714V321.04H538.274V313.04H530.274V304.96H532.954V299.6H535.714ZM575.73 315.6V318.4H573.05V321.04H562.29V318.4H559.61V304.96H562.29V302.28H573.05V304.96H575.73V310.4H573.05V313.04H565.05V318.28H572.97V315.6H575.73ZM565.05 305.04V310.28H570.29V305.04H565.05ZM580.938 302.28H586.378V318.28H591.618V302.28H597.058V318.4H594.378V321.04H583.618V318.4H580.938V302.28ZM607.706 304.96H610.266V302.28H613.066V307.72H607.706V321.04H602.266V302.28H607.706V304.96ZM615.586 304.96H618.266V302.28H629.026V304.96H631.706V318.4H629.026V321.04H618.266V318.4H615.586V304.96ZM621.026 305.04V318.28H626.266V305.04H621.026Z" fill="#F48FB0"/>
<path d="M895.042 437.6V443.04H892.402V448.28H897.602V432.28H903.042V448.28H905.722V451.04H903.042V459.04H897.602V451.04H889.602V442.96H892.282V437.6H895.042ZM916.37 437.6V443.04H913.73V448.28H918.93V432.28H924.37V448.28H927.05V451.04H924.37V459.04H918.93V451.04H910.93V442.96H913.61V437.6H916.37ZM956.386 440.28V443.04H953.706V445.72H951.066V450.96H953.706V453.6H956.386V459.04H950.946V453.72H948.266V451.04H945.706V459.04H940.266V432.28H945.706V448.28H948.266V445.6H950.946V442.96H953.626V440.28H956.386ZM967.034 437.72H961.594V434.96H967.034V437.72ZM967.034 459.04H961.594V440.28H967.034V459.04ZM977.698 459.04H972.258V432.28H977.698V459.04ZM982.922 442.96H985.602V440.28H996.362V442.96H999.042V456.4H996.362V459.04H985.602V456.4H982.922V442.96ZM988.362 443.04V456.28H993.602V443.04H988.362ZM1014.94 459.04V456.4H1012.26V434.96H1014.94V432.28H1025.7V437.72H1022.94V435.04H1017.7V456.28H1022.94V453.6H1025.7V456.4H1023.06V459.04H1014.94ZM1028.27 434.96H1030.95V432.28H1041.71V434.96H1044.39V456.4H1041.71V459.04H1030.95V456.4H1028.27V434.96ZM1033.71 435.04V456.28H1038.95V435.04H1033.71ZM1049.6 440.4V434.96H1052.28V432.28H1060.4V434.96H1063.04V445.72H1060.4V448.4H1057.72V451.04H1055.04V456.28H1057.68H1063.04V459.04H1049.6V450.96H1052.28V448.28H1054.96V445.6H1057.6V435.04H1052.4V440.4H1049.6Z" fill="#F48FB0"/>
<path d="M320.602 479.96H323.282V477.28H328.722V504.04H323.282V482.72H320.602V479.96ZM360.745 485.28V488.04H358.065V490.72H355.425V495.96H358.065V498.6H360.745V504.04H355.305V498.72H352.625V496.04H350.065V504.04H344.625V477.28H350.065V493.28H352.625V490.6H355.305V487.96H357.985V485.28H360.745ZM371.393 482.72H365.953V479.96H371.393V482.72ZM371.393 504.04H365.953V485.28H371.393V504.04ZM382.057 504.04H376.617V477.28H382.057V504.04ZM387.281 487.96H389.961V485.28H400.721V487.96H403.401V501.4H400.721V504.04H389.961V501.4H387.281V487.96ZM392.721 488.04V501.28H397.961V488.04H392.721ZM419.297 504.04V501.4H416.617V479.96H419.297V477.28H430.057V482.72H427.297V480.04H422.057V501.28H427.297V498.6H430.057V501.4H427.417V504.04H419.297ZM432.633 479.96H435.313V477.28H446.073V479.96H448.753V501.4H446.073V504.04H435.313V501.4H432.633V479.96ZM438.073 480.04V501.28H443.313V480.04H438.073ZM453.961 485.4V479.96H456.641V477.28H464.761V479.96H467.401V490.72H464.761V493.4H462.081V496.04H459.401V501.28H462.041H467.401V504.04H453.961V495.96H456.641V493.28H459.321V490.6H461.961V480.04H456.761V485.4H453.961Z" fill="#F48FB0"/>
<path d="M465.602 628.72H457.602V615.28H471.042V618.04H463.042V625.96H468.402V628.6H471.042V639.4H468.402V642.04H457.602V639.28H465.602V628.72ZM476.274 617.96H478.954V615.28H489.714V617.96H492.394V639.4H489.714V642.04H478.954V639.4H476.274V617.96ZM481.714 618.04V639.28H486.954V618.04H481.714ZM521.73 623.28V626.04H519.05V628.72H516.41V633.96H519.05V636.6H521.73V642.04H516.29V636.72H513.61V634.04H511.05V642.04H505.61V615.28H511.05V631.28H513.61V628.6H516.29V625.96H518.97V623.28H521.73ZM529.618 642.04V639.4H526.938V617.96H529.618V615.28H540.378V620.72H537.618V618.04H532.378V639.28H537.618V636.6H540.378V639.4H537.738V642.04H529.618ZM542.953 631.28H545.633V628.6H553.633V626.04H545.633V623.28H556.393V625.96H559.073V642.04H545.633V639.4H542.953V631.28ZM548.393 631.4V639.28H553.633V631.4H548.393ZM569.721 642.04H564.281V615.28H569.721V642.04Z" fill="#F48FB0"/>
<path d="M889.602 671.4V665.96H892.282V663.28H900.402V665.96H903.042V676.72H900.402V679.4H897.722V682.04H895.042V687.28H897.682H903.042V690.04H889.602V681.96H892.282V679.28H894.962V676.6H897.602V666.04H892.402V671.4H889.602ZM908.274 665.96H910.954V663.28H921.714V665.96H924.394V687.4H921.714V690.04H910.954V687.4H908.274V665.96ZM913.714 666.04V687.28H918.954V666.04H913.714ZM929.602 665.96H932.282V663.28H943.042V665.96H945.722V687.4H943.042V690.04H932.282V687.4H929.602V665.96ZM935.042 666.04V687.28H940.282V666.04H935.042ZM975.058 671.28V674.04H972.378V676.72H969.738V681.96H972.378V684.6H975.058V690.04H969.618V684.72H966.938V682.04H964.378V690.04H958.938V663.28H964.378V679.28H966.938V676.6H969.618V673.96H972.298V671.28H975.058ZM982.946 690.04V687.4H980.266V665.96H982.946V663.28H993.706V668.72H990.946V666.04H985.706V687.28H990.946V684.6H993.706V687.4H991.066V690.04H982.946ZM996.281 679.28H998.961V676.6H1006.96V674.04H998.961V671.28H1009.72V673.96H1012.4V690.04H998.961V687.4H996.281V679.28ZM1001.72 679.4V687.28H1006.96V679.4H1001.72ZM1023.05 690.04H1017.61V663.28H1023.05V690.04Z" fill="#F48FB0"/>
<path d="M854.101 278.343H273.434V283.82H854.101V278.343Z" fill="#FFCF80"/>
<path d="M854.101 245.015H273.434V250.493H854.101V245.015Z" fill="#FFCF80"/>
<path d="M268.139 252.864H262.407V276.501H268.139V252.864Z" fill="#FFCF80"/>
<path d="M268.139 297.722H262.407V321.36H268.139V297.722Z" fill="#FFCF80"/>
<path d="M273.434 292.774H267.379V298.827H273.434V292.774Z" fill="#FFCF80"/>
<path d="M274.194 247.478H268.139V253.531H274.194V247.478Z" fill="#FFCF80"/>
<path d="M273.434 320.255H267.379V326.308H273.434V320.255Z" fill="#FFCF80"/>
<path d="M274.194 275.304H268.139V281.358H274.194V275.304Z" fill="#FFCF80"/>
<path d="M860.456 275.212H854.078V281.588H860.456V275.212Z" fill="#FFCF80"/>
<path d="M860.456 247.317H854.078V253.692H860.456V247.317Z" fill="#FFCF80"/>
<path d="M475.547 290.38H273.434V295.789H475.547V290.38Z" fill="#FFCF80"/>
<path d="M475.547 323.27H273.434V328.679H475.547V323.27Z" fill="#FFCF80"/>
<path d="M486.551 297.561H480.819V321.199H486.551V297.561Z" fill="#FFCF80"/>
<path d="M481.141 292.452H475.086V298.505H481.141V292.452Z" fill="#FFCF80"/>
<path d="M481.463 319.841H475.086V326.216H481.463V319.841Z" fill="#FFCF80"/>
<path d="M852.191 255.833H273.434V273.532H852.191V255.833Z" fill="#83AAC0"/>
<path d="M473.221 301.06H273.434V318H473.221V301.06Z" fill="#ABD47C"/>
<path d="M478.102 303.914H471.149V315.169H478.102V303.914Z" fill="#ABD47C"/>
<path d="M854.101 461.138H273.434V466.615H854.101V461.138Z" fill="#FFCF80"/>
<path d="M854.101 427.833H273.434V433.311H854.101V427.833Z" fill="#FFCF80"/>
<path d="M865.544 435.728H859.811V459.365H865.544V435.728Z" fill="#FFCF80"/>
<path d="M865.544 251.575H859.811V275.212H865.544V251.575Z" fill="#FFCF80"/>
<path d="M860.133 430.641H854.078V436.694H860.133V430.641Z" fill="#FFCF80"/>
<path d="M860.456 458.03H854.078V464.406H860.456V458.03Z" fill="#FFCF80"/>
<path d="M285.153 473.428H272.974V478.584H285.153V473.428Z" fill="#FFCF80"/>
<path d="M285.153 505.835H272.974V510.991H285.153V505.835Z" fill="#FFCF80"/>
<path d="M296.157 480.425H290.425V504.063H296.157V480.425Z" fill="#FFCF80"/>
<path d="M290.747 475.339H284.692V481.392H290.747V475.339Z" fill="#FFCF80"/>
<path d="M291.069 502.728H284.692V509.103H291.069V502.728Z" fill="#FFCF80"/>
<path d="M852.191 438.628H273.434V456.327H852.191V438.628Z" fill="#83AAC0"/>
<path d="M854.102 691.668H273.319V697.146H854.102V691.668Z" fill="#FFCF80"/>
<path d="M854.102 658.341H273.319V663.818H854.102V658.341Z" fill="#FFCF80"/>
<path d="M865.544 666.235H859.811V689.873H865.544V666.235Z" fill="#FFCF80"/>
<path d="M860.133 661.149H854.078V667.202H860.133V661.149Z" fill="#FFCF80"/>
<path d="M860.456 688.538H854.078V694.913H860.456V688.538Z" fill="#FFCF80"/>
<path d="M852.191 669.158H273.434V686.858H852.191V669.158Z" fill="#ABD47C"/>
<path d="M421.283 611.341H273.434V616.497H421.283V611.341Z" fill="#FFCF80"/>
<path d="M422.457 644.83H273.434V650.308H422.457V644.83Z" fill="#FFCF80"/>
<path d="M432.955 618.96H427.223V642.597H432.955V618.96Z" fill="#FFCF80"/>
<path d="M427.522 613.873H421.26V619.927H427.522V613.873Z" fill="#FFCF80"/>
<path d="M427.868 641.263H421.49V647.638H427.868V641.263Z" fill="#FFCF80"/>
<path d="M418.889 621.929H274.631V639.628H418.889V621.929Z" fill="#83AAC0"/>
<path d="M278.799 483.878H272.974V500.818H278.799V483.878Z" fill="#ABD47C"/>
<path d="M285.728 486.593H269.382V497.848H285.728V486.593Z" fill="#ABD47C"/>
<path d="M857.279 258.595H271.155V271.346H857.279V258.595Z" fill="#83AAC0"/>
<path d="M267.656 435.935H261.923V459.572H267.656V435.935Z" fill="#FFCF80"/>
<path d="M267.656 480.793H261.923V504.431H267.656V480.793Z" fill="#FFCF80"/>
<path d="M272.974 475.845H266.919V481.898H272.974V475.845Z" fill="#FFCF80"/>
<path d="M272.974 503.326H266.919V509.38H272.974V503.326Z" fill="#FFCF80"/>
<path d="M273.711 458.399H267.656V464.452H273.711V458.399Z" fill="#FFCF80"/>
<path d="M273.434 430.296H267.379V436.349H273.434V430.296Z" fill="#FFCF80"/>
<path d="M856.127 440.791H270.695V454.417H856.127V440.791Z" fill="#83AAC0"/>
<path d="M856.427 672.45H269.751V683.704H856.427V672.45Z" fill="#ABD47C"/>
<path d="M268.001 621.054H262.269V644.692H268.001V621.054Z" fill="#FFCF80"/>
<path d="M268.001 665.913H262.269V689.551H268.001V665.913Z" fill="#FFCF80"/>
<path d="M273.319 660.964H267.264V667.018H273.319V660.964Z" fill="#FFCF80"/>
<path d="M273.319 688.446H267.264V694.499H273.319V688.446Z" fill="#FFCF80"/>
<path d="M274.079 643.518H268.024V649.571H274.079V643.518Z" fill="#FFCF80"/>
<path d="M273.78 615.415H267.725V621.469H273.78V615.415Z" fill="#FFCF80"/>
<path d="M281.63 624.369H272.237V637.994H281.63V624.369Z" fill="#83AAC0"/>
<path d="M421.26 624.369H411.867V637.994H421.26V624.369Z" fill="#83AAC0"/>
<path d="M278.868 303.568H269.474V315.468H278.868V303.568Z" fill="#ABD47C"/>
<path d="M78.72 258.28V261.04H76.04V263.72H73.4V268.96H76.04V271.6H78.72V277.04H73.28V271.72H70.6V269.04H68.04V277.04H62.6V250.28H68.04V266.28H70.6V263.6H73.28V260.96H75.96V258.28H78.72ZM83.9281 260.96H86.6081V258.28H97.3681V260.96H100.048V274.4H97.3681V277.04H86.6081V274.4H83.9281V260.96ZM89.3681 261.04V274.28H94.6081V261.04H89.3681ZM108.056 274.28H113.256V271.72H110.616V269.04H107.936V266.4H105.256V260.96H107.936V258.28H118.696V263.72H115.936V261.04H110.696V263.6H113.376V266.28H116.056V268.96H118.696V274.4H116.056V277.04H105.256V271.6H108.056V274.28ZM121.288 258.28H123.928V252.96H129.368V258.28H132.048V261.04H129.368V277.04H123.928V261.04H121.288V258.28ZM150.712 271.6V274.4H148.032V277.04H137.272V274.4H134.592V260.96H137.272V258.28H148.032V260.96H150.712V266.4H148.032V269.04H140.032V274.28H147.952V271.6H150.712ZM140.032 261.04V266.28H145.272V261.04H140.032ZM169.36 258.28V260.96H172.04V277.04H166.6V261.04H164.04V263.72H161.36V277.04H155.92V258.28H161.36V260.96H163.92V258.28H169.36ZM76.04 303.96H78.72V317.4H76.04V320.04H68.04V325.4H62.6V301.28H76.04V303.96ZM68.04 304.04V317.28H73.28V304.04H68.04ZM100.048 314.6V317.4H97.3681V320.04H86.6081V317.4H83.9281V303.96H86.6081V301.28H97.3681V303.96H100.048V309.4H97.3681V312.04H89.3681V317.28H97.2881V314.6H100.048ZM89.3681 304.04V309.28H94.6081V304.04H89.3681ZM110.696 303.96H113.256V301.28H116.056V306.72H110.696V320.04H105.256V301.28H110.696V303.96ZM150.704 301.28V303.96H153.384V320.04H147.944V304.04H145.384V306.72H142.704V320.04H137.264V304.04H134.704V306.72H132.024V320.04H126.584V301.28H132.024V303.96H134.584V301.28H140.024V303.96H145.264V301.28H150.704ZM158.577 309.28H161.257V306.6H169.257V304.04H161.257V301.28H172.017V303.96H174.697V320.04H161.257V317.4H158.577V309.28ZM164.017 309.4V317.28H169.257V309.4H164.017ZM179.905 309.28H182.585V306.6H190.585V304.04H182.585V301.28H193.345V303.96H196.025V320.04H182.585V317.4H179.905V309.28ZM185.345 309.4V317.28H190.585V309.4H185.345ZM214.673 301.28V303.96H217.353V320.04H211.913V304.04H209.353V306.72H206.673V320.04H201.233V301.28H206.673V303.96H209.233V301.28H214.673ZM222.561 303.96H225.241V301.28H233.241V293.28H238.681V320.04H225.241V317.4H222.561V303.96ZM228.001 304.04V317.28H233.241V304.04H228.001Z" fill="#8D5905"/>
<path d="M65.28 453.04V450.4H62.6V428.96H65.28V426.28H76.04V431.72H73.28V429.04H68.04V450.28H73.28V447.6H76.04V450.4H73.4V453.04H65.28ZM78.6156 428.96H81.2956V426.28H92.0556V428.96H94.7356V450.4H92.0556V453.04H81.2956V450.4H78.6156V428.96ZM84.0556 429.04V450.28H89.2956V429.04H84.0556ZM99.9438 434.4V428.96H102.624V426.28H110.744V428.96H113.384V439.72H110.744V442.4H108.064V445.04H105.384V450.28H108.024H113.384V453.04H99.9438V444.96H102.624V442.28H105.304V439.6H107.944V429.04H102.744V434.4H99.9438ZM126.623 434.28H132.063V450.28H137.303V434.28H142.743V450.4H140.063V453.04H129.303V450.4H126.623V434.28ZM153.392 431.72H147.952V428.96H153.392V431.72ZM153.392 453.04H147.952V434.28H153.392V453.04ZM155.976 434.28H158.616V428.96H164.056V434.28H166.736V437.04H164.056V453.04H158.616V437.04H155.976V434.28ZM172.08 450.28H177.28V447.72H174.64V445.04H171.96V442.4H169.28V436.96H171.96V434.28H182.72V439.72H179.96V437.04H174.72V439.6H177.4V442.28H180.08V444.96H182.72V450.4H180.08V453.04H169.28V447.6H172.08V450.28ZM185.312 434.28H187.952V428.96H193.392V434.28H196.072V437.04H193.392V453.04H187.952V437.04H185.312V434.28ZM198.616 436.96H201.296V434.28H212.056V436.96H214.736V450.4H212.056V453.04H201.296V450.4H198.616V436.96ZM204.056 437.04V450.28H209.296V437.04H204.056ZM219.944 436.96H222.624V434.28H233.384V436.96H236.064V450.4H233.384V453.04H222.624V450.4H219.944V436.96ZM225.384 437.04V450.28H230.624V437.04H225.384ZM238.632 434.28H241.272V428.96H246.712V434.28H249.392V437.04H246.712V453.04H241.272V437.04H238.632V434.28ZM76.04 479.96H78.72V493.4H76.04V496.04H68.04V501.4H62.6V477.28H76.04V479.96ZM68.04 480.04V493.28H73.28V480.04H68.04ZM100.048 490.6V493.4H97.3681V496.04H86.6081V493.4H83.9281V479.96H86.6081V477.28H97.3681V479.96H100.048V485.4H97.3681V488.04H89.3681V493.28H97.2881V490.6H100.048ZM89.3681 480.04V485.28H94.6081V480.04H89.3681ZM110.696 479.96H113.256V477.28H116.056V482.72H110.696V496.04H105.256V477.28H110.696V479.96ZM150.704 477.28V479.96H153.384V496.04H147.944V480.04H145.384V482.72H142.704V496.04H137.264V480.04H134.704V482.72H132.024V496.04H126.584V477.28H132.024V479.96H134.584V477.28H140.024V479.96H145.264V477.28H150.704ZM158.577 485.28H161.257V482.6H169.257V480.04H161.257V477.28H172.017V479.96H174.697V496.04H161.257V493.4H158.577V485.28ZM164.017 485.4V493.28H169.257V485.4H164.017ZM179.905 485.28H182.585V482.6H190.585V480.04H182.585V477.28H193.345V479.96H196.025V496.04H182.585V493.4H179.905V485.28ZM185.345 485.4V493.28H190.585V485.4H185.345ZM214.673 477.28V479.96H217.353V496.04H211.913V480.04H209.353V482.72H206.673V496.04H201.233V477.28H206.673V479.96H209.233V477.28H214.673ZM222.561 479.96H225.241V477.28H233.241V469.28H238.681V496.04H225.241V493.4H222.561V479.96ZM228.001 480.04V493.28H233.241V480.04H228.001Z" fill="#8D5905"/>
<path d="M70.28 650.04V647.4H67.6V625.96H70.28V623.28H81.04V628.72H78.28V626.04H73.04V647.28H78.28V644.6H81.04V647.4H78.4V650.04H70.28ZM83.6156 639.28H86.2956V636.6H94.2956V634.04H86.2956V631.28H97.0556V633.96H99.7356V650.04H86.2956V647.4H83.6156V639.28ZM89.0556 639.4V647.28H94.2956V639.4H89.0556ZM110.384 650.04H104.944V623.28H110.384V650.04ZM115.608 633.96H118.288V631.28H129.048V633.96H131.728V647.4H129.048V650.04H118.288V647.4H115.608V633.96ZM121.048 634.04V647.28H126.288V634.04H121.048ZM142.376 633.96H144.936V631.28H147.736V636.72H142.376V650.04H136.936V631.28H142.376V633.96ZM155.696 628.72H150.256V625.96H155.696V628.72ZM155.696 650.04H150.256V631.28H155.696V650.04ZM177.04 644.6V647.4H174.36V650.04H163.6V647.4H160.92V633.96H163.6V631.28H174.36V633.96H177.04V639.4H174.36V642.04H166.36V647.28H174.28V644.6H177.04ZM166.36 634.04V639.28H171.6V634.04H166.36ZM198.368 644.6V647.4H195.688V650.04H184.928V647.4H182.248V633.96H184.928V631.28H195.688V633.96H198.368V639.4H195.688V642.04H187.688V647.28H195.608V644.6H198.368ZM187.688 634.04V639.28H192.928V634.04H187.688ZM187.688 628.72H184.928V625.96H187.688V628.72ZM195.688 628.72H192.928V625.96H195.688V628.72ZM217.017 631.28V633.96H219.697V650.04H214.257V634.04H211.697V636.72H209.017V650.04H203.577V631.28H209.017V633.96H211.577V631.28H217.017ZM81.04 676.96H83.72V690.4H81.04V693.04H73.04V698.4H67.6V674.28H81.04V676.96ZM73.04 677.04V690.28H78.28V677.04H73.04ZM105.048 687.6V690.4H102.368V693.04H91.6081V690.4H88.9281V676.96H91.6081V674.28H102.368V676.96H105.048V682.4H102.368V685.04H94.3681V690.28H102.288V687.6H105.048ZM94.3681 677.04V682.28H99.6081V677.04H94.3681ZM115.696 676.96H118.256V674.28H121.056V679.72H115.696V693.04H110.256V674.28H115.696V676.96ZM137.024 676.96H139.584V674.28H142.384V679.72H137.024V693.04H131.584V674.28H137.024V676.96ZM150.345 671.72H144.905V668.96H150.345V671.72ZM150.345 693.04H144.905V674.28H150.345V693.04ZM152.929 674.28H155.569V668.96H161.009V674.28H163.689V677.04H161.009V693.04H155.569V677.04H152.929V674.28Z" fill="#8D5905"/>
<defs>
<filter id="filter0_d_220_3909" x="9.02344" y="12.9529" width="1106.95" height="803.109" filterUnits="userSpaceOnUse" color-interpolation-filters="sRGB">
<feFlood flood-opacity="0" result="BackgroundImageFix"/>
<feColorMatrix in="SourceAlpha" type="matrix" values="0 0 0 0 0 0 0 0 0 0 0 0 0 0 0 0 0 0 127 0" result="hardAlpha"/>
<feOffset dy="4"/>
<feGaussianBlur stdDeviation="2"/>
<feComposite in2="hardAlpha" operator="out"/>
<feColorMatrix type="matrix" values="0 0 0 0 0 0 0 0 0 0 0 0 0 0 0 0 0 0 0.25 0"/>
<feBlend mode="normal" in2="BackgroundImageFix" result="effect1_dropShadow_220_3909"/>
<feBlend mode="normal" in="SourceGraphic" in2="effect1_dropShadow_220_3909" result="shape"/>
</filter>
</defs>
</svg>
