<svg width="1125" height="825" viewBox="0 0 1125 825" fill="none" xmlns="http://www.w3.org/2000/svg">
<rect x="13.0234" y="6.97461" width="1110.98" height="818.025" fill="#D9D9D9"/>
<g filter="url(#filter0_d_220_3909)">
<rect x="13.0234" y="12.9529" width="1098.95" height="795.109" fill="#FFF6C9"/>
</g>
<rect x="37.0664" y="28.8949" width="1051.87" height="99.6377" fill="#FFD17E"/>
<rect x="1001.78" y="40.8514" width="68.1211" height="67.7536" fill="#F4EBBC"/>
<path d="M1005.79 44.837H1069.9V108.605H1005.79V44.837Z" fill="#FCC560"/>
<rect width="59.1051" height="59.7826" transform="translate(1005.79 44.837)" fill="#FFF8C8"/>
<rect x="1012.79" y="51.837" width="15.6129" height="15.3333" fill="#FCC560"/>
<rect x="1026.98" y="67.1703" width="15.6129" height="15.3333" fill="#FCC560"/>
<rect x="1012.79" y="82.5037" width="15.6129" height="15.3333" fill="#FCC560"/>
<rect x="1041.18" y="51.837" width="15.6129" height="15.3333" fill="#FCC560"/>
<rect x="1041.18" y="82.5037" width="15.6129" height="15.3333" fill="#FCC560"/>
<rect x="1111.98" width="13.0232" height="808.062" fill="#FFD17E"/>
<rect y="12.9529" width="13.0232" height="795.109" fill="#F4EBBC"/>
<rect x="1111.98" width="12.9529" height="1111.98" transform="rotate(90 1111.98 0)" fill="#F4EBBC"/>
<rect x="1125" y="808.062" width="12.9529" height="1125" transform="rotate(90 1125 808.062)" fill="#FFD17E"/>
<g clip-path="url(#clip0_220_3909)">
<path d="M52.9272 380.512H49.7732V382.928H52.9272V380.512Z" fill="#FFCF80"/>
<path d="M890.602 250.96H893.282V248.28H898.722V275.04H893.282V253.72H890.602V250.96ZM906.617 250.96H909.297V248.28H920.057V250.96H922.737V272.4H920.057V275.04H909.297V272.4H906.617V250.96ZM912.057 251.04V272.28H917.297V251.04H912.057ZM927.945 250.96H930.625V248.28H941.385V250.96H944.065V272.4H941.385V275.04H930.625V272.4H927.945V250.96ZM933.385 251.04V272.28H938.625V251.04H933.385ZM973.401 269.6V272.4H970.721V275.04H959.961V272.4H957.281V258.96H959.961V256.28H970.721V258.96H973.401V264.4H970.721V267.04H962.721V272.28H970.641V269.6H973.401ZM962.721 259.04V264.28H967.961V259.04H962.721ZM978.61 256.28H984.05V272.28H989.29V256.28H994.73V272.4H992.05V275.04H981.29V272.4H978.61V256.28ZM1005.38 258.96H1007.94V256.28H1010.74V261.72H1005.38V275.04H999.938V256.28H1005.38V258.96ZM1013.26 258.96H1015.94V256.28H1026.7V258.96H1029.38V272.4H1026.7V275.04H1015.94V272.4H1013.26V258.96ZM1018.7 259.04V272.28H1023.94V259.04H1018.7Z" fill="#F48FB0"/>
<path d="M511.602 299.72V296.96H514.282V294.28H522.402V296.96H525.042V305.04H522.402V307.6H525.042V318.4H522.402V321.04H511.602V318.28H519.602V307.72H514.282V304.96H519.602V297.04H514.402V299.72H511.602ZM535.714 299.6V305.04H533.074V310.28H538.274V294.28H543.714V310.28H546.394V313.04H543.714V321.04H538.274V313.04H530.274V304.96H532.954V299.6H535.714ZM575.73 315.6V318.4H573.05V321.04H562.29V318.4H559.61V304.96H562.29V302.28H573.05V304.96H575.73V310.4H573.05V313.04H565.05V318.28H572.97V315.6H575.73ZM565.05 305.04V310.28H570.29V305.04H565.05ZM580.938 302.28H586.378V318.28H591.618V302.28H597.058V318.4H594.378V321.04H583.618V318.4H580.938V302.28ZM607.706 304.96H610.266V302.28H613.066V307.72H607.706V321.04H602.266V302.28H607.706V304.96ZM615.586 304.96H618.266V302.28H629.026V304.96H631.706V318.4H629.026V321.04H618.266V318.4H615.586V304.96ZM621.026 305.04V318.28H626.266V305.04H621.026Z" fill="#F48FB0"/>
<path d="M895.042 437.6V443.04H892.402V448.28H897.602V432.28H903.042V448.28H905.722V451.04H903.042V459.04H897.602V451.04H889.602V442.96H892.282V437.6H895.042ZM916.37 437.6V443.04H913.73V448.28H918.93V432.28H924.37V448.28H927.05V451.04H924.37V459.04H918.93V451.04H910.93V442.96H913.61V437.6H916.37ZM956.386 440.28V443.04H953.706V445.72H951.066V450.96H953.706V453.6H956.386V459.04H950.946V453.72H948.266V451.04H945.706V459.04H940.266V432.28H945.706V448.28H948.266V445.6H950.946V442.96H953.626V440.28H956.386ZM967.034 437.72H961.594V434.96H967.034V437.72ZM967.034 459.04H961.594V440.28H967.034V459.04ZM977.698 459.04H972.258V432.28H977.698V459.04ZM982.922 442.96H985.602V440.28H996.362V442.96H999.042V456.4H996.362V459.04H985.602V456.4H982.922V442.96ZM988.362 443.04V456.28H993.602V443.04H988.362ZM1014.94 459.04V456.4H1012.26V434.96H1014.94V432.28H1025.7V437.72H1022.94V435.04H1017.7V456.28H1022.94V453.6H1025.7V456.4H1023.06V459.04H1014.94ZM1028.27 434.96H1030.95V432.28H1041.71V434.96H1044.39V456.4H1041.71V459.04H1030.95V456.4H1028.27V434.96ZM1033.71 435.04V456.28H1038.95V435.04H1033.71ZM1049.6 440.4V434.96H1052.28V432.28H1060.4V434.96H1063.04V445.72H1060.4V448.4H1057.72V451.04H1055.04V456.28H1057.68H1063.04V459.04H1049.6V450.96H1052.28V448.28H1054.96V445.6H1057.6V435.04H1052.4V440.4H1049.6Z" fill="#F48FB0"/>
<path d="M320.602 479.96H323.282V477.28H328.722V504.04H323.282V482.72H320.602V479.96ZM360.745 485.28V488.04H358.065V490.72H355.425V495.96H358.065V498.6H360.745V504.04H355.305V498.72H352.625V496.04H350.065V504.04H344.625V477.28H350.065V493.28H352.625V490.6H355.305V487.96H357.985V485.28H360.745ZM371.393 482.72H365.953V479.96H371.393V482.72ZM371.393 504.04H365.953V485.28H371.393V504.04ZM382.057 504.04H376.617V477.28H382.057V504.04ZM387.281 487.96H389.961V485.28H400.721V487.96H403.401V501.4H400.721V504.04H389.961V501.4H387.281V487.96ZM392.721 488.04V501.28H397.961V488.04H392.721ZM419.297 504.04V501.4H416.617V479.96H419.297V477.28H430.057V482.72H427.297V480.04H422.057V501.28H427.297V498.6H430.057V501.4H427.417V504.04H419.297ZM432.633 479.96H435.313V477.28H446.073V479.96H448.753V501.4H446.073V504.04H435.313V501.4H432.633V479.96ZM438.073 480.04V501.28H443.313V480.04H438.073ZM453.961 485.4V479.96H456.641V477.28H464.761V479.96H467.401V490.72H464.761V493.4H462.081V496.04H459.401V501.28H462.041H467.401V504.04H453.961V495.96H456.641V493.28H459.321V490.6H461.961V480.04H456.761V485.4H453.961Z" fill="#F48FB0"/>
<path d="M465.602 628.72H457.602V615.28H471.042V618.04H463.042V625.96H468.402V628.6H471.042V639.4H468.402V642.04H457.602V639.28H465.602V628.72ZM476.274 617.96H478.954V615.28H489.714V617.96H492.394V639.4H489.714V642.04H478.954V639.4H476.274V617.96ZM481.714 618.04V639.28H486.954V618.04H481.714ZM521.73 623.28V626.04H519.05V628.72H516.41V633.96H519.05V636.6H521.73V642.04H516.29V636.72H513.61V634.04H511.05V642.04H505.61V615.28H511.05V631.28H513.61V628.6H516.29V625.96H518.97V623.28H521.73ZM529.618 642.04V639.4H526.938V617.96H529.618V615.28H540.378V620.72H537.618V618.04H532.378V639.28H537.618V636.6H540.378V639.4H537.738V642.04H529.618ZM542.953 631.28H545.633V628.6H553.633V626.04H545.633V623.28H556.393V625.96H559.073V642.04H545.633V639.4H542.953V631.28ZM548.393 631.4V639.28H553.633V631.4H548.393ZM569.721 642.04H564.281V615.28H569.721V642.04Z" fill="#F48FB0"/>
<path d="M889.602 671.4V665.96H892.282V663.28H900.402V665.96H903.042V676.72H900.402V679.4H897.722V682.04H895.042V687.28H897.682H903.042V690.04H889.602V681.96H892.282V679.28H894.962V676.6H897.602V666.04H892.402V671.4H889.602ZM908.274 665.96H910.954V663.28H921.714V665.96H924.394V687.4H921.714V690.04H910.954V687.4H908.274V665.96ZM913.714 666.04V687.28H918.954V666.04H913.714ZM929.602 665.96H932.282V663.28H943.042V665.96H945.722V687.4H943.042V690.04H932.282V687.4H929.602V665.96ZM935.042 666.04V687.28H940.282V666.04H935.042ZM975.058 671.28V674.04H972.378V676.72H969.738V681.96H972.378V684.6H975.058V690.04H969.618V684.72H966.938V682.04H964.378V690.04H958.938V663.28H964.378V679.28H966.938V676.6H969.618V673.96H972.298V671.28H975.058ZM982.946 690.04V687.4H980.266V665.96H982.946V663.28H993.706V668.72H990.946V666.04H985.706V687.28H990.946V684.6H993.706V687.4H991.066V690.04H982.946ZM996.281 679.28H998.961V676.6H1006.96V674.04H998.961V671.28H1009.72V673.96H1012.4V690.04H998.961V687.4H996.281V679.28ZM1001.72 679.4V687.28H1006.96V679.4H1001.72ZM1023.05 690.04H1017.61V663.28H1023.05V690.04Z" fill="#F48FB0"/>
<path d="M75.0746 267.318H58.5907V273.601H75.0746V267.318Z" fill="#FFCF80"/>
<path d="M62.1592 270.448H55.1834V296.71H62.1592V270.448Z" fill="#FFCF80"/>
<path d="M75.0746 293.027H58.6598V299.771H75.0746V293.027Z" fill="#FFCF80"/>
<path d="M68.2831 277.33H49.2437V280.736H68.2831V277.33Z" fill="#FFCF80"/>
<path d="M68.2831 286.859H49.2437V290.587H68.2831V286.859Z" fill="#FFCF80"/>
<path d="M75.0746 253.554H55.1834V257.812H75.0746V253.554Z" fill="#FFCF80"/>
<path d="M81.705 257.789H75.0746V260.85H81.705V257.789Z" fill="#FFCF80"/>
<path d="M56.2194 257.398H49.2437V260.827H56.2194V257.398Z" fill="#FFCF80"/>
<path d="M84.9742 260.85H81.705V263.888H84.9742V260.85Z" fill="#FFCF80"/>
<path d="M87.6678 263.888H84.5598V266.996H87.6678V263.888Z" fill="#FFCF80"/>
<path d="M91.6046 266.996H87.6678V273.601H91.6046V266.996Z" fill="#FFCF80"/>
<path d="M94.6205 273.601H90.8218V293.856H94.6205V273.601Z" fill="#FFCF80"/>
<path d="M91.3974 293.856H88.0131V299.794H91.3974V293.856Z" fill="#FFCF80"/>
<path d="M87.6678 300.116H84.5598V303.223H87.6678V300.116Z" fill="#FFCF80"/>
<path d="M84.5598 303.2H81.705V306.054H84.5598V303.2Z" fill="#FFCF80"/>
<path d="M81.3827 306.031H75.0746V309.345H81.3827V306.031Z" fill="#FFCF80"/>
<path d="M75.0746 309.345H55.1834V313.005H75.0746V309.345Z" fill="#FFCF80"/>
<path d="M55.5748 306.031H48.8753V309.76H55.5748V306.031Z" fill="#FFCF80"/>
<path d="M48.8983 303.223H45.9285V306.031H48.8983V303.223Z" fill="#FFCF80"/>
<path d="M45.9055 300.116H42.1068V303.223H45.9055V300.116Z" fill="#FFCF80"/>
<path d="M42.6133 293.856H39.0909V300.139H42.6133V293.856Z" fill="#FFCF80"/>
<path d="M39.0909 273.601H35.9138V294.201H39.0909V273.601Z" fill="#FFCF80"/>
<path d="M42.1298 267.318H39.0909V273.601H42.1298V267.318Z" fill="#FFCF80"/>
<path d="M45.9975 263.888H41.8305V268.054H45.9975V263.888Z" fill="#FFCF80"/>
<path d="M49.2437 260.85H45.9285V264.165H49.2437V260.85Z" fill="#FFCF80"/>
<path d="M55.9781 456.506L51.7958 449.973L50.3996 450.866L54.582 457.399L55.9781 456.506Z" fill="#FFCF80"/>
<path d="M55.9683 459.576L54.5783 457.404L53.57 458.05L54.96 460.221L55.9683 459.576Z" fill="#FFCF80"/>
<path d="M50.72 451.132L49.2556 448.844L48.1309 449.564L49.5953 451.851L50.72 451.132Z" fill="#FFCF80"/>
<path d="M55.6438 461.281L54.9612 460.215L53.9529 460.86L54.6354 461.926L55.6438 461.281Z" fill="#FFCF80"/>
<path d="M55.2369 462.826L54.5791 461.798L53.5514 462.456L54.2091 463.483L55.2369 462.826Z" fill="#FFCF80"/>
<path d="M55.0191 464.757L54.1876 463.458L52.0158 464.848L52.8473 466.147L55.0191 464.757Z" fill="#FFCF80"/>
<path d="M53.4789 467.117L52.6846 465.876L46.0336 470.132L46.8279 471.373L53.4789 467.117Z" fill="#FFCF80"/>
<path d="M46.1637 470.338L45.4563 469.233L43.5172 470.474L44.2246 471.579L46.1637 470.338Z" fill="#FFCF80"/>
<path d="M43.3232 470.443L42.6654 469.416L41.6377 470.074L42.2955 471.101L43.3232 470.443Z" fill="#FFCF80"/>
<path d="M41.6651 470.048L41.0694 469.117L40.1386 469.713L40.7343 470.643L41.6651 470.048Z" fill="#FFCF80"/>
<path d="M40.0558 469.612L38.7278 467.537L37.6419 468.232L38.9699 470.306L40.0558 469.612Z" fill="#FFCF80"/>
<path d="M37.6377 468.239L33.4554 461.706L32.2531 462.475L36.4355 469.008L37.6377 468.239Z" fill="#FFCF80"/>
<path d="M34.6425 461.129L33.2401 458.939L32.0185 459.721L33.4209 461.911L34.6425 461.129Z" fill="#FFCF80"/>
<path d="M34.1717 458.353L33.5512 457.384L32.6204 457.979L33.241 458.948L34.1717 458.353Z" fill="#FFCF80"/>
<path d="M34.5529 456.734L33.7586 455.493L32.7309 456.151L33.5252 457.391L34.5529 456.734Z" fill="#FFCF80"/>
<path d="M35.9174 454.325L35.1727 453.161L33.1173 454.477L33.8619 455.64L35.9174 454.325Z" fill="#FFCF80"/>
<path d="M41.8316 448.918L41.1614 447.871L34.394 452.201L35.0642 453.248L41.8316 448.918Z" fill="#FFCF80"/>
<path d="M44.509 448.568L43.8761 447.579L41.8207 448.894L42.4536 449.883L44.509 448.568Z" fill="#FFCF80"/>
<path d="M46.4748 449.152L45.5937 447.775L44.2169 448.656L45.0981 450.033L46.4748 449.152Z" fill="#FFCF80"/>
<path d="M48.1519 449.549L47.4569 448.463L46.371 449.158L47.066 450.244L48.1519 449.549Z" fill="#FFCF80"/>
<path d="M55.9781 456.506L51.7958 449.973L50.3996 450.866L54.582 457.399L55.9781 456.506Z" fill="#FFCF80"/>
<path d="M55.9683 459.576L54.5783 457.404L53.57 458.05L54.96 460.221L55.9683 459.576Z" fill="#FFCF80"/>
<path d="M50.72 451.132L49.2556 448.844L48.1309 449.564L49.5953 451.851L50.72 451.132Z" fill="#FFCF80"/>
<path d="M55.6438 461.281L54.9612 460.215L53.9529 460.86L54.6354 461.926L55.6438 461.281Z" fill="#FFCF80"/>
<path d="M55.2369 462.826L54.5791 461.798L53.5514 462.456L54.2091 463.483L55.2369 462.826Z" fill="#FFCF80"/>
<path d="M55.0191 464.757L54.1876 463.458L52.0158 464.848L52.8473 466.147L55.0191 464.757Z" fill="#FFCF80"/>
<path d="M53.4789 467.117L52.6846 465.876L46.0336 470.132L46.8279 471.373L53.4789 467.117Z" fill="#FFCF80"/>
<path d="M46.1637 470.338L45.4563 469.233L43.5172 470.474L44.2246 471.579L46.1637 470.338Z" fill="#FFCF80"/>
<path d="M43.3232 470.443L42.6654 469.416L41.6377 470.074L42.2955 471.101L43.3232 470.443Z" fill="#FFCF80"/>
<path d="M41.6651 470.048L41.0694 469.117L40.1386 469.713L40.7343 470.643L41.6651 470.048Z" fill="#FFCF80"/>
<path d="M40.0558 469.612L38.7278 467.537L37.6419 468.232L38.9699 470.306L40.0558 469.612Z" fill="#FFCF80"/>
<path d="M37.6377 468.239L33.4554 461.706L32.2531 462.475L36.4355 469.008L37.6377 468.239Z" fill="#FFCF80"/>
<path d="M34.6425 461.129L33.2401 458.939L32.0185 459.721L33.4209 461.911L34.6425 461.129Z" fill="#FFCF80"/>
<path d="M34.1717 458.353L33.5512 457.384L32.6204 457.979L33.241 458.948L34.1717 458.353Z" fill="#FFCF80"/>
<path d="M34.5529 456.734L33.7586 455.493L32.7309 456.151L33.5252 457.391L34.5529 456.734Z" fill="#FFCF80"/>
<path d="M35.9174 454.325L35.1727 453.161L33.1173 454.477L33.8619 455.64L35.9174 454.325Z" fill="#FFCF80"/>
<path d="M41.8316 448.918L41.1614 447.871L34.394 452.201L35.0642 453.248L41.8316 448.918Z" fill="#FFCF80"/>
<path d="M44.509 448.568L43.8761 447.579L41.8207 448.894L42.4536 449.883L44.509 448.568Z" fill="#FFCF80"/>
<path d="M46.4748 449.152L45.5937 447.775L44.2169 448.656L45.0981 450.033L46.4748 449.152Z" fill="#FFCF80"/>
<path d="M48.1519 449.549L47.4569 448.463L46.371 449.158L47.066 450.244L48.1519 449.549Z" fill="#FFCF80"/>
<path d="M94.1772 457.347L88.394 448.313L86.4549 449.554L92.2382 458.587L94.1772 457.347Z" fill="#FFCF80"/>
<path d="M94.1645 461.606L92.2409 458.601L90.8447 459.494L92.7684 462.499L94.1645 461.606Z" fill="#FFCF80"/>
<path d="M86.9419 449.94L84.9066 446.76L83.3359 447.765L85.3712 450.945L86.9419 449.94Z" fill="#FFCF80"/>
<path d="M93.7318 463.989L92.7762 462.496L91.3994 463.377L92.355 464.869L93.7318 463.989Z" fill="#FFCF80"/>
<path d="M93.1428 466.083L92.2368 464.668L90.8213 465.574L91.7273 466.989L93.1428 466.083Z" fill="#FFCF80"/>
<path d="M92.8687 468.799L91.7146 466.996L88.709 468.919L89.8631 470.722L92.8687 468.799Z" fill="#FFCF80"/>
<path d="M90.7574 472.096L89.6529 470.37L80.4422 476.264L81.5468 477.989L90.7574 472.096Z" fill="#FFCF80"/>
<path d="M80.5913 476.499L79.6109 474.968L76.9155 476.693L77.896 478.224L80.5913 476.499Z" fill="#FFCF80"/>
<path d="M76.6776 476.64L75.7716 475.225L74.3561 476.131L75.262 477.546L76.6776 476.64Z" fill="#FFCF80"/>
<path d="M74.3476 476.132L73.5161 474.833L72.2169 475.664L73.0484 476.963L74.3476 476.132Z" fill="#FFCF80"/>
<path d="M72.1536 475.497L70.3168 472.628L68.8043 473.596L70.6411 476.465L72.1536 475.497Z" fill="#FFCF80"/>
<path d="M68.7841 473.598L63.0009 464.564L61.3332 465.631L67.1165 474.665L68.7841 473.598Z" fill="#FFCF80"/>
<path d="M64.6348 463.765L62.6864 460.722L60.98 461.814L62.9284 464.857L64.6348 463.765Z" fill="#FFCF80"/>
<path d="M63.9571 459.908L63.1008 458.57L61.821 459.389L62.6773 460.726L63.9571 459.908Z" fill="#FFCF80"/>
<path d="M64.5322 457.668L63.4277 455.942L62.0122 456.848L63.1167 458.573L64.5322 457.668Z" fill="#FFCF80"/>
<path d="M66.4047 454.32L65.3746 452.711L62.5242 454.535L63.5543 456.144L66.4047 454.32Z" fill="#FFCF80"/>
<path d="M74.5855 446.851L73.6672 445.416L64.3014 451.409L65.2198 452.844L74.5855 446.851Z" fill="#FFCF80"/>
<path d="M78.33 446.391L77.4488 445.014L74.5984 446.838L75.4795 448.215L78.33 446.391Z" fill="#FFCF80"/>
<path d="M81.0197 447.152L79.8035 445.252L77.9031 446.468L79.1194 448.368L81.0197 447.152Z" fill="#FFCF80"/>
<path d="M83.3392 447.761L82.3712 446.249L80.8587 447.217L81.8268 448.729L83.3392 447.761Z" fill="#FFCF80"/>
<path d="M94.1772 457.347L88.394 448.313L86.4549 449.554L92.2382 458.587L94.1772 457.347Z" fill="#FFCF80"/>
<path d="M94.1645 461.606L92.2409 458.601L90.8447 459.494L92.7684 462.499L94.1645 461.606Z" fill="#FFCF80"/>
<path d="M86.9419 449.94L84.9066 446.76L83.3359 447.765L85.3712 450.945L86.9419 449.94Z" fill="#FFCF80"/>
<path d="M93.7318 463.989L92.7762 462.496L91.3994 463.377L92.355 464.869L93.7318 463.989Z" fill="#FFCF80"/>
<path d="M93.1428 466.083L92.2368 464.668L90.8213 465.574L91.7273 466.989L93.1428 466.083Z" fill="#FFCF80"/>
<path d="M92.8687 468.799L91.7146 466.996L88.709 468.919L89.8631 470.722L92.8687 468.799Z" fill="#FFCF80"/>
<path d="M90.7574 472.096L89.6529 470.37L80.4422 476.264L81.5468 477.989L90.7574 472.096Z" fill="#FFCF80"/>
<path d="M80.5913 476.499L79.6109 474.968L76.9155 476.693L77.896 478.224L80.5913 476.499Z" fill="#FFCF80"/>
<path d="M76.6776 476.64L75.7716 475.225L74.3561 476.131L75.262 477.546L76.6776 476.64Z" fill="#FFCF80"/>
<path d="M74.3476 476.132L73.5161 474.833L72.2169 475.664L73.0484 476.963L74.3476 476.132Z" fill="#FFCF80"/>
<path d="M72.1536 475.497L70.3168 472.628L68.8043 473.596L70.6411 476.465L72.1536 475.497Z" fill="#FFCF80"/>
<path d="M68.7841 473.598L63.0009 464.564L61.3332 465.631L67.1165 474.665L68.7841 473.598Z" fill="#FFCF80"/>
<path d="M64.6348 463.765L62.6864 460.722L60.98 461.814L62.9284 464.857L64.6348 463.765Z" fill="#FFCF80"/>
<path d="M63.9571 459.908L63.1008 458.57L61.821 459.389L62.6773 460.726L63.9571 459.908Z" fill="#FFCF80"/>
<path d="M64.5322 457.668L63.4277 455.942L62.0122 456.848L63.1167 458.573L64.5322 457.668Z" fill="#FFCF80"/>
<path d="M66.4047 454.32L65.3746 452.711L62.5242 454.535L63.5543 456.144L66.4047 454.32Z" fill="#FFCF80"/>
<path d="M74.5855 446.851L73.6672 445.416L64.3014 451.409L65.2198 452.844L74.5855 446.851Z" fill="#FFCF80"/>
<path d="M78.33 446.391L77.4488 445.014L74.5984 446.838L75.4795 448.215L78.33 446.391Z" fill="#FFCF80"/>
<path d="M81.0197 447.152L79.8035 445.252L77.9031 446.468L79.1194 448.368L81.0197 447.152Z" fill="#FFCF80"/>
<path d="M83.3392 447.761L82.3712 446.249L80.8587 447.217L81.8268 448.729L83.3392 447.761Z" fill="#FFCF80"/>
<path d="M68.1495 485.039L64.5132 479.359L63.2916 480.141L66.9279 485.821L68.1495 485.039Z" fill="#FFCF80"/>
<path d="M68.1351 487.707L66.9189 485.807L66.0463 486.365L67.2626 488.265L68.1351 487.707Z" fill="#FFCF80"/>
<path d="M63.5947 480.348L62.3164 478.351L61.3274 478.984L62.6057 480.981L63.5947 480.348Z" fill="#FFCF80"/>
<path d="M67.8627 489.202L67.267 488.272L66.3944 488.83L66.9901 489.761L67.8627 489.202Z" fill="#FFCF80"/>
<path d="M67.494 490.536L66.9231 489.644L66.0312 490.215L66.602 491.107L67.494 490.536Z" fill="#FFCF80"/>
<path d="M67.3199 492.216L66.6001 491.092L64.7192 492.295L65.439 493.42L67.3199 492.216Z" fill="#FFCF80"/>
<path d="M66.0043 494.271L65.3093 493.185L59.5308 496.883L60.2258 497.968L66.0043 494.271Z" fill="#FFCF80"/>
<path d="M59.6098 497.068L58.9892 496.099L57.3022 497.178L57.9228 498.147L59.6098 497.068Z" fill="#FFCF80"/>
<path d="M57.1305 497.147L56.5596 496.255L55.6677 496.826L56.2385 497.718L57.1305 497.147Z" fill="#FFCF80"/>
<path d="M55.6835 496.813L55.1622 495.999L54.3478 496.52L54.8691 497.334L55.6835 496.813Z" fill="#FFCF80"/>
<path d="M54.2873 496.445L53.1331 494.642L52.183 495.25L53.3372 497.053L54.2873 496.445Z" fill="#FFCF80"/>
<path d="M52.1775 495.229L48.5412 489.549L47.4941 490.219L51.1304 495.899L52.1775 495.229Z" fill="#FFCF80"/>
<path d="M49.5836 489.064L48.355 487.144L47.2885 487.827L48.5171 489.746L49.5836 489.064Z" fill="#FFCF80"/>
<path d="M49.1706 486.655L48.6246 485.802L47.8102 486.323L48.3562 487.176L49.1706 486.655Z" fill="#FFCF80"/>
<path d="M49.4819 485.217L48.7869 484.131L47.8949 484.702L48.5899 485.788L49.4819 485.217Z" fill="#FFCF80"/>
<path d="M50.6776 483.127L50.0322 482.119L48.2483 483.261L48.8936 484.269L50.6776 483.127Z" fill="#FFCF80"/>
<path d="M55.8457 478.409L55.2624 477.498L49.3676 481.27L49.9509 482.181L55.8457 478.409Z" fill="#FFCF80"/>
<path d="M58.1805 478.145L57.6221 477.273L55.8187 478.426L56.3772 479.299L58.1805 478.145Z" fill="#FFCF80"/>
<path d="M59.8572 478.608L59.1002 477.426L57.9173 478.182L58.6744 479.365L59.8572 478.608Z" fill="#FFCF80"/>
<path d="M61.3514 478.985L60.7433 478.035L59.7932 478.643L60.4013 479.593L61.3514 478.985Z" fill="#FFCF80"/>
<path d="M68.1495 485.039L64.5132 479.359L63.2916 480.141L66.9279 485.821L68.1495 485.039Z" fill="#FFCF80"/>
<path d="M68.1351 487.707L66.9189 485.807L66.0463 486.365L67.2626 488.265L68.1351 487.707Z" fill="#FFCF80"/>
<path d="M63.5947 480.348L62.3164 478.351L61.3274 478.984L62.6057 480.981L63.5947 480.348Z" fill="#FFCF80"/>
<path d="M67.8627 489.202L67.267 488.272L66.3944 488.83L66.9901 489.761L67.8627 489.202Z" fill="#FFCF80"/>
<path d="M67.494 490.536L66.9231 489.644L66.0312 490.215L66.602 491.107L67.494 490.536Z" fill="#FFCF80"/>
<path d="M67.3199 492.216L66.6001 491.092L64.7192 492.295L65.439 493.42L67.3199 492.216Z" fill="#FFCF80"/>
<path d="M66.0043 494.271L65.3093 493.185L59.5308 496.883L60.2258 497.968L66.0043 494.271Z" fill="#FFCF80"/>
<path d="M59.6098 497.068L58.9892 496.099L57.3022 497.178L57.9228 498.147L59.6098 497.068Z" fill="#FFCF80"/>
<path d="M57.1305 497.147L56.5596 496.255L55.6677 496.826L56.2385 497.718L57.1305 497.147Z" fill="#FFCF80"/>
<path d="M55.6835 496.813L55.1622 495.999L54.3478 496.52L54.8691 497.334L55.6835 496.813Z" fill="#FFCF80"/>
<path d="M54.2873 496.445L53.1331 494.642L52.183 495.25L53.3372 497.053L54.2873 496.445Z" fill="#FFCF80"/>
<path d="M52.1775 495.229L48.5412 489.549L47.4941 490.219L51.1304 495.899L52.1775 495.229Z" fill="#FFCF80"/>
<path d="M49.5836 489.064L48.355 487.144L47.2885 487.827L48.5171 489.746L49.5836 489.064Z" fill="#FFCF80"/>
<path d="M49.1706 486.655L48.6246 485.802L47.8102 486.323L48.3562 487.176L49.1706 486.655Z" fill="#FFCF80"/>
<path d="M49.4819 485.217L48.7869 484.131L47.8949 484.702L48.5899 485.788L49.4819 485.217Z" fill="#FFCF80"/>
<path d="M50.6776 483.127L50.0322 482.119L48.2483 483.261L48.8936 484.269L50.6776 483.127Z" fill="#FFCF80"/>
<path d="M55.8457 478.409L55.2624 477.498L49.3676 481.27L49.9509 482.181L55.8457 478.409Z" fill="#FFCF80"/>
<path d="M58.1805 478.145L57.6221 477.273L55.8187 478.426L56.3772 479.299L58.1805 478.145Z" fill="#FFCF80"/>
<path d="M59.8572 478.608L59.1002 477.426L57.9173 478.182L58.6744 479.365L59.8572 478.608Z" fill="#FFCF80"/>
<path d="M61.3514 478.985L60.7433 478.035L59.7932 478.643L60.4013 479.593L61.3514 478.985Z" fill="#FFCF80"/>
<path d="M854.101 278.343H273.434V283.82H854.101V278.343Z" fill="#FFCF80"/>
<path d="M854.101 245.015H273.434V250.493H854.101V245.015Z" fill="#FFCF80"/>
<path d="M268.139 252.864H262.407V276.501H268.139V252.864Z" fill="#FFCF80"/>
<path d="M268.139 297.722H262.407V321.36H268.139V297.722Z" fill="#FFCF80"/>
<path d="M273.434 292.774H267.379V298.827H273.434V292.774Z" fill="#FFCF80"/>
<path d="M274.194 247.478H268.139V253.531H274.194V247.478Z" fill="#FFCF80"/>
<path d="M273.434 320.255H267.379V326.308H273.434V320.255Z" fill="#FFCF80"/>
<path d="M274.194 275.304H268.139V281.358H274.194V275.304Z" fill="#FFCF80"/>
<path d="M860.456 275.212H854.078V281.588H860.456V275.212Z" fill="#FFCF80"/>
<path d="M860.456 247.317H854.078V253.692H860.456V247.317Z" fill="#FFCF80"/>
<path d="M475.547 290.38H273.434V295.789H475.547V290.38Z" fill="#FFCF80"/>
<path d="M475.547 323.27H273.434V328.679H475.547V323.27Z" fill="#FFCF80"/>
<path d="M486.551 297.561H480.819V321.199H486.551V297.561Z" fill="#FFCF80"/>
<path d="M481.141 292.452H475.086V298.505H481.141V292.452Z" fill="#FFCF80"/>
<path d="M481.463 319.841H475.086V326.216H481.463V319.841Z" fill="#FFCF80"/>
<path d="M123.185 258.037H125.865V271.477H123.185V274.117H115.185V279.477H109.745V255.357H123.185V258.037ZM115.185 258.117V271.357H120.425V258.117H115.185ZM147.193 268.677V271.477H144.513V274.117H133.753V271.477H131.073V258.037H133.753V255.357H144.513V258.037H147.193V263.477H144.513V266.117H136.513V271.357H144.433V268.677H147.193ZM136.513 258.117V263.357H141.753V258.117H136.513ZM157.841 258.037H160.401V255.357H163.201V260.797H157.841V274.117H152.401V255.357H157.841V258.037Z" fill="#FFCF80"/>
<path d="M133.865 289.881V292.561H136.545V308.641H131.105V292.641H128.545V295.321H125.865V308.641H120.425V292.641H117.865V295.321H115.185V308.641H109.745V289.881H115.185V292.561H117.745V289.881H123.185V292.561H128.425V289.881H133.865ZM141.737 297.881H144.417V295.201H152.417V292.641H144.417V289.881H155.177V292.561H157.857V308.641H144.417V306.001H141.737V297.881ZM147.177 298.001V305.881H152.417V298.001H147.177ZM163.065 297.881H165.745V295.201H173.745V292.641H165.745V289.881H176.505V292.561H179.185V308.641H165.745V306.001H163.065V297.881ZM168.505 298.001V305.881H173.745V298.001H168.505ZM197.833 289.881V292.561H200.513V308.641H195.073V292.641H192.513V295.321H189.833V308.641H184.393V289.881H189.833V292.561H192.393V289.881H197.833ZM205.721 292.561H208.401V289.881H216.401V281.881H221.841V308.641H208.401V306.001H205.721V292.561ZM211.161 292.641V305.881H216.401V292.641H211.161Z" fill="#FFCF80"/>
<path d="M125.418 442.581H128.098V456.021H125.418V458.661H117.418V464.021H111.978V439.901H125.418V442.581ZM117.418 442.661V455.901H122.658V442.661H117.418ZM149.426 453.221V456.021H146.746V458.661H135.986V456.021H133.306V442.581H135.986V439.901H146.746V442.581H149.426V448.021H146.746V450.661H138.746V455.901H146.666V453.221H149.426ZM138.746 442.661V447.901H143.986V442.661H138.746ZM160.074 442.581H162.634V439.901H165.434V445.341H160.074V458.661H154.634V439.901H160.074V442.581Z" fill="#FFCF80"/>
<path d="M136.098 474.425V477.105H138.778V493.185H133.338V477.185H130.778V479.865H128.098V493.185H122.658V477.185H120.098V479.865H117.418V493.185H111.978V474.425H117.418V477.105H119.978V474.425H125.418V477.105H130.658V474.425H136.098ZM143.97 482.425H146.65V479.745H154.65V477.185H146.65V474.425H157.41V477.105H160.09V493.185H146.65V490.545H143.97V482.425ZM149.41 482.545V490.425H154.65V482.545H149.41ZM165.298 482.425H167.978V479.745H175.978V477.185H167.978V474.425H178.738V477.105H181.418V493.185H167.978V490.545H165.298V482.425ZM170.738 482.545V490.425H175.978V482.545H170.738ZM200.066 474.425V477.105H202.746V493.185H197.306V477.185H194.746V479.865H192.066V493.185H186.626V474.425H192.066V477.105H194.626V474.425H200.066ZM207.954 477.105H210.634V474.425H218.634V466.425H224.074V493.185H210.634V490.545H207.954V477.105ZM213.394 477.185V490.425H218.634V477.185H213.394Z" fill="#FFCF80"/>
<path d="M124.414 633.553V636.353H121.734V638.993H110.974V636.353H108.294V622.913H110.974V620.233H121.734V622.913H124.414V628.353H121.734V630.993H113.734V636.233H121.654V633.553H124.414ZM113.734 622.993V628.233H118.974V622.993H113.734ZM143.062 620.233V622.913H145.742V638.993H140.302V622.993H137.742V625.673H135.062V638.993H129.622V620.233H135.062V622.913H137.622V620.233H143.062ZM167.07 620.233V622.993H164.39V625.673H161.75V630.913H164.39V633.553H167.07V638.993H161.63V633.673H158.95V630.993H156.39V638.993H150.95V612.233H156.39V628.233H158.95V625.553H161.63V622.913H164.31V620.233H167.07ZM188.399 633.553V636.353H185.719V638.993H174.959V636.353H172.279V622.913H174.959V620.233H185.719V622.913H188.399V628.353H185.719V630.993H177.719V636.233H185.639V633.553H188.399ZM177.719 622.993V628.233H182.959V622.993H177.719ZM199.047 638.993H193.607V612.233H199.047V638.993ZM220.391 633.553V636.353H217.711V638.993H206.951V636.353H204.271V622.913H206.951V620.233H217.711V622.913H220.391V628.353H217.711V630.993H209.711V636.233H217.631V633.553H220.391ZM209.711 622.993V628.233H214.951V622.993H209.711Z" fill="#FFCF80"/>
<path d="M113.734 657.438H116.294V654.758H119.094V660.198H113.734V673.518H108.294V654.758H113.734V657.438ZM137.735 668.078V670.878H135.055V673.518H124.295V670.878H121.615V657.438H124.295V654.758H135.055V657.438H137.735V662.878H135.055V665.518H127.055V670.758H134.975V668.078H137.735ZM127.055 657.518V662.758H132.295V657.518H127.055ZM148.383 652.198H142.943V649.438H148.383V652.198ZM148.383 673.518H142.943V654.758H148.383V673.518ZM156.407 670.758H161.607V668.198H158.967V665.518H156.287V662.878H153.607V657.438H156.287V654.758H167.047V660.198H164.287V657.518H159.047V660.078H161.727V662.758H164.407V665.438H167.047V670.878H164.407V673.518H153.607V668.078H156.407V670.758Z" fill="#FFCF80"/>
<path d="M852.191 255.833H273.434V273.532H852.191V255.833Z" fill="#83AAC0"/>
<path d="M473.221 301.06H273.434V318H473.221V301.06Z" fill="#ABD47C"/>
<path d="M478.102 303.914H471.149V315.169H478.102V303.914Z" fill="#ABD47C"/>
<path d="M854.101 461.138H273.434V466.615H854.101V461.138Z" fill="#FFCF80"/>
<path d="M854.101 427.833H273.434V433.311H854.101V427.833Z" fill="#FFCF80"/>
<path d="M865.544 435.728H859.811V459.365H865.544V435.728Z" fill="#FFCF80"/>
<path d="M865.544 251.575H859.811V275.212H865.544V251.575Z" fill="#FFCF80"/>
<path d="M860.133 430.641H854.078V436.694H860.133V430.641Z" fill="#FFCF80"/>
<path d="M860.456 458.03H854.078V464.406H860.456V458.03Z" fill="#FFCF80"/>
<path d="M285.153 473.428H272.974V478.584H285.153V473.428Z" fill="#FFCF80"/>
<path d="M285.153 505.835H272.974V510.991H285.153V505.835Z" fill="#FFCF80"/>
<path d="M296.157 480.425H290.425V504.063H296.157V480.425Z" fill="#FFCF80"/>
<path d="M290.747 475.339H284.692V481.392H290.747V475.339Z" fill="#FFCF80"/>
<path d="M291.069 502.728H284.692V509.103H291.069V502.728Z" fill="#FFCF80"/>
<path d="M852.191 438.628H273.434V456.327H852.191V438.628Z" fill="#83AAC0"/>
<path d="M854.102 691.668H273.319V697.146H854.102V691.668Z" fill="#FFCF80"/>
<path d="M854.102 658.341H273.319V663.818H854.102V658.341Z" fill="#FFCF80"/>
<path d="M865.544 666.235H859.811V689.873H865.544V666.235Z" fill="#FFCF80"/>
<path d="M860.133 661.149H854.078V667.202H860.133V661.149Z" fill="#FFCF80"/>
<path d="M860.456 688.538H854.078V694.913H860.456V688.538Z" fill="#FFCF80"/>
<path d="M852.191 669.158H273.434V686.858H852.191V669.158Z" fill="#ABD47C"/>
<path d="M421.283 611.341H273.434V616.497H421.283V611.341Z" fill="#FFCF80"/>
<path d="M422.457 644.83H273.434V650.308H422.457V644.83Z" fill="#FFCF80"/>
<path d="M432.956 618.96H427.223V642.597H432.956V618.96Z" fill="#FFCF80"/>
<path d="M427.522 613.873H421.26V619.927H427.522V613.873Z" fill="#FFCF80"/>
<path d="M427.868 641.263H421.49V647.638H427.868V641.263Z" fill="#FFCF80"/>
<path d="M418.889 621.929H274.631V639.628H418.889V621.929Z" fill="#83AAC0"/>
<path d="M278.799 483.878H272.974V500.818H278.799V483.878Z" fill="#ABD47C"/>
<path d="M285.728 486.593H269.382V497.848H285.728V486.593Z" fill="#ABD47C"/>
<path d="M84.0763 625.381H80.9223V627.798H84.0763V625.381Z" fill="#FFCF80"/>
<path d="M53.0654 380.512H49.9113V382.928H53.0654V380.512Z" fill="#FFCF80"/>
<path d="M83.2936 672.196H79.0345V675.994H83.2936V672.196Z" fill="#FFCF80"/>
<path d="M38.216 672.196H33.9569V675.994H38.216V672.196Z" fill="#FFCF80"/>
<path d="M36.0749 625.634H32.5756V628.327H36.0749V625.634Z" fill="#FFCF80"/>
<path d="M82.5108 623.103H34.7627V625.98H82.5108V623.103Z" fill="#FFCF80"/>
<path d="M79.0345 674.544H37.4333V677.421H79.0345V674.544Z" fill="#FFCF80"/>
<path d="M69.1579 639.007H47.1717V641.309H69.1579V639.007Z" fill="#FFCF80"/>
<path d="M69.4572 636.935H67.3852V639.007H69.4572V636.935Z" fill="#FFCF80"/>
<path d="M68.4442 633.414H65.4974V636.936H68.4442V633.414Z" fill="#FFCF80"/>
<path d="M66.5334 631.181H63.9088V633.391H66.5334V631.181Z" fill="#FFCF80"/>
<path d="M64.9909 629.202H61.6066V631.181H64.9909V629.202Z" fill="#FFCF80"/>
<path d="M61.9059 628.65H54.4927V630.767H61.9059V628.65Z" fill="#FFCF80"/>
<path d="M54.4928 629.708H52.0063V631.711H54.4928V629.708Z" fill="#FFCF80"/>
<path d="M52.5589 631.181H50.3487V633.391H52.5589V631.181Z" fill="#FFCF80"/>
<path d="M51.4538 633.414H48.6681V635.716H51.4538V633.414Z" fill="#FFCF80"/>
<path d="M50.0264 635.255H47.1717V638.109H50.0264V635.255Z" fill="#FFCF80"/>
<path d="M49.4509 637.419H46.5961V639.49H49.4509V637.419Z" fill="#FFCF80"/>
<path d="M58.9821 637.419H56.5417V639.49H58.9821V637.419Z" fill="#FFCF80"/>
<path d="M57.2094 635.647H54.769V637.718H57.2094V635.647Z" fill="#FFCF80"/>
<path d="M55.7129 633.92H53.2726V635.992H55.7129V633.92Z" fill="#FFCF80"/>
<path d="M85.4108 627.614H81.9805V672.887H85.4108V627.614Z" fill="#FFCF80"/>
<path d="M35.4303 627H32V672.273H35.4303V627Z" fill="#FFCF80"/>
<path d="M857.279 258.595H271.155V271.346H857.279V258.595Z" fill="#83AAC0"/>
<path d="M267.656 435.935H261.923V459.572H267.656V435.935Z" fill="#FFCF80"/>
<path d="M267.656 480.793H261.923V504.431H267.656V480.793Z" fill="#FFCF80"/>
<path d="M272.974 475.845H266.919V481.898H272.974V475.845Z" fill="#FFCF80"/>
<path d="M272.974 503.326H266.919V509.38H272.974V503.326Z" fill="#FFCF80"/>
<path d="M273.711 458.399H267.656V464.452H273.711V458.399Z" fill="#FFCF80"/>
<path d="M273.434 430.296H267.379V436.349H273.434V430.296Z" fill="#FFCF80"/>
<path d="M856.127 440.791H270.695V454.417H856.127V440.791Z" fill="#83AAC0"/>
<path d="M856.427 672.45H269.751V683.704H856.427V672.45Z" fill="#ABD47C"/>
<path d="M268.001 621.054H262.269V644.692H268.001V621.054Z" fill="#FFCF80"/>
<path d="M268.001 665.913H262.269V689.551H268.001V665.913Z" fill="#FFCF80"/>
<path d="M273.319 660.964H267.264V667.018H273.319V660.964Z" fill="#FFCF80"/>
<path d="M273.319 688.446H267.264V694.499H273.319V688.446Z" fill="#FFCF80"/>
<path d="M274.079 643.518H268.024V649.571H274.079V643.518Z" fill="#FFCF80"/>
<path d="M273.78 615.415H267.725V621.469H273.78V615.415Z" fill="#FFCF80"/>
<path d="M281.63 624.369H272.237V637.994H281.63V624.369Z" fill="#83AAC0"/>
<path d="M421.26 624.369H411.867V637.994H421.26V624.369Z" fill="#83AAC0"/>
<path d="M278.868 303.568H269.475V315.468H278.868V303.568Z" fill="#ABD47C"/>
</g>
<defs>
<filter id="filter0_d_220_3909" x="9.02344" y="12.9529" width="1106.95" height="803.109" filterUnits="userSpaceOnUse" color-interpolation-filters="sRGB">
<feFlood flood-opacity="0" result="BackgroundImageFix"/>
<feColorMatrix in="SourceAlpha" type="matrix" values="0 0 0 0 0 0 0 0 0 0 0 0 0 0 0 0 0 0 127 0" result="hardAlpha"/>
<feOffset dy="4"/>
<feGaussianBlur stdDeviation="2"/>
<feComposite in2="hardAlpha" operator="out"/>
<feColorMatrix type="matrix" values="0 0 0 0 0 0 0 0 0 0 0 0 0 0 0 0 0 0 0.25 0"/>
<feBlend mode="normal" in2="BackgroundImageFix" result="effect1_dropShadow_220_3909"/>
<feBlend mode="normal" in="SourceGraphic" in2="effect1_dropShadow_220_3909" result="shape"/>
</filter>
<clipPath id="clip0_220_3909">
<rect width="1043" height="458" fill="white" transform="translate(32 242)"/>
</clipPath>
</defs>
</svg>
