<svg width="1687" height="619" viewBox="0 0 1687 619" fill="none" xmlns="http://www.w3.org/2000/svg">
<rect x="44.8984" y="48.8684" width="1596.38" height="521.263" fill="#D4E8AC"/>
<rect x="84.8047" width="1509.08" height="48.8684" fill="#0B7529"/>
<rect x="84.8047" y="570.132" width="1509.08" height="48.8684" fill="#0B7529"/>
<rect y="529.408" width="435.743" height="44.8982" transform="rotate(-90 0 529.408)" fill="#0B7529"/>
<rect x="1641.27" y="525.335" width="435.743" height="44.8982" transform="rotate(-90 1641.27 525.335)" fill="#0B7529"/>
<rect x="1593.89" y="525.335" width="47.3926" height="44.7961" fill="#52A469"/>
<rect x="1593.89" y="48.8684" width="47.3926" height="44.7961" fill="#52A469"/>
<rect x="44.8984" y="48.8684" width="47.3926" height="44.7961" fill="#52A469"/>
<rect x="44.8984" y="525.335" width="47.3926" height="44.7961" fill="#52A469"/>
<path d="M205.465 165.528V186.64H198.497V214.304H191.633V235.104H177.489V214.304H170.521V186.64H163.553V165.528H177.697V186.328H184.665V214.096H191.321V165.528H205.465ZM211.998 193.296H218.966V186.328H246.942V193.296H253.91V228.24H246.942V235.104H218.966V228.24H211.998V193.296ZM226.142 193.504V227.928H239.766V193.504H226.142ZM267.451 193.296H274.419V186.328H302.395V193.296H309.363V228.24H302.395V235.104H274.419V228.24H267.451V193.296ZM281.595 193.504V227.928H295.219V193.504H281.595ZM337.049 193.296H343.705V186.328H350.985V200.472H337.049V235.104H322.905V186.328H337.049V193.296ZM378.358 193.296H385.326V186.328H406.126V165.528H420.27V235.104H385.326V228.24H378.358V193.296ZM392.502 193.504V227.928H406.126V193.504H392.502ZM475.723 220.96V228.24H468.755V235.104H440.779V228.24H433.811V193.296H440.779V186.328H468.755V193.296H475.723V207.44H468.755V214.304H447.955V227.928H468.547V220.96H475.723ZM447.955 193.504V207.128H461.579V193.504H447.955ZM524.228 186.328H545.028V193.296H551.996V228.24H545.028V235.104H510.084V165.528H524.228V186.328ZM524.228 193.504V227.928H537.852V193.504H524.228ZM607.449 220.96V228.24H600.481V235.104H572.505V228.24H565.537V193.296H572.505V186.328H600.481V193.296H607.449V207.44H600.481V214.304H579.681V227.928H600.273V220.96H607.449ZM579.681 193.504V207.128H593.305V193.504H579.681ZM628.27 227.928H641.79V221.272H634.926V214.304H627.958V207.44H620.99V193.296H627.958V186.328H655.934V200.472H648.758V193.504H635.134V200.16H642.102V207.128H649.07V214.096H655.934V228.24H649.07V235.104H620.99V220.96H628.27V227.928ZM662.673 186.328H669.537V172.496H683.681V186.328H690.649V193.504H683.681V235.104H669.537V193.504H662.673V186.328ZM739.176 220.96V228.24H732.208V235.104H704.232V228.24H697.264V193.296H704.232V186.328H732.208V193.296H739.176V207.44H732.208V214.304H711.408V227.928H732V220.96H739.176ZM711.408 193.504V207.128H725.032V193.504H711.408ZM815.449 220.96V228.24H808.481V235.104H780.505V228.24H773.537V193.296H780.505V186.328H808.481V193.296H815.449V207.44H808.481V214.304H787.681V227.928H808.273V220.96H815.449ZM787.681 193.504V207.128H801.305V193.504H787.681ZM843.134 193.296H849.79V186.328H857.07V200.472H843.134V235.104H828.99V186.328H843.134V193.296ZM905.535 186.328V207.44H898.567V221.272H891.703V235.104H877.559V221.272H870.591V207.44H863.623V186.328H877.767V207.128H884.735V220.96H891.391V186.328H905.535ZM919.076 207.128H926.044V200.16H946.844V193.504H926.044V186.328H954.02V193.296H960.988V235.104H926.044V228.24H919.076V207.128ZM933.22 207.44V227.928H946.844V207.44H933.22ZM988.674 193.296H995.33V186.328H1002.61V200.472H988.674V235.104H974.53V186.328H988.674V193.296ZM1023.31 179.672H1009.16V172.496H1023.31V179.672ZM1023.31 235.104H1009.16V186.328H1023.31V235.104ZM1071.83 186.328V193.296H1078.8V235.104H1064.66V193.504H1058V200.472H1051.03V235.104H1036.89V186.328H1051.03V193.296H1057.69V186.328H1071.83ZM1120.11 235.104H1099.31V228.24H1092.34V193.296H1099.31V186.328H1141.22V193.504H1134.25V242.072H1127.29V249.04H1099.31V241.76H1120.11V235.104ZM1106.49 193.504V227.928H1120.11V193.504H1106.49ZM1147.8 235.104V220.96H1161.94V242.072H1155.08V249.04H1147.8V241.76H1154.76V235.104H1147.8ZM1224.11 235.104H1203.31V228.24H1196.34V193.296H1203.31V186.328H1245.22V193.504H1238.25V242.072H1231.29V249.04H1203.31V241.76H1224.11V235.104ZM1210.49 193.504V227.928H1224.11V193.504H1210.49ZM1293.71 220.96V228.24H1286.74V235.104H1258.76V228.24H1251.8V193.296H1258.76V186.328H1286.74V193.296H1293.71V207.44H1286.74V214.304H1265.94V227.928H1286.53V220.96H1293.71ZM1265.94 193.504V207.128H1279.56V193.504H1265.94ZM1321.39 186.328H1342.19V193.296H1349.16V228.24H1342.19V235.104H1307.25V165.528H1321.39V186.328ZM1321.39 193.504V227.928H1335.02V193.504H1321.39ZM1376.85 193.296H1383.5V186.328H1390.78V200.472H1376.85V235.104H1362.7V186.328H1376.85V193.296ZM1397.33 186.328H1411.48V227.928H1425.1V186.328H1439.25V228.24H1432.28V235.104H1404.3V228.24H1397.33V186.328ZM1466.93 179.672H1452.79V172.496H1466.93V179.672ZM1466.93 235.104H1452.79V186.328H1466.93V235.104ZM1522.43 186.328V193.504H1515.46V200.472H1508.59V214.096H1515.46V220.96H1522.43V235.104H1508.28V221.272H1501.31V214.304H1494.66V235.104H1480.51V165.528H1494.66V207.128H1501.31V200.16H1508.28V193.296H1515.25V186.328H1522.43ZM309.313 331.96V339.24H302.345V346.104H274.369V339.24H267.401V304.296H274.369V297.328H302.345V304.296H309.313V318.44H302.345V325.304H281.545V338.928H302.137V331.96H309.313ZM281.545 304.504V318.128H295.169V304.504H281.545ZM364.766 331.96V339.24H357.798V346.104H329.822V339.24H322.854V304.296H329.822V297.328H357.798V304.296H364.766V318.44H357.798V325.304H336.998V338.928H357.59V331.96H364.766ZM336.998 304.504V318.128H350.622V304.504H336.998ZM413.251 297.328V304.296H420.219V346.104H406.075V304.504H399.419V311.472H392.451V346.104H378.307V297.328H392.451V304.296H399.107V297.328H413.251ZM461.86 338.928H475.38V332.272H468.516V325.304H461.548V318.44H454.58V304.296H461.548V297.328H489.524V311.472H482.348V304.504H468.724V311.16H475.692V318.128H482.66V325.096H489.524V339.24H482.66V346.104H454.58V331.96H461.86V338.928ZM510.095 346.104V339.24H503.127V304.296H510.095V297.328H538.071V311.472H530.895V304.504H517.271V338.928H530.895V331.96H538.071V339.24H531.207V346.104H510.095ZM565.818 311.472V346.104H551.674V276.528H565.818V304.296H572.474V297.328H586.618V304.296H593.586V346.104H579.442V304.504H572.786V311.472H565.818ZM649.039 331.96V339.24H642.071V346.104H614.095V339.24H607.127V304.296H614.095V297.328H642.071V304.296H649.039V318.44H642.071V325.304H621.271V338.928H641.863V331.96H649.039ZM621.271 304.504V318.128H634.895V304.504H621.271ZM676.724 304.296H683.38V297.328H690.66V311.472H676.724V346.104H662.58V297.328H676.724V304.296ZM759.925 297.328V304.296H766.893V346.104H752.749V304.504H746.093V311.472H739.125V346.104H724.981V304.504H718.325V311.472H711.357V346.104H697.213V297.328H711.357V304.296H718.013V297.328H732.157V304.296H745.781V297.328H759.925ZM843.125 297.328V318.44H836.157V332.272H829.293V346.104H815.149V332.272H808.181V318.44H801.213V297.328H815.357V318.128H822.325V331.96H828.981V297.328H843.125ZM856.666 318.128H863.634V311.16H884.434V304.504H863.634V297.328H891.61V304.296H898.578V346.104H863.634V339.24H856.666V318.128ZM870.81 318.44V338.928H884.434V318.44H870.81ZM947.063 297.328V304.296H954.031V346.104H939.887V304.504H933.231V311.472H926.263V346.104H912.119V297.328H926.263V304.296H932.919V297.328H947.063ZM988.393 283.496H995.361V276.528H1009.5V346.104H995.361V290.672H988.393V283.496ZM1050.83 331.96H1057.8V318.44H1037V311.472H1030.03V283.496H1037V276.528H1064.98V283.496H1071.95V332.272H1064.98V339.24H1058.11V346.104H1037V338.928H1050.83V331.96ZM1044.18 283.704V311.16H1057.8V283.704H1044.18ZM1085.49 297.64V283.496H1092.45V276.528H1113.57V283.496H1120.43V311.472H1113.57V318.44H1106.6V325.304H1099.63V338.928H1106.49H1120.43V346.104H1085.49V325.096H1092.45V318.128H1099.42V311.16H1106.29V283.704H1092.77V297.64H1085.49ZM1134.03 283.496H1141V276.528H1168.98V283.496H1175.95V339.24H1168.98V346.104H1141V339.24H1134.03V283.496ZM1148.18 283.704V338.928H1161.8V283.704H1148.18ZM1224.43 304.296H1231.4V339.24H1224.43V346.104H1203.63V360.04H1189.49V297.328H1224.43V304.296ZM1203.63 304.504V338.928H1217.25V304.504H1203.63ZM1251.91 325.096H1258.88V318.44H1251.91V311.472H1244.94V297.328H1259.08V311.16H1272.71V297.328H1286.85V311.472H1279.88V318.44H1273.02V325.096H1279.88V331.96H1286.85V346.104H1272.71V332.272H1259.08V346.104H1244.94V331.96H1251.91V325.096ZM1335.36 297.328H1356.16V304.296H1363.13V339.24H1356.16V346.104H1321.21V276.528H1335.36V297.328ZM1335.36 304.504V338.928H1348.98V304.504H1335.36ZM1390.81 290.672H1376.67V283.496H1390.81V290.672ZM1390.81 346.104H1376.67V297.328H1390.81V346.104ZM1418.54 290.672H1404.39V283.496H1418.54V290.672ZM1404.39 346.728V297.328H1418.54V353.072H1411.67V360.04H1397.53V352.76H1404.39V346.728ZM489.264 394.496H496.232V387.528H510.376V457.104H496.232V401.672H489.264V394.496ZM530.905 394.496H537.873V387.528H565.849V394.496H572.817V450.24H565.849V457.104H537.873V450.24H530.905V394.496ZM545.049 394.704V449.928H558.673V394.704H545.049ZM586.358 422.16H593.326V415.504H586.358V394.496H593.326V387.528H621.302V394.496H628.27V415.504H621.302V422.16H628.27V450.24H621.302V457.104H593.326V450.24H586.358V422.16ZM600.502 394.704V415.296H614.126V394.704H600.502ZM600.502 422.472V449.928H614.126V422.472H600.502ZM641.811 394.496H648.779V387.528H676.755V394.496H683.723V450.24H676.755V457.104H648.779V450.24H641.811V394.496ZM655.955 394.704V449.928H669.579V394.704H655.955ZM732.208 415.296H739.176V450.24H732.208V457.104H711.408V471.04H697.264V408.328H732.208V415.296ZM711.408 415.504V449.928H725.032V415.504H711.408ZM759.685 436.096H766.653V429.44H759.685V422.472H752.717V408.328H766.861V422.16H780.485V408.328H794.629V422.472H787.661V429.44H780.797V436.096H787.661V442.96H794.629V457.104H780.485V443.272H766.861V457.104H752.717V442.96H759.685V436.096ZM808.17 457.104V442.96H822.314V464.072H815.45V471.04H808.17V463.76H815.138V457.104H808.17ZM856.717 429.128H863.685V422.16H884.485V415.504H863.685V408.328H891.661V415.296H898.629V457.104H863.685V450.24H856.717V429.128ZM870.861 429.44V449.928H884.485V429.44H870.861ZM926.314 457.104H912.17V442.96H926.314V457.104ZM939.897 408.328H954.041V449.928H967.665V408.328H981.809V450.24H974.841V457.104H946.865V450.24H939.897V408.328ZM1009.49 457.104H995.35V442.96H1009.49V457.104ZM1037.22 408.328H1058.02V415.296H1064.99V450.24H1058.02V457.104H1023.08V387.528H1037.22V408.328ZM1037.22 415.504V449.928H1050.84V415.504H1037.22ZM1092.67 457.104H1078.53V442.96H1092.67V457.104ZM1141.22 429.44H1127.08V415.296H1141.22V429.44ZM1141.22 457.104H1127.08V442.96H1141.22V457.104ZM1189.77 457.104V464.072H1182.9V471.04H1168.76V463.76H1175.62V456.896H1182.59V394.704H1175.62V387.84H1168.76V380.56H1182.9V387.528H1189.77V394.496H1196.74V457.104H1189.77Z" fill="#00402C"/>
</svg>
