<svg width="579" height="372" viewBox="0 0 579 372" fill="none" xmlns="http://www.w3.org/2000/svg">
<rect width="579" height="372" fill="#F26F91"/>
<rect width="568" height="359" fill="#FBD4E0"/>
<rect x="11" y="8" width="557" height="351" fill="#FFA7C1"/>
<rect x="24" y="18" width="530" height="94" fill="#FF93B3"/>
<rect x="484" y="36" width="53" height="59" fill="#FBD4E0"/>
<rect x="488" y="41" width="49" height="54" fill="#F26F91"/>
<rect width="42" height="48" transform="translate(488 41)" fill="#FFA7C1"/>
<rect x="494" y="50" width="11" height="10" fill="#F26F91"/>
<rect x="504" y="60" width="11" height="10" fill="#F26F91"/>
<rect x="494" y="70" width="11" height="10" fill="#F26F91"/>
<rect x="514" y="50" width="11" height="10" fill="#F26F91"/>
<rect x="514" y="70" width="11" height="10" fill="#F26F91"/>
<path d="M111.274 158.95H114.624V155.6H121.424V189.05H114.624V162.4H111.274V158.95ZM131.294 158.95H134.644V155.6H148.094V158.95H151.444V185.75H148.094V189.05H134.644V185.75H131.294V158.95ZM138.094 159.05V185.6H144.644V159.05H138.094ZM188.114 165.6V169.05H184.764V172.4H181.464V178.95H184.764V182.25H188.114V189.05H181.314V182.4H177.964V179.05H174.764V189.05H167.964V155.6H174.764V175.6H177.964V172.25H181.314V168.95H184.664V165.6H188.114ZM224.774 165.6V168.95H228.124V189.05H221.324V169.05H218.124V172.4H214.774V189.05H207.974V169.05H204.774V172.4H201.424V189.05H194.624V165.6H201.424V168.95H204.624V165.6H211.424V168.95H217.974V165.6H224.774ZM261.424 165.6V168.95H264.774V189.05H257.974V169.05H254.774V172.4H251.424V189.05H244.624V165.6H251.424V168.95H254.624V165.6H261.424ZM271.284 175.6H274.634V172.25H284.634V169.05H274.634V165.6H288.084V168.95H291.434V189.05H274.634V185.75H271.284V175.6ZM278.084 175.75V185.6H284.634V175.75H278.084ZM297.944 175.6H301.294V172.25H311.294V169.05H301.294V165.6H314.744V168.95H318.094V189.05H301.294V185.75H297.944V175.6ZM304.744 175.75V185.6H311.294V175.75H304.744ZM331.404 168.95H334.604V165.6H338.104V172.4H331.404V189.05H324.604V165.6H331.404V168.95ZM384.765 165.6V175.75H381.415V182.4H378.065V189.05H371.265V182.4H364.765V189.05H357.965V182.4H354.615V175.75H351.265V165.6H358.065V175.6H361.415V182.25H364.615V178.95H367.965V175.75H364.615V165.6H371.415V175.6H374.765V182.25H377.965V165.6H384.765ZM411.405 182.25V185.75H408.055V189.05H394.605V185.75H391.255V168.95H394.605V165.6H408.055V168.95H411.405V175.75H408.055V179.05H398.055V185.6H407.955V182.25H411.405ZM398.055 169.05V175.6H404.605V169.05H398.055ZM424.715 168.95H427.915V165.6H431.415V172.4H424.715V189.05H417.915V165.6H424.715V168.95ZM454.715 165.6V169.05H451.365V172.4H448.065V178.95H451.365V182.25H454.715V189.05H447.915V182.4H444.565V179.05H441.365V189.05H434.565V155.6H441.365V175.6H444.565V172.25H447.915V168.95H451.265V165.6H454.715ZM133.075 218.6V221.95H136.425V242.05H129.625V222.05H126.425V225.4H123.075V242.05H116.275V222.05H113.075V225.4H109.725V242.05H102.925V218.6H109.725V221.95H112.925V218.6H119.725V221.95H126.275V218.6H133.075ZM163.065 235.25V238.75H159.715V242.05H146.265V238.75H142.915V221.95H146.265V218.6H159.715V221.95H163.065V228.75H159.715V232.05H149.715V238.6H159.615V235.25H163.065ZM149.715 222.05V228.6H156.265V222.05H149.715ZM166.275 218.6H169.575V211.95H176.375V218.6H179.725V222.05H176.375V242.05H169.575V222.05H166.275V218.6ZM199.715 215.4H192.915V211.95H199.715V215.4ZM192.915 242.35V218.6H199.715V245.4H196.415V248.75H189.615V245.25H192.915V242.35ZM226.395 235.25V238.75H223.045V242.05H209.595V238.75H206.245V221.95H209.595V218.6H223.045V221.95H226.395V228.75H223.045V232.05H213.045V238.6H222.945V235.25H226.395ZM213.045 222.05V228.6H219.595V222.05H213.045ZM352.925 221.95H356.275V218.6H369.725V221.95H373.075V238.75H369.725V242.05H356.275V238.75H352.925V221.95ZM359.725 222.05V238.6H366.275V222.05H359.725ZM376.285 218.6H379.585V211.95H382.935V208.6H393.085V212.05H386.385V218.6H393.085V222.05H386.385V242.05H379.585V222.05H376.285V218.6ZM406.245 221.95H409.595V218.6H419.595V208.6H426.395V242.05H409.595V238.75H406.245V221.95ZM413.045 222.05V238.6H419.595V222.05H413.045ZM453.055 235.25V238.75H449.705V242.05H436.255V238.75H432.905V221.95H436.255V218.6H449.705V221.95H453.055V228.75H449.705V232.05H439.705V238.6H449.605V235.25H453.055ZM439.705 222.05V228.6H446.255V222.05H439.705Z" fill="#944B5E"/>
<path d="M246.265 218.6H249.615V208.6H256.415V218.6H259.715V228.6H263.065V242.05H256.265V232.05H246.415V242.05H242.915V228.6H246.265V218.6ZM249.715 218.75V228.6H252.915V218.75H249.715ZM269.575 208.6H276.375V238.6H282.925V208.6H289.725V238.75H286.375V242.05H272.925V238.75H269.575V208.6ZM292.935 208.6H313.035V212.05H306.385V242.05H299.585V212.05H292.935V208.6ZM316.255 211.95H319.605V208.6H333.055V211.95H336.405V238.75H333.055V242.05H319.605V238.75H316.255V211.95ZM323.055 212.05V238.6H329.605V212.05H323.055Z" fill="#438FBA"/>
<path d="M241.38 265.05H231.38V274.95H238.08V278.4H231.38V291.6H241.38V295.05H224.58V261.6H241.38V265.05ZM254.75 281.75H244.6V278.25H254.75V281.75ZM278.05 264.95H281.4V275.05H278.05V278.25H281.4V291.75H278.05V295.05H261.25V261.6H278.05V264.95ZM268.05 265.05V274.95H274.6V265.05H268.05ZM268.05 278.4V291.6H274.6V278.4H268.05ZM294.71 295.05H287.91V261.6H294.71V295.05ZM321.39 261.6V268.4H318.04V275.05H314.74V281.6H318.04V288.25H321.39V295.05H314.59V288.4H311.24V281.75H308.04V295.05H301.24V261.6H308.04V274.95H314.59V268.25H317.94V261.6H321.39ZM344.7 265.05H334.7V274.95H341.4V278.4H334.7V291.6H344.7V295.05H327.9V261.6H344.7V265.05Z" fill="#81A756"/>
</svg>
