<svg width="577" height="370" viewBox="0 0 577 370" fill="none" xmlns="http://www.w3.org/2000/svg">
<rect width="576.032" height="369.851" fill="#8BAB64"/>
<rect width="565.089" height="356.926" fill="#DDF3C4"/>
<rect x="10.9395" y="7.95312" width="554.145" height="348.972" fill="#C5DAAD"/>
<rect x="23.8691" y="17.8955" width="527.283" height="93.4569" fill="#ABD37C"/>
<rect x="481.518" y="35.792" width="52.7283" height="58.6591" fill="#DDF3C4"/>
<rect x="485.496" y="40.7617" width="48.7488" height="53.688" fill="#8BAB64"/>
<rect width="41.7847" height="47.7227" transform="translate(485.496 40.7617)" fill="#C5DAAD"/>
<rect x="487.316" y="47" width="13.4839" height="12.2581" fill="#8BAB64"/>
<rect x="499.574" y="59.2581" width="13.4839" height="12.2581" fill="#8BAB64"/>
<rect x="487.316" y="71.5161" width="13.4839" height="12.2581" fill="#8BAB64"/>
<rect x="511.832" y="47" width="13.4839" height="12.2581" fill="#8BAB64"/>
<rect x="511.832" y="71.5161" width="13.4839" height="12.2581" fill="#8BAB64"/>
<path d="M115.551 162.97H119.481V154.96H123.561V175.03H119.481V165.04H115.551V175.03H111.471V154.96H115.551V162.97ZM139.557 170.95V173.05H137.547V175.03H129.477V173.05H127.467V162.97H129.477V160.96H137.547V162.97H139.557V167.05H137.547V169.03H131.547V172.96H137.487V170.95H139.557ZM131.547 163.03V166.96H135.477V163.03H131.547ZM141.483 160.96H143.463V156.97H147.543V160.96H149.553V163.03H147.543V175.03H143.463V163.03H141.483V160.96ZM157.467 160.96H161.547V172.96H165.477V160.96H169.557V173.05H167.547V175.03H159.477V173.05H157.467V160.96ZM177.543 159.04H173.463V156.97H177.543V159.04ZM177.543 175.03H173.463V160.96H177.543V175.03ZM179.481 160.96H181.461V156.97H185.541V160.96H187.551V163.03H185.541V175.03H181.461V163.03H179.481V160.96ZM201.549 170.95V173.05H199.539V175.03H191.469V173.05H189.459V162.97H191.469V160.96H199.539V162.97H201.549V167.05H199.539V169.03H193.539V172.96H199.479V170.95H201.549ZM193.539 163.03V166.96H197.469V163.03H193.539ZM209.535 159.04H205.455V156.97H209.535V159.04ZM209.535 175.03H205.455V160.96H209.535V175.03ZM223.533 160.96V162.97H225.543V175.03H221.463V163.03H219.543V165.04H217.533V175.03H213.453V160.96H217.533V162.97H219.453V160.96H223.533ZM229.449 162.97H231.459V160.96H237.459V154.96H241.539V175.03H231.459V173.05H229.449V162.97ZM233.529 163.03V172.96H237.459V163.03H233.529ZM257.535 170.95V173.05H255.525V175.03H247.455V173.05H245.445V162.97H247.455V160.96H255.525V162.97H257.535V167.05H255.525V169.03H249.525V172.96H255.465V170.95H257.535ZM249.525 163.03V166.96H253.455V163.03H249.525ZM265.521 175.03H261.441V154.96H265.521V175.03ZM273.519 159.04H269.439V156.97H273.519V159.04ZM273.519 175.03H269.439V160.96H273.519V175.03ZM281.517 159.04H277.437V156.97H281.517V159.04ZM277.437 175.21V160.96H281.517V177.04H279.537V179.05H275.457V176.95H277.437V175.21ZM297.525 160.96V163.03H295.515V165.04H293.535V168.97H295.515V170.95H297.525V175.03H293.445V171.04H291.435V169.03H289.515V175.03H285.435V154.96H289.515V166.96H291.435V164.95H293.445V162.97H295.455V160.96H297.525ZM313.521 170.95V173.05H311.511V175.03H303.441V173.05H301.431V162.97H303.441V160.96H311.511V162.97H313.521V167.05H311.511V169.03H305.511V172.96H311.451V170.95H313.521ZM305.511 163.03V166.96H309.441V163.03H305.511ZM323.433 162.97H325.443V160.96H331.443V154.96H335.523V175.03H325.443V173.05H323.433V162.97ZM327.513 163.03V172.96H331.443V163.03H327.513ZM339.429 162.97H341.439V160.96H349.509V162.97H351.519V173.05H349.509V175.03H341.439V173.05H339.429V162.97ZM343.509 163.03V172.96H347.439V163.03H343.509ZM367.516 170.95V173.05H365.506V175.03H357.436V173.05H355.426V162.97H357.436V160.96H365.506V162.97H367.516V167.05H365.506V169.03H359.506V172.96H365.446V170.95H367.516ZM359.506 163.03V166.96H363.436V163.03H359.506ZM375.502 175.03H371.422V154.96H375.502V175.03ZM389.506 159.04H385.426V156.97H389.506V159.04ZM389.506 175.03H385.426V160.96H389.506V175.03ZM395.524 172.96H399.424V171.04H397.444V169.03H395.434V167.05H393.424V162.97H395.434V160.96H403.504V165.04H401.434V163.03H397.504V164.95H399.514V166.96H401.524V168.97H403.504V173.05H401.524V175.03H393.424V170.95H395.524V172.96ZM413.433 162.97H415.443V160.96H423.513V162.97H425.523V173.05H423.513V175.03H415.443V173.05H413.433V162.97ZM417.513 163.03V172.96H421.443V163.03H417.513ZM447.519 160.96V162.97H449.529V175.03H445.449V163.03H443.529V165.04H441.519V175.03H437.439V163.03H435.519V165.04H433.509V175.03H429.429V160.96H433.509V162.97H435.429V160.96H439.509V162.97H443.439V160.96H447.519ZM154.545 191.04H150.465V188.97H154.545V191.04ZM154.545 207.03H150.465V192.96H154.545V207.03ZM168.543 192.96V194.97H170.553V207.03H166.473V195.03H164.553V197.04H162.543V207.03H158.463V192.96H162.543V194.97H164.463V192.96H168.543ZM180.465 193.05V188.97H182.475V186.96H188.565V188.97H190.545V197.04H188.565V199.05H186.555V201.03H184.545V204.96H186.525H190.545V207.03H180.465V200.97H182.475V198.96H184.485V196.95H186.465V189.03H182.565V193.05H180.465ZM194.469 188.97H196.479V186.96H204.549V188.97H206.559V205.05H204.549V207.03H196.479V205.05H194.469V188.97ZM198.549 189.03V204.96H202.479V189.03H198.549ZM216.465 197.04H210.465V186.96H220.545V189.03H214.545V194.97H218.565V196.95H220.545V205.05H218.565V207.03H210.465V204.96H216.465V197.04ZM224.469 188.97H226.479V186.96H234.549V188.97H236.559V205.05H234.549V207.03H226.479V205.05H224.469V188.97ZM228.549 189.03V204.96H232.479V189.03H228.549ZM258.561 202.95V205.05H256.551V207.03H248.481V205.05H246.471V194.97H248.481V192.96H256.551V194.97H258.561V199.05H256.551V201.03H250.551V204.96H256.491V202.95H258.561ZM250.551 195.03V198.96H254.481V195.03H250.551ZM274.557 202.95V205.05H272.547V207.03H264.477V205.05H262.467V194.97H264.477V192.96H272.547V194.97H274.557V199.05H272.547V201.03H266.547V204.96H272.487V202.95H274.557ZM266.547 195.03V198.96H270.477V195.03H266.547ZM288.543 192.96V194.97H290.553V207.03H286.473V195.03H284.553V197.04H282.543V207.03H278.463V192.96H282.543V194.97H284.463V192.96H288.543ZM302.475 207.03V205.05H300.465V194.97H302.475V192.96H310.545V197.04H308.475V195.03H304.545V204.96H308.475V202.95H310.545V205.05H308.565V207.03H302.475ZM318.549 191.04H314.469V188.97H318.549V191.04ZM318.549 207.03H314.469V192.96H318.549V207.03ZM326.547 194.97H328.467V192.96H330.567V197.04H326.547V207.03H322.467V192.96H326.547V194.97ZM334.467 207.03V205.05H332.457V194.97H334.467V192.96H342.537V197.04H340.467V195.03H336.537V204.96H340.467V202.95H342.537V205.05H340.557V207.03H334.467ZM346.461 192.96H350.541V204.96H354.471V192.96H358.551V205.05H356.541V207.03H348.471V205.05H346.461V192.96ZM366.537 207.03H362.457V186.96H366.537V207.03ZM370.455 198.96H372.465V196.95H378.465V195.03H372.465V192.96H380.535V194.97H382.545V207.03H372.465V205.05H370.455V198.96ZM374.535 199.05V204.96H378.465V199.05H374.535ZM390.531 191.04H386.451V188.97H390.531V191.04ZM390.531 207.03H386.451V192.96H390.531V207.03ZM398.529 194.97H400.449V192.96H402.549V197.04H398.529V207.03H394.449V192.96H398.529V194.97ZM416.529 202.95V205.05H414.519V207.03H406.449V205.05H404.439V194.97H406.449V192.96H414.519V194.97H416.529V199.05H414.519V201.03H408.519V204.96H414.459V202.95H416.529ZM408.519 195.03V198.96H412.449V195.03H408.519ZM168.561 234.95V237.05H166.551V239.03H158.481V237.05H156.471V226.97H158.481V224.96H166.551V226.97H168.561V231.05H166.551V233.03H160.551V236.96H166.491V234.95H168.561ZM160.551 227.03V230.96H164.481V227.03H160.551ZM174.477 239.03V237.05H172.467V226.97H174.477V224.96H182.547V229.04H180.477V227.03H176.547V236.96H180.477V234.95H182.547V237.05H180.567V239.03H174.477ZM186.471 226.97H188.481V224.96H196.551V226.97H198.561V237.05H196.551V239.03H188.481V237.05H186.471V226.97ZM190.551 227.03V236.96H194.481V227.03H190.551ZM212.547 224.96V226.97H214.557V239.03H210.477V227.03H208.557V229.04H206.547V239.03H202.467V224.96H206.547V226.97H208.467V224.96H212.547ZM218.463 226.97H220.473V224.96H228.543V226.97H230.553V237.05H228.543V239.03H220.473V237.05H218.463V226.97ZM222.543 227.03V236.96H226.473V227.03H222.543ZM252.549 224.96V226.97H254.559V239.03H250.479V227.03H248.559V229.04H246.549V239.03H242.469V227.03H240.549V229.04H238.539V239.03H234.459V224.96H238.539V226.97H240.459V224.96H244.539V226.97H248.469V224.96H252.549ZM262.533 223.04H258.453V220.97H262.533V223.04ZM262.533 239.03H258.453V224.96H262.533V239.03ZM278.541 234.95V237.05H276.531V239.03H268.461V237.05H266.451V226.97H268.461V224.96H276.531V226.97H278.541V231.05H276.531V233.03H270.531V236.96H276.471V234.95H278.541ZM270.531 227.03V230.96H274.461V227.03H270.531ZM286.473 224.96H288.453V220.97H292.533V224.96H294.543V227.03H292.533V239.03H288.453V227.03H286.473V224.96ZM308.541 234.95V237.05H306.531V239.03H298.461V237.05H296.451V226.97H298.461V224.96H306.531V226.97H308.541V231.05H306.531V233.03H300.531V236.96H306.471V234.95H308.541ZM300.531 227.03V230.96H304.461V227.03H300.531ZM322.533 229.04V239.03H318.453V218.96H322.533V226.97H324.453V224.96H328.533V226.97H330.543V239.03H326.463V227.03H324.543V229.04H322.533ZM346.539 234.95V237.05H344.529V239.03H336.459V237.05H334.449V226.97H336.459V224.96H344.529V226.97H346.539V231.05H344.529V233.03H338.529V236.96H344.469V234.95H346.539ZM338.529 227.03V230.96H342.459V227.03H338.529ZM354.525 224.96H360.525V226.97H362.535V237.05H360.525V239.03H350.445V218.96H354.525V224.96ZM354.525 227.03V236.96H358.455V227.03H354.525ZM370.521 224.96H376.521V226.97H378.531V237.05H376.521V239.03H366.441V218.96H370.521V224.96ZM370.521 227.03V236.96H374.451V227.03H370.521ZM394.527 234.95V237.05H392.517V239.03H384.447V237.05H382.437V226.97H384.447V224.96H392.517V226.97H394.527V231.05H392.517V233.03H386.517V236.96H392.457V234.95H394.527ZM386.517 227.03V230.96H390.447V227.03H386.517ZM408.513 224.96V226.97H410.523V239.03H406.443V227.03H404.523V229.04H402.513V239.03H398.433V224.96H402.513V226.97H404.433V224.96H408.513ZM186.575 256.96V263.05H184.565V267.04H182.555V271.03H178.475V267.04H174.575V271.03H170.495V267.04H168.485V263.05H166.475V256.96H170.555V262.96H172.565V266.95H174.485V264.97H176.495V263.05H174.485V256.96H178.565V262.96H180.575V266.95H182.495V256.96H186.575ZM190.47 262.96H192.48V260.95H198.48V259.03H192.48V256.96H200.55V258.97H202.56V271.03H192.48V269.05H190.47V262.96ZM194.55 263.05V268.96H198.48V263.05H194.55ZM206.466 262.96H208.476V260.95H214.476V259.03H208.476V256.96H216.546V258.97H218.556V271.03H208.476V269.05H206.466V262.96ZM210.546 263.05V268.96H214.476V263.05H210.546ZM226.542 258.97H228.462V256.96H230.562V261.04H226.542V271.03H222.462V256.96H226.542V258.97ZM236.532 255.04H232.452V252.97H236.532V255.04ZM236.532 271.03H232.452V256.96H236.532V271.03ZM250.53 256.96V258.97H252.54V271.03H248.46V259.03H246.54V261.04H244.53V271.03H240.45V256.96H244.53V258.97H246.45V256.96H250.53ZM262.452 262.96H264.462V260.95H270.462V259.03H264.462V256.96H272.532V258.97H274.542V271.03H264.462V269.05H262.452V262.96ZM266.532 263.05V268.96H270.462V263.05H266.532ZM282.528 271.03H278.448V250.96H282.528V271.03ZM296.532 261.04V271.03H292.452V250.96H296.532V258.97H298.452V256.96H302.532V258.97H304.542V271.03H300.462V259.03H298.542V261.04H296.532ZM320.538 266.95V269.05H318.528V271.03H310.458V269.05H308.448V258.97H310.458V256.96H318.528V258.97H320.538V263.05H318.528V265.03H312.528V268.96H318.468V266.95H320.538ZM312.528 259.03V262.96H316.458V259.03H312.528ZM322.464 256.96H324.444V252.97H328.524V256.96H330.534V259.03H328.524V271.03H324.444V259.03H322.464V256.96ZM338.448 262.96H340.458V260.95H346.458V259.03H340.458V256.96H348.528V258.97H350.538V271.03H340.458V269.05H338.448V262.96ZM342.528 263.05V268.96H346.458V263.05H342.528ZM352.464 256.96H354.444V252.97H356.454V250.96H362.544V253.03H358.524V256.96H362.544V259.03H358.524V271.03H354.444V259.03H352.464V256.96ZM376.524 256.96V263.05H374.514V267.04H372.534V271.03H368.454V267.04H366.444V263.05H364.434V256.96H368.514V262.96H370.524V266.95H372.444V256.96H376.524ZM380.43 262.96H382.44V260.95H388.44V259.03H382.44V256.96H390.51V258.97H392.52V271.03H382.44V269.05H380.43V262.96ZM384.51 263.05V268.96H388.44V263.05H384.51ZM400.507 271.03H396.427V250.96H400.507V271.03ZM178.484 303.03H172.484V301.05H170.474V290.97H172.484V288.96H184.574V291.03H182.564V305.04H180.554V307.05H172.484V304.95H178.484V303.03ZM174.554 291.03V300.96H178.484V291.03H174.554ZM198.561 298.95V301.05H196.551V303.03H188.481V301.05H186.471V290.97H188.481V288.96H196.551V290.97H198.561V295.05H196.551V297.03H190.551V300.96H196.491V298.95H198.561ZM190.551 291.03V294.96H194.481V291.03H190.551ZM206.547 290.97H208.467V288.96H210.567V293.04H206.547V303.03H202.467V288.96H206.547V290.97ZM224.547 298.95V301.05H222.537V303.03H214.467V301.05H212.457V290.97H214.467V288.96H222.537V290.97H224.547V295.05H222.537V297.03H216.537V300.96H222.477V298.95H224.547ZM216.537 291.03V294.96H220.467V291.03H216.537ZM230.463 303.03V301.05H228.453V290.97H230.463V288.96H238.533V293.04H236.463V291.03H232.533V300.96H236.463V298.95H238.533V301.05H236.553V303.03H230.463ZM248.457 301.05H246.477V297.03H244.467V293.04H242.457V288.96H246.537V292.95H248.547V296.97H250.467V288.96H254.547V293.04H252.537V299.04H250.557V305.04H248.547V307.05H244.467V302.97H248.457V301.05ZM260.463 303.03V301.05H258.453V290.97H260.463V288.96H268.533V293.04H266.463V291.03H262.533V300.96H266.463V298.95H268.533V301.05H266.553V303.03H260.463ZM276.537 303.03H272.457V282.96H276.537V303.03ZM292.545 298.95V301.05H290.535V303.03H282.465V301.05H280.455V290.97H282.465V288.96H290.535V290.97H292.545V295.05H290.535V297.03H284.535V300.96H290.475V298.95H292.545ZM284.535 291.03V294.96H288.465V291.03H284.535ZM296.451 290.97H298.461V288.96H304.461V282.96H308.541V303.03H298.461V301.05H296.451V290.97ZM300.531 291.03V300.96H304.461V291.03H300.531ZM338.553 288.96V295.05H336.543V299.04H334.533V303.03H330.453V299.04H326.553V303.03H322.473V299.04H320.463V295.05H318.453V288.96H322.533V294.96H324.543V298.95H326.463V296.97H328.473V295.05H326.463V288.96H330.543V294.96H332.553V298.95H334.473V288.96H338.553ZM342.447 290.97H344.457V288.96H352.527V290.97H354.537V301.05H352.527V303.03H344.457V301.05H342.447V290.97ZM346.527 291.03V300.96H350.457V291.03H346.527ZM362.523 290.97H364.443V288.96H366.543V293.04H362.523V303.03H358.443V288.96H362.523V290.97ZM368.433 290.97H370.443V288.96H376.443V282.96H380.523V303.03H370.443V301.05H368.433V290.97ZM372.513 291.03V300.96H376.443V291.03H372.513ZM382.449 288.96H384.429V284.97H388.509V288.96H390.519V291.03H388.509V303.03H384.429V291.03H382.449V288.96ZM396.508 303.03H392.428V298.95H396.508V303.03Z" fill="#64764E"/>
</svg>
