<svg width="650" height="495" viewBox="0 0 650 495" fill="none" xmlns="http://www.w3.org/2000/svg">
<rect width="650" height="495" fill="#322F2B"/>
<rect width="644.212" height="486.59" fill="#D9D9D9"/>
<g filter="url(#filter0_d_241_4183)">
<rect x="9.25781" y="7.20874" width="634.951" height="479.381" fill="#969292"/>
</g>
<rect x="23.1523" y="16.8203" width="607.747" height="60.0728" fill="#545454"/>
<rect x="580.543" y="24.0291" width="39.3589" height="40.8495" fill="#E1E1E1"/>
<path d="M582.859 26.4321H619.903V64.8787H582.859V26.4321Z" fill="#322F2B"/>
<g clip-path="url(#clip0_241_4183)">
<rect width="34.1496" height="36.0437" transform="translate(582.859 26.4321)" fill="#AFAFAF"/>
<rect x="589.859" y="33.4321" width="15.6129" height="15.3333" fill="#545454"/>
<rect x="604.053" y="48.7654" width="15.6129" height="15.3333" fill="#545454"/>
</g>
<rect x="6.36719" y="127.955" width="10.9973" height="35.443" fill="#D9D9D9"/>
<rect x="634.949" y="188.629" width="10.9973" height="35.443" fill="#322F2B"/>
<rect x="637.844" y="385.667" width="10.9973" height="35.443" fill="#322F2B"/>
<rect x="634.949" y="320.788" width="10.9973" height="35.443" fill="#322F2B"/>
<rect x="637.844" y="218.064" width="10.9973" height="35.443" fill="#322F2B"/>
<rect x="640.742" y="421.111" width="6.94568" height="35.443" fill="#322F2B"/>
<rect x="637.844" y="157.39" width="10.9973" height="35.443" fill="#322F2B"/>
<rect x="485.039" y="82.3" width="11.4138" height="34.1496" transform="rotate(-90 485.039 82.3)" fill="#545454"/>
<rect x="450.891" y="84.7029" width="11.4138" height="34.1496" transform="rotate(-90 450.891 84.7029)" fill="#545454"/>
<rect x="362.91" y="25.231" width="11.4138" height="34.1496" transform="rotate(-90 362.91 25.231)" fill="#545454"/>
<rect x="388.961" y="22.2273" width="11.4138" height="34.1496" transform="rotate(-90 388.961 22.2273)" fill="#545454"/>
<rect x="118.656" y="82.3" width="11.4138" height="34.1496" transform="rotate(-90 118.656 82.3)" fill="#545454"/>
<rect x="4.05078" y="279.94" width="10.9973" height="35.443" fill="#D9D9D9"/>
<rect x="4.05078" y="444.539" width="10.9973" height="35.443" fill="#D9D9D9"/>
<rect x="1.15625" y="297.961" width="10.9973" height="35.443" fill="#D9D9D9"/>
<rect x="1.15625" y="94.9146" width="10.9973" height="35.443" fill="#D9D9D9"/>
<rect x="1.15625" y="159.793" width="10.9973" height="35.443" fill="#D9D9D9"/>
<path d="M178.403 225.96H181.083V247.4H178.403V250.04H164.963V223.28H178.403V225.96ZM170.403 226.04V247.28H175.643V226.04H170.403ZM186.291 239.28H188.971V236.6H196.971V234.04H188.971V231.28H199.731V233.96H202.411V250.04H188.971V247.4H186.291V239.28ZM191.731 239.4V247.28H196.971V239.4H191.731ZM204.98 231.28H207.62V225.96H213.06V231.28H215.74V234.04H213.06V250.04H207.62V234.04H204.98V231.28ZM242.411 231.28V234.04H239.731V236.72H237.091V241.96H239.731V244.6H242.411V250.04H236.971V244.72H234.291V242.04H231.731V250.04H226.291V223.28H231.731V239.28H234.291V236.6H236.971V233.96H239.651V231.28H242.411ZM247.62 233.96H250.3V231.28H261.06V233.96H263.74V247.4H261.06V250.04H250.3V247.4H247.62V233.96ZM253.06 234.04V247.28H258.3V234.04H253.06ZM293.068 231.28V233.96H295.748V250.04H290.308V234.04H287.748V236.72H285.068V250.04H279.628V234.04H277.068V236.72H274.388V250.04H268.948V231.28H274.388V233.96H276.948V231.28H282.388V233.96H287.628V231.28H293.068ZM298.3 231.28H300.94V225.96H306.38V231.28H309.06V234.04H306.38V250.04H300.94V234.04H298.3V231.28ZM319.612 233.96H322.292V231.28H333.052V233.96H335.732V247.4H333.052V250.04H322.292V247.4H319.612V233.96ZM325.052 234.04V247.28H330.292V234.04H325.052ZM357.06 231.28V239.4H354.38V244.72H351.74V250.04H346.3V244.72H343.62V239.4H340.94V231.28H346.38V239.28H349.06V244.6H351.62V231.28H357.06ZM378.388 244.6V247.4H375.708V250.04H364.948V247.4H362.268V233.96H364.948V231.28H375.708V233.96H378.388V239.4H375.708V242.04H367.708V247.28H375.628V244.6H378.388ZM367.708 234.04V239.28H372.948V234.04H367.708ZM389.036 233.96H391.596V231.28H394.396V236.72H389.036V250.04H383.596V231.28H389.036V233.96ZM402.356 236.72V250.04H396.916V223.28H402.356V233.96H404.916V231.28H410.356V233.96H413.036V250.04H407.596V234.04H405.036V236.72H402.356ZM434.365 244.6V247.4H431.685V250.04H420.925V247.4H418.245V233.96H420.925V231.28H431.685V233.96H434.365V239.4H431.685V242.04H423.685V247.28H431.605V244.6H434.365ZM423.685 234.04V239.28H428.925V234.04H423.685ZM455.693 244.6V247.4H453.013V250.04H442.253V247.4H439.573V233.96H442.253V231.28H453.013V233.96H455.693V239.4H453.013V242.04H445.013V247.28H452.933V244.6H455.693ZM445.013 234.04V239.28H450.253V234.04H445.013ZM474.341 231.28V233.96H477.021V250.04H471.581V234.04H469.021V236.72H466.341V250.04H460.901V231.28H466.341V233.96H468.901V231.28H474.341ZM181.075 274.28V276.96H183.755V293.04H178.315V277.04H175.755V279.72H173.075V293.04H167.635V277.04H165.075V279.72H162.395V293.04H156.955V274.28H162.395V276.96H164.955V274.28H170.395V276.96H175.635V274.28H181.075ZM205.068 287.6V290.4H202.388V293.04H191.628V290.4H188.948V276.96H191.628V274.28H202.388V276.96H205.068V282.4H202.388V285.04H194.388V290.28H202.308V287.6H205.068ZM194.388 277.04V282.28H199.628V277.04H194.388ZM207.636 274.28H210.276V268.96H215.716V274.28H218.396V277.04H215.716V293.04H210.276V277.04H207.636V274.28ZM234.388 279.72V293.04H228.948V266.28H234.388V276.96H236.948V274.28H242.388V276.96H245.068V293.04H239.628V277.04H237.068V279.72H234.388ZM266.396 287.6V290.4H263.716V293.04H252.956V290.4H250.276V276.96H252.956V274.28H263.716V276.96H266.396V282.4H263.716V285.04H255.716V290.28H263.636V287.6H266.396ZM255.716 277.04V282.28H260.956V277.04H255.716ZM268.964 274.28H271.604V268.96H277.044V274.28H279.724V277.04H277.044V293.04H271.604V277.04H268.964V274.28ZM300.956 293.04H292.956V290.4H290.276V276.96H292.956V274.28H309.076V277.04H306.396V295.72H303.716V298.4H292.956V295.6H300.956V293.04ZM295.716 277.04V290.28H300.956V277.04H295.716ZM327.724 287.6V290.4H325.044V293.04H314.284V290.4H311.604V276.96H314.284V274.28H325.044V276.96H327.724V282.4H325.044V285.04H317.044V290.28H324.964V287.6H327.724ZM317.044 277.04V282.28H322.284V277.04H317.044ZM359.732 274.28V282.4H357.052V287.72H354.372V293.04H348.932V287.72H343.732V293.04H338.292V287.72H335.612V282.4H332.932V274.28H338.372V282.28H341.052V287.6H343.612V284.96H346.292V282.4H343.612V274.28H349.052V282.28H351.732V287.6H354.292V274.28H359.732ZM370.364 271.72H364.924V268.96H370.364V271.72ZM370.364 293.04H364.924V274.28H370.364V293.04ZM378.268 293.04V290.4H375.588V276.96H378.268V274.28H389.028V279.72H386.268V277.04H381.028V290.28H386.268V287.6H389.028V290.4H386.388V293.04H378.268ZM399.7 279.72V293.04H394.26V266.28H399.7V276.96H402.26V274.28H407.7V276.96H410.38V293.04H404.94V277.04H402.38V279.72H399.7ZM412.948 274.28H415.588V268.96H421.028V274.28H423.708V277.04H421.028V293.04H415.588V277.04H412.948V274.28ZM450.38 274.28V282.4H447.7V287.72H445.06V293.04H439.62V287.72H436.94V282.4H434.26V274.28H439.7V282.28H442.38V287.6H444.94V274.28H450.38ZM455.588 282.28H458.268V279.6H466.268V277.04H458.268V274.28H469.028V276.96H471.708V293.04H458.268V290.4H455.588V282.28ZM461.028 282.4V290.28H466.268V282.4H461.028ZM490.356 274.28V276.96H493.036V293.04H487.596V277.04H485.036V279.72H482.356V293.04H476.916V274.28H482.356V276.96H484.916V274.28H490.356Z" fill="#020202"/>
<path d="M164.963 317.4V311.96H167.643V309.28H175.763V311.96H178.403V322.72H175.763V325.4H173.083V328.04H170.403V333.28H173.043H178.403V336.04H164.963V327.96H167.643V325.28H170.323V322.6H172.963V312.04H167.763V317.4H164.963ZM191.635 322.72H183.635V309.28H197.075V312.04H189.075V319.96H194.435V322.6H197.075V333.4H194.435V336.04H183.635V333.28H191.635V322.72ZM223.755 319.96H226.435V333.4H223.755V336.04H215.755V341.4H210.315V317.28H223.755V319.96ZM215.755 320.04V333.28H220.995V320.04H215.755ZM247.763 330.6V333.4H245.083V336.04H234.323V333.4H231.643V319.96H234.323V317.28H245.083V319.96H247.763V325.4H245.083V328.04H237.083V333.28H245.003V330.6H247.763ZM237.083 320.04V325.28H242.323V320.04H237.083ZM258.411 319.96H260.971V317.28H263.771V322.72H258.411V336.04H252.971V317.28H258.411V319.96ZM269.091 333.28H274.291V330.72H271.651V328.04H268.971V325.4H266.291V319.96H268.971V317.28H279.731V322.72H276.971V320.04H271.731V322.6H274.411V325.28H277.091V327.96H279.731V333.4H277.091V336.04H266.291V330.6H269.091V333.28ZM284.963 319.96H287.643V317.28H298.403V319.96H301.083V333.4H298.403V336.04H287.643V333.4H284.963V319.96ZM290.403 320.04V333.28H295.643V320.04H290.403ZM319.731 317.28V319.96H322.411V336.04H316.971V320.04H314.411V322.72H311.731V336.04H306.291V317.28H311.731V319.96H314.291V317.28H319.731ZM343.74 330.6V333.4H341.06V336.04H330.3V333.4H327.62V319.96H330.3V317.28H341.06V319.96H343.74V325.4H341.06V328.04H333.06V333.28H340.98V330.6H343.74ZM333.06 320.04V325.28H338.3V320.04H333.06ZM362.388 317.28V319.96H365.068V336.04H359.628V320.04H357.068V322.72H354.388V336.04H348.948V317.28H354.388V319.96H356.948V317.28H362.388ZM378.284 325.28H380.964V322.6H388.964V320.04H380.964V317.28H391.724V319.96H394.404V336.04H380.964V333.4H378.284V325.28ZM383.724 325.4V333.28H388.964V325.4H383.724ZM399.612 317.28H405.052V333.28H410.292V317.28H415.732V333.4H413.052V336.04H402.292V333.4H399.612V317.28ZM418.3 317.28H420.94V311.96H426.38V317.28H429.06V320.04H426.38V336.04H420.94V320.04H418.3V317.28ZM431.604 319.96H434.284V317.28H445.044V319.96H447.724V333.4H445.044V336.04H434.284V333.4H431.604V319.96ZM437.044 320.04V333.28H442.284V320.04H437.044ZM452.932 312.04V309.28H458.372V314.72H455.732V317.4H452.932V314.6H455.612V312.04H452.932ZM463.701 333.28H468.901V330.72H466.261V328.04H463.581V325.4H460.901V319.96H463.581V317.28H474.341V322.72H471.581V320.04H466.341V322.6H469.021V325.28H471.701V327.96H474.341V333.4H471.701V336.04H460.901V330.6H463.701V333.28Z" fill="#D9D9D9"/>
<path d="M485.013 336.04H479.573V330.6H485.013V336.04Z" fill="black"/>
<defs>
<filter id="filter0_d_241_4183" x="5.25781" y="7.20874" width="642.951" height="487.381" filterUnits="userSpaceOnUse" color-interpolation-filters="sRGB">
<feFlood flood-opacity="0" result="BackgroundImageFix"/>
<feColorMatrix in="SourceAlpha" type="matrix" values="0 0 0 0 0 0 0 0 0 0 0 0 0 0 0 0 0 0 127 0" result="hardAlpha"/>
<feOffset dy="4"/>
<feGaussianBlur stdDeviation="2"/>
<feComposite in2="hardAlpha" operator="out"/>
<feColorMatrix type="matrix" values="0 0 0 0 0 0 0 0 0 0 0 0 0 0 0 0 0 0 0.25 0"/>
<feBlend mode="normal" in2="BackgroundImageFix" result="effect1_dropShadow_241_4183"/>
<feBlend mode="normal" in="SourceGraphic" in2="effect1_dropShadow_241_4183" result="shape"/>
</filter>
<clipPath id="clip0_241_4183">
<rect width="34.1496" height="36.0437" fill="white" transform="translate(582.859 26.4321)"/>
</clipPath>
</defs>
</svg>
