<svg width="650" height="495" viewBox="0 0 650 495" fill="none" xmlns="http://www.w3.org/2000/svg">
<rect width="650" height="495" fill="#322F2B"/>
<rect width="644.212" height="486.59" fill="#D9D9D9"/>
<g filter="url(#filter0_d_241_4300)">
<rect x="9.25781" y="7.20874" width="634.951" height="479.381" fill="#969292"/>
</g>
<rect x="23.1523" y="16.8203" width="607.747" height="60.0728" fill="#545454"/>
<rect x="580.543" y="24.0293" width="39.3589" height="40.8495" fill="#E1E1E1"/>
<path d="M582.859 26.4321H619.903V64.8787H582.859V26.4321Z" fill="#322F2B"/>
<g clip-path="url(#clip0_241_4300)">
<rect width="34.1496" height="36.0437" transform="translate(582.859 26.4321)" fill="#AFAFAF"/>
<rect x="589.859" y="33.4321" width="15.6129" height="15.3333" fill="#545454"/>
<rect x="604.053" y="48.7654" width="15.6129" height="15.3333" fill="#545454"/>
</g>
<rect x="6.36719" y="127.955" width="10.9973" height="35.443" fill="#D9D9D9"/>
<rect x="634.949" y="188.629" width="10.9973" height="35.443" fill="#322F2B"/>
<rect x="637.844" y="385.667" width="10.9973" height="35.443" fill="#322F2B"/>
<rect x="634.949" y="320.788" width="10.9973" height="35.443" fill="#322F2B"/>
<rect x="637.844" y="218.064" width="10.9973" height="35.443" fill="#322F2B"/>
<rect x="640.742" y="421.111" width="6.94568" height="35.443" fill="#322F2B"/>
<rect x="637.844" y="157.39" width="10.9973" height="35.443" fill="#322F2B"/>
<rect x="485.039" y="82.3" width="11.4138" height="34.1496" transform="rotate(-90 485.039 82.3)" fill="#545454"/>
<rect x="450.891" y="84.7029" width="11.4138" height="34.1496" transform="rotate(-90 450.891 84.7029)" fill="#545454"/>
<rect x="362.91" y="25.231" width="11.4138" height="34.1496" transform="rotate(-90 362.91 25.231)" fill="#545454"/>
<rect x="388.961" y="22.2271" width="11.4138" height="34.1496" transform="rotate(-90 388.961 22.2271)" fill="#545454"/>
<rect x="118.656" y="82.3" width="11.4138" height="34.1496" transform="rotate(-90 118.656 82.3)" fill="#545454"/>
<rect x="4.05078" y="279.94" width="10.9973" height="35.443" fill="#D9D9D9"/>
<rect x="4.05078" y="444.539" width="10.9973" height="35.443" fill="#D9D9D9"/>
<rect x="1.15625" y="297.961" width="10.9973" height="35.443" fill="#D9D9D9"/>
<rect x="1.15625" y="94.9146" width="10.9973" height="35.443" fill="#D9D9D9"/>
<rect x="1.15625" y="159.793" width="10.9973" height="35.443" fill="#D9D9D9"/>
<path d="M111.528 205.96H114.208V227.4H111.528V230.04H98.0883V203.28H111.528V205.96ZM103.528 206.04V227.28H108.768V206.04H103.528ZM124.856 208.72H119.416V205.96H124.856V208.72ZM124.856 230.04H119.416V211.28H124.856V230.04ZM127.44 211.28H130.08V205.96H135.52V211.28H138.2V214.04H135.52V230.04H130.08V214.04H127.44V211.28ZM154.192 208.72H148.752V205.96H154.192V208.72ZM154.192 230.04H148.752V211.28H154.192V230.04ZM162.216 227.28H167.416V224.72H164.776V222.04H162.096V219.4H159.416V213.96H162.096V211.28H172.856V216.72H170.096V214.04H164.856V216.6H167.536V219.28H170.216V221.96H172.856V227.4H170.216V230.04H159.416V224.6H162.216V227.28ZM431.591 211.28V219.4H428.911V224.72H426.271V230.04H420.831V224.72H418.151V219.4H415.471V211.28H420.911V219.28H423.591V224.6H426.151V211.28H431.591ZM436.799 213.96H439.479V211.28H450.239V213.96H452.919V227.4H450.239V230.04H439.479V227.4H436.799V213.96ZM442.239 214.04V227.28H447.479V214.04H442.239ZM474.247 224.6V227.4H471.567V230.04H460.807V227.4H458.127V213.96H460.807V211.28H471.567V213.96H474.247V219.4H471.567V222.04H463.567V227.28H471.487V224.6H474.247ZM463.567 214.04V219.28H468.807V214.04H463.567ZM479.455 213.96H482.135V211.28H490.135V203.28H495.575V230.04H482.135V227.4H479.455V213.96ZM484.895 214.04V227.28H490.135V214.04H484.895ZM503.584 227.28H508.784V224.72H506.144V222.04H503.464V219.4H500.784V213.96H503.464V211.28H514.224V216.72H511.464V214.04H506.224V216.6H508.904V219.28H511.584V221.96H514.224V227.4H511.584V230.04H500.784V224.6H503.584V227.28ZM535.575 224.6V227.4H532.895V230.04H522.135V227.4H519.455V213.96H522.135V211.28H532.895V213.96H535.575V219.4H532.895V222.04H524.895V227.28H532.815V224.6H535.575ZM524.895 214.04V219.28H530.135V214.04H524.895ZM546.224 230.04H540.784V203.28H546.224V230.04ZM556.888 230.04H551.448V224.6H556.888V230.04ZM218.248 254.28V262.4H215.568V267.72H212.888V273.04H207.448V267.72H202.248V273.04H196.808V267.72H194.128V262.4H191.448V254.28H196.888V262.28H199.568V267.6H202.128V264.96H204.808V262.4H202.128V254.28H207.568V262.28H210.248V267.6H212.808V254.28H218.248ZM223.44 262.28H226.12V259.6H234.12V257.04H226.12V254.28H236.88V256.96H239.56V273.04H226.12V270.4H223.44V262.28ZM228.88 262.4V270.28H234.12V262.4H228.88ZM242.128 254.28H244.768V248.96H250.208V254.28H252.888V257.04H250.208V273.04H244.768V257.04H242.128V254.28ZM274.12 273.04H266.12V270.4H263.44V256.96H266.12V254.28H282.24V257.04H279.56V275.72H276.88V278.4H266.12V275.6H274.12V273.04ZM268.88 257.04V270.28H274.12V257.04H268.88ZM300.888 267.6V270.4H298.208V273.04H287.448V270.4H284.768V256.96H287.448V254.28H298.208V256.96H300.888V262.4H298.208V265.04H290.208V270.28H298.128V267.6H300.888ZM290.208 257.04V262.28H295.448V257.04H290.208ZM311.536 273.04H306.096V246.28H311.536V273.04ZM322.2 251.72H316.76V248.96H322.2V251.72ZM322.2 273.04H316.76V254.28H322.2V273.04ZM332.864 251.72H327.424V248.96H332.864V251.72ZM327.424 273.28V254.28H332.864V275.72H330.224V278.4H324.784V275.6H327.424V273.28ZM354.208 254.28V257.04H351.528V259.72H348.888V264.96H351.528V267.6H354.208V273.04H348.768V267.72H346.088V265.04H343.528V273.04H338.088V246.28H343.528V262.28H346.088V259.6H348.768V256.96H351.448V254.28H354.208ZM372.864 251.72H367.424V248.96H372.864V251.72ZM372.864 273.04H367.424V254.28H372.864V273.04ZM380.888 270.28H386.088V267.72H383.448V265.04H380.768V262.4H378.088V256.96H380.768V254.28H391.528V259.72H388.768V257.04H383.528V259.6H386.208V262.28H388.888V264.96H391.528V270.4H388.888V273.04H378.088V267.6H380.888V270.28ZM404.768 262.28H407.448V259.6H415.448V257.04H407.448V254.28H418.208V256.96H420.888V273.04H407.448V270.4H404.768V262.28ZM410.208 262.4V270.28H415.448V262.4H410.208ZM426.096 262.28H428.776V259.6H436.776V257.04H428.776V254.28H439.536V256.96H442.216V273.04H428.776V270.4H426.096V262.28ZM431.536 262.4V270.28H436.776V262.4H431.536ZM460.864 254.28V256.96H463.544V273.04H458.104V257.04H455.544V259.72H452.864V273.04H447.424V254.28H452.864V256.96H455.424V254.28H460.864ZM486.224 310.72H480.784V289.28H486.224V310.72ZM486.224 316.04H480.784V313.28H486.224V316.04Z" fill="black"/>
<path d="M186.096 205.96H188.776V203.28H194.216V230.04H188.776V208.72H186.096V205.96ZM223.48 211.28V203.28H228.92V230.04H223.48V216.72H220.92V224.72H215.48V216.72H212.92V230.04H210.12V203.28H215.56V211.28H218.24V216.6H220.8V211.28H223.48ZM239.544 230.04H234.104V203.28H239.544V230.04ZM250.208 227.28H258.208V230.04H244.768V203.28H250.208V227.28ZM266.144 203.28H271.584V227.4H268.904V230.04H260.784V227.4H258.144V224.6H260.904V227.28H266.144V203.28ZM279.479 211.28H282.159V203.28H287.599V211.28H290.239V219.28H292.919V230.04H287.479V222.04H279.599V230.04H276.799V219.28H279.479V211.28ZM282.239 211.4V219.28H284.799V211.4H282.239ZM311.567 205.96H314.247V216.72H311.567V219.28H314.247V230.04H308.807V219.4H303.567V230.04H298.127V203.28H311.567V205.96ZM303.567 206.04V216.6H308.807V206.04H303.567ZM332.895 205.96H335.575V227.4H332.895V230.04H319.455V203.28H332.895V205.96ZM324.895 206.04V227.28H330.135V206.04H324.895ZM346.151 203.28H362.231V206.04H356.911V230.04H351.471V206.04H346.151V203.28ZM364.807 205.96H367.487V203.28H378.247V205.96H380.927V227.4H378.247V230.04H367.487V227.4H364.807V205.96ZM370.247 206.04V227.28H375.487V206.04H370.247ZM391.575 208.6H394.255V213.96H396.935V219.28H399.495V203.28H402.255V230.04H396.815V224.72H394.135V219.4H391.495V214.04H388.935V230.04H386.135V203.28H391.575V208.6ZM168.752 291.96H171.432V289.28H176.872V316.04H171.432V294.72H168.752V291.96ZM184.768 294.72V291.96H187.448V289.28H195.568V291.96H198.208V300.04H195.568V302.6H198.208V313.4H195.568V316.04H184.768V313.28H192.768V302.72H187.448V299.96H192.768V292.04H187.568V294.72H184.768ZM203.44 291.96H206.12V289.28H216.88V291.96H219.56V313.4H216.88V316.04H206.12V313.4H203.44V291.96ZM208.88 292.04V313.28H214.12V292.04H208.88ZM246.136 297.28V289.28H251.576V316.04H246.136V302.72H243.576V310.72H238.136V302.72H235.576V316.04H232.776V289.28H238.216V297.28H240.896V302.6H243.456V297.28H246.136ZM262.2 316.04H256.76V289.28H262.2V316.04ZM272.864 313.28H280.864V316.04H267.424V289.28H272.864V313.28ZM288.8 289.28H294.24V313.4H291.56V316.04H283.44V313.4H280.8V310.6H283.56V313.28H288.8V289.28ZM299.455 291.96H302.135V289.28H312.895V291.96H315.575V313.4H312.895V316.04H302.135V313.4H299.455V291.96ZM304.895 292.04V313.28H310.135V292.04H304.895ZM334.224 292.04H326.224V299.96H331.584V302.72H326.224V313.28H334.224V316.04H320.784V289.28H334.224V292.04ZM342.239 294.6H344.919V299.96H347.599V305.28H350.159V289.28H352.919V316.04H347.479V310.72H344.799V305.4H342.159V300.04H339.599V316.04H336.799V289.28H342.239V294.6ZM371.575 302.72V316.04H366.135V289.28H371.575V299.96H374.135V297.28H379.575V299.96H382.255V316.04H376.815V300.04H374.255V302.72H371.575ZM387.463 297.28H392.903V313.28H398.143V297.28H403.583V313.4H400.903V316.04H390.143V313.4H387.463V297.28ZM414.231 294.72H408.791V291.96H414.231V294.72ZM414.231 316.04H408.791V297.28H414.231V316.04ZM422.135 305.28H427.455V300.04H419.455V297.28H432.895V305.4H430.255V308.04H424.895V313.28H432.895V316.04H419.455V307.96H422.135V305.28ZM454.247 310.6V313.4H451.567V316.04H440.807V313.4H438.127V299.96H440.807V297.28H451.567V299.96H454.247V305.4H451.567V308.04H443.567V313.28H451.487V310.6H454.247ZM443.567 300.04V305.28H448.807V300.04H443.567ZM472.895 297.28V299.96H475.575V316.04H470.135V300.04H467.575V302.72H464.895V316.04H459.455V297.28H464.895V299.96H467.455V297.28H472.895Z" fill="#D9D9D9"/>
<defs>
<filter id="filter0_d_241_4300" x="5.25781" y="7.20874" width="642.951" height="487.381" filterUnits="userSpaceOnUse" color-interpolation-filters="sRGB">
<feFlood flood-opacity="0" result="BackgroundImageFix"/>
<feColorMatrix in="SourceAlpha" type="matrix" values="0 0 0 0 0 0 0 0 0 0 0 0 0 0 0 0 0 0 127 0" result="hardAlpha"/>
<feOffset dy="4"/>
<feGaussianBlur stdDeviation="2"/>
<feComposite in2="hardAlpha" operator="out"/>
<feColorMatrix type="matrix" values="0 0 0 0 0 0 0 0 0 0 0 0 0 0 0 0 0 0 0.25 0"/>
<feBlend mode="normal" in2="BackgroundImageFix" result="effect1_dropShadow_241_4300"/>
<feBlend mode="normal" in="SourceGraphic" in2="effect1_dropShadow_241_4300" result="shape"/>
</filter>
<clipPath id="clip0_241_4300">
<rect width="34.1496" height="36.0437" fill="white" transform="translate(582.859 26.4321)"/>
</clipPath>
</defs>
</svg>
