<svg width="1125" height="825" viewBox="0 0 1125 825" fill="none" xmlns="http://www.w3.org/2000/svg">
<rect width="1125" height="825" fill="#322F2B"/>
<rect width="1114.98" height="810.983" fill="#D9D9D9"/>
<g filter="url(#filter0_d_220_3234)">
<rect x="16.0283" y="12.0146" width="1098.95" height="798.968" fill="#AFAFAF"/>
</g>
<rect x="40.0713" y="28.0342" width="1051.87" height="100.121" fill="#545454"/>
<rect x="1004.79" y="40.0488" width="68.1211" height="68.0825" fill="#E1E1E1"/>
<path d="M1008.79 44.0537H1072.91V108.131H1008.79V44.0537Z" fill="#322F2B"/>
<rect width="59.1051" height="60.0728" transform="translate(1008.79 44.0537)" fill="#AFAFAF"/>
<rect x="1015.79" y="51.0537" width="15.6129" height="15.3333" fill="#545454"/>
<rect x="1029.99" y="66.387" width="15.6129" height="15.3333" fill="#545454"/>
<rect x="1015.79" y="81.7205" width="15.6129" height="15.3333" fill="#545454"/>
<rect x="1044.18" y="51.0537" width="15.6129" height="15.3333" fill="#545454"/>
<rect x="1044.18" y="81.7205" width="15.6129" height="15.3333" fill="#545454"/>
<rect x="11.0195" y="213.259" width="19.0338" height="59.0716" fill="#D9D9D9"/>
<rect x="1098.95" y="314.381" width="19.0338" height="59.0716" fill="#322F2B"/>
<rect x="1103.96" y="642.779" width="19.0338" height="59.0716" fill="#322F2B"/>
<rect x="1098.95" y="534.648" width="19.0338" height="59.0716" fill="#322F2B"/>
<rect x="1103.96" y="363.44" width="19.0338" height="59.0716" fill="#322F2B"/>
<rect x="1108.97" y="701.851" width="12.0214" height="59.0716" fill="#322F2B"/>
<rect x="1103.96" y="262.318" width="19.0338" height="59.0716" fill="#322F2B"/>
<rect x="839.492" y="137.166" width="19.0231" height="59.1051" transform="rotate(-90 839.492 137.166)" fill="#545454"/>
<rect x="780.387" y="141.171" width="19.0231" height="59.1051" transform="rotate(-90 780.387 141.171)" fill="#545454"/>
<rect x="628.117" y="42.0508" width="19.0231" height="59.1051" transform="rotate(-90 628.117 42.0508)" fill="#545454"/>
<rect x="673.197" y="37.0449" width="19.0231" height="59.1051" transform="rotate(-90 673.197 37.0449)" fill="#545454"/>
<rect x="205.365" y="137.166" width="19.0231" height="59.1051" transform="rotate(-90 205.365 137.166)" fill="#545454"/>
<rect x="7.0127" y="466.565" width="19.0338" height="59.0716" fill="#D9D9D9"/>
<rect x="7.0127" y="740.898" width="19.0338" height="59.0716" fill="#D9D9D9"/>
<rect x="2.00342" y="496.602" width="19.0338" height="59.0716" fill="#D9D9D9"/>
<rect x="2.00342" y="158.191" width="19.0338" height="59.0716" fill="#D9D9D9"/>
<rect x="2.00342" y="266.323" width="19.0338" height="59.0716" fill="#D9D9D9"/>
<path d="M124.04 327.04H118.6V300.28H124.04V327.04ZM142.704 308.28V310.96H145.384V327.04H139.944V311.04H137.384V313.72H134.704V327.04H129.264V308.28H134.704V310.96H137.264V308.28H142.704ZM158.6 308.4V302.96H161.28V300.28H169.4V302.96H172.04V313.72H169.4V316.4H166.72V319.04H164.04V324.28H166.68H172.04V327.04H158.6V318.96H161.28V316.28H163.96V313.6H166.6V303.04H161.4V308.4H158.6ZM177.272 302.96H179.952V300.28H190.712V302.96H193.392V324.4H190.712V327.04H179.952V324.4H177.272V302.96ZM182.712 303.04V324.28H187.952V303.04H182.712ZM198.6 308.4V302.96H201.28V300.28H209.4V302.96H212.04V313.72H209.4V316.4H206.72V319.04H204.04V324.28H206.68H212.04V327.04H198.6V318.96H201.28V316.28H203.96V313.6H206.6V303.04H201.4V308.4H198.6ZM217.272 305.72V302.96H219.952V300.28H228.072V302.96H230.712V311.04H228.072V313.6H230.712V324.4H228.072V327.04H217.272V324.28H225.272V313.72H219.952V310.96H225.272V303.04H220.072V305.72H217.272ZM270.752 308.28V316.4H268.072V321.72H265.392V327.04H259.952V321.72H254.752V327.04H249.312V321.72H246.632V316.4H243.952V308.28H249.392V316.28H252.072V321.6H254.632V318.96H257.312V316.4H254.632V308.28H260.072V316.28H262.752V321.6H265.312V308.28H270.752ZM275.944 316.28H278.624V313.6H286.624V311.04H278.624V308.28H289.384V310.96H292.064V327.04H278.624V324.4H275.944V316.28ZM281.384 316.4V324.28H286.624V316.4H281.384ZM302.712 310.96H305.272V308.28H308.072V313.72H302.712V327.04H297.272V308.28H302.712V310.96ZM326.712 321.6V324.4H324.032V327.04H313.272V324.4H310.592V310.96H313.272V308.28H324.032V310.96H326.712V316.4H324.032V319.04H316.032V324.28H323.952V321.6H326.712ZM316.032 311.04V316.28H321.272V311.04H316.032ZM345.36 308.28V310.96H348.04V327.04H342.6V311.04H340.04V313.72H337.36V327.04H331.92V308.28H337.36V310.96H339.92V308.28H345.36ZM377.376 321.6V324.4H374.696V327.04H363.936V324.4H361.256V310.96H363.936V308.28H374.696V310.96H377.376V316.4H374.696V319.04H366.696V324.28H374.616V321.6H377.376ZM366.696 311.04V316.28H371.936V311.04H366.696ZM388.024 310.96H390.584V308.28H393.384V313.72H388.024V327.04H382.584V308.28H388.024V310.96ZM132.04 353.96H134.72V367.4H132.04V370.04H124.04V375.4H118.6V351.28H132.04V353.96ZM124.04 354.04V367.28H129.28V354.04H124.04ZM156.048 364.6V367.4H153.368V370.04H142.608V367.4H139.928V353.96H142.608V351.28H153.368V353.96H156.048V359.4H153.368V362.04H145.368V367.28H153.288V364.6H156.048ZM145.368 354.04V359.28H150.608V354.04H145.368ZM166.696 353.96H169.256V351.28H172.056V356.72H166.696V370.04H161.256V351.28H166.696V353.96ZM177.377 367.28H182.577V364.72H179.937V362.04H177.257V359.4H174.577V353.96H177.257V351.28H188.017V356.72H185.257V354.04H180.017V356.6H182.697V359.28H185.377V361.96H188.017V367.4H185.377V370.04H174.577V364.6H177.377V367.28ZM193.248 353.96H195.928V351.28H206.688V353.96H209.368V367.4H206.688V370.04H195.928V367.4H193.248V353.96ZM198.688 354.04V367.28H203.928V354.04H198.688ZM228.017 351.28V353.96H230.697V370.04H225.257V354.04H222.697V356.72H220.017V370.04H214.577V351.28H220.017V353.96H222.577V351.28H228.017ZM252.025 364.6V367.4H249.345V370.04H238.585V367.4H235.905V353.96H238.585V351.28H249.345V353.96H252.025V359.4H249.345V362.04H241.345V367.28H249.265V364.6H252.025ZM241.345 354.04V359.28H246.585V354.04H241.345ZM270.673 351.28V353.96H273.353V370.04H267.913V354.04H265.353V356.72H262.673V370.04H257.233V351.28H262.673V353.96H265.233V351.28H270.673ZM278.561 359.28H281.241V356.6H289.241V354.04H281.241V351.28H292.001V353.96H294.681V370.04H281.241V367.4H278.561V359.28ZM284.001 359.4V367.28H289.241V359.4H284.001ZM299.889 351.28H305.329V367.28H310.569V351.28H316.009V367.4H313.329V370.04H302.569V367.4H299.889V351.28ZM318.577 351.28H321.217V345.96H326.657V351.28H329.337V354.04H326.657V370.04H321.217V354.04H318.577V351.28ZM331.881 353.96H334.561V351.28H345.321V353.96H348.001V367.4H345.321V370.04H334.561V367.4H331.881V353.96ZM337.321 354.04V367.28H342.561V354.04H337.321ZM353.209 346.04V343.28H358.649V348.72H356.009V351.4H353.209V348.6H355.889V346.04H353.209ZM363.978 367.28H369.178V364.72H366.538V362.04H363.858V359.4H361.178V353.96H363.858V351.28H374.618V356.72H371.858V354.04H366.618V356.6H369.298V359.28H371.978V361.96H374.618V367.4H371.978V370.04H361.178V364.6H363.978V367.28ZM393.298 348.72H387.858V345.96H393.298V348.72ZM393.298 370.04H387.858V351.28H393.298V370.04ZM411.962 351.28V353.96H414.642V370.04H409.202V354.04H406.642V356.72H403.962V370.04H398.522V351.28H403.962V353.96H406.522V351.28H411.962ZM433.298 348.6H435.978V353.96H438.658V359.28H441.218V343.28H443.978V370.04H438.538V364.72H435.858V359.4H433.218V354.04H430.658V370.04H427.858V343.28H433.298V348.6ZM465.306 364.6V367.4H462.626V370.04H451.866V367.4H449.186V353.96H451.866V351.28H462.626V353.96H465.306V359.4H462.626V362.04H454.626V367.28H462.546V364.6H465.306ZM454.626 354.04V359.28H459.866V354.04H454.626ZM470.514 353.96H473.194V351.28H481.194V343.28H486.634V370.04H473.194V367.4H470.514V353.96ZM475.954 354.04V367.28H481.194V354.04H475.954ZM507.962 364.6V367.4H505.282V370.04H494.522V367.4H491.842V353.96H494.522V351.28H505.282V353.96H507.962V359.4H505.282V362.04H497.282V367.28H505.202V364.6H507.962ZM497.282 354.04V359.28H502.522V354.04H497.282ZM518.61 353.96H521.17V351.28H523.97V356.72H518.61V370.04H513.17V351.28H518.61V353.96ZM531.931 370.04H526.491V343.28H531.931V370.04ZM537.155 359.28H539.835V356.6H547.835V354.04H539.835V351.28H550.595V353.96H553.275V370.04H539.835V367.4H537.155V359.28ZM542.595 359.4V367.28H547.835V359.4H542.595ZM571.923 351.28V353.96H574.603V370.04H569.163V354.04H566.603V356.72H563.923V370.04H558.483V351.28H563.923V353.96H566.483V351.28H571.923ZM579.811 353.96H582.491V351.28H590.491V343.28H595.931V370.04H582.491V367.4H579.811V353.96ZM585.251 354.04V367.28H590.491V354.04H585.251ZM606.579 370.04H601.139V364.6H606.579V370.04ZM132.04 388.96H134.72V410.4H132.04V413.04H118.6V386.28H132.04V388.96ZM124.04 389.04V410.28H129.28V389.04H124.04ZM156.048 407.6V410.4H153.368V413.04H142.608V410.4H139.928V396.96H142.608V394.28H153.368V396.96H156.048V402.4H153.368V405.04H145.368V410.28H153.288V407.6H156.048ZM145.368 397.04V402.28H150.608V397.04H145.368ZM163.936 402.28H169.256V397.04H161.256V394.28H174.696V402.4H172.056V405.04H166.696V410.28H174.696V413.04H161.256V404.96H163.936V402.28ZM196.048 407.6V410.4H193.368V413.04H182.608V410.4H179.928V396.96H182.608V394.28H193.368V396.96H196.048V402.4H193.368V405.04H185.368V410.28H193.288V407.6H196.048ZM185.368 397.04V402.28H190.608V397.04H185.368ZM209.264 402.28H211.944V399.6H219.944V397.04H211.944V394.28H222.704V396.96H225.384V413.04H211.944V410.4H209.264V402.28ZM214.704 402.4V410.28H219.944V402.4H214.704ZM230.592 394.28H236.032V410.28H241.272V394.28H246.712V410.4H244.032V413.04H233.272V410.4H230.592V394.28ZM249.28 394.28H251.92V388.96H257.36V394.28H260.04V397.04H257.36V413.04H251.92V397.04H249.28V394.28ZM262.584 396.96H265.264V394.28H276.024V396.96H278.704V410.4H276.024V413.04H265.264V410.4H262.584V396.96ZM268.024 397.04V410.28H273.264V397.04H268.024ZM283.913 389.04V386.28H289.353V391.72H286.713V394.4H283.913V391.6H286.592V389.04H283.913ZM294.681 410.28H299.881V407.72H297.241V405.04H294.561V402.4H291.881V396.96H294.561V394.28H305.321V399.72H302.561V397.04H297.321V399.6H300.001V402.28H302.681V404.96H305.321V410.4H302.681V413.04H291.881V407.6H294.681V410.28ZM324.001 399.72V413.04H318.561V386.28H324.001V396.96H326.561V394.28H332.001V396.96H334.681V413.04H329.241V397.04H326.681V399.72H324.001ZM356.009 407.6V410.4H353.329V413.04H342.569V410.4H339.889V396.96H342.569V394.28H353.329V396.96H356.009V402.4H353.329V405.04H345.329V410.28H353.249V407.6H356.009ZM345.329 397.04V402.28H350.569V397.04H345.329ZM366.657 394.28H374.657V396.96H377.337V410.4H374.657V413.04H361.217V386.28H366.657V394.28ZM366.657 397.04V410.28H371.897V397.04H366.657ZM387.985 394.28H395.985V396.96H398.665V410.4H395.985V413.04H382.545V386.28H387.985V394.28ZM387.985 397.04V410.28H393.225V397.04H387.985ZM419.993 407.6V410.4H417.313V413.04H406.553V410.4H403.873V396.96H406.553V394.28H417.313V396.96H419.993V402.4H417.313V405.04H409.313V410.28H417.233V407.6H419.993ZM409.313 397.04V402.28H414.553V397.04H409.313ZM438.642 394.28V396.96H441.322V413.04H435.882V397.04H433.322V399.72H430.642V413.04H425.202V394.28H430.642V396.96H433.202V394.28H438.642ZM459.978 394.28H467.978V396.96H470.658V410.4H467.978V413.04H454.538V386.28H459.978V394.28ZM459.978 397.04V410.28H465.218V397.04H459.978ZM481.306 391.72H475.866V388.96H481.306V391.72ZM481.306 413.04H475.866V394.28H481.306V413.04ZM491.97 391.72H486.53V388.96H491.97V391.72ZM486.53 413.28V394.28H491.97V415.72H489.33V418.4H483.89V415.6H486.53V413.28ZM521.322 407.6V410.4H518.642V413.04H507.882V410.4H505.202V396.96H507.882V394.28H518.642V396.96H521.322V402.4H518.642V405.04H510.642V410.28H518.562V407.6H521.322ZM510.642 397.04V402.28H515.882V397.04H510.642ZM531.97 413.04H526.53V386.28H531.97V413.04ZM553.314 394.28V397.04H550.634V399.72H547.994V404.96H550.634V407.6H553.314V413.04H547.874V407.72H545.194V405.04H542.634V413.04H537.194V386.28H542.634V402.28H545.194V399.6H547.874V396.96H550.554V394.28H553.314ZM558.522 402.28H561.202V399.6H569.202V397.04H561.202V394.28H571.962V396.96H574.642V413.04H561.202V410.4H558.522V402.28ZM563.962 402.4V410.28H569.202V402.4H563.962ZM579.85 402.28H582.53V399.6H590.53V397.04H582.53V394.28H593.29V396.96H595.97V413.04H582.53V410.4H579.85V402.28ZM585.29 402.4V410.28H590.53V402.4H585.29ZM606.618 396.96H609.178V394.28H611.978V399.72H606.618V413.04H601.178V394.28H606.618V396.96ZM883.889 413.04H875.889V410.4H873.209V396.96H875.889V394.28H892.009V397.04H889.329V415.72H886.649V418.4H875.889V415.6H883.889V413.04ZM878.649 397.04V410.28H883.889V397.04H878.649ZM910.658 407.6V410.4H907.978V413.04H897.217V410.4H894.538V396.96H897.217V394.28H907.978V396.96H910.658V402.4H907.978V405.04H899.978V410.28H907.898V407.6H910.658ZM899.978 397.04V402.28H905.218V397.04H899.978ZM921.306 396.96H923.866V394.28H926.666V399.72H921.306V413.04H915.866V394.28H921.306V396.96ZM945.306 407.6V410.4H942.626V413.04H931.866V410.4H929.186V396.96H931.866V394.28H942.626V396.96H945.306V402.4H942.626V405.04H934.626V410.28H942.546V407.6H945.306ZM934.626 397.04V402.28H939.866V397.04H934.626ZM950.514 396.96H953.194V394.28H961.194V386.28H966.634V413.04H953.194V410.4H950.514V396.96ZM955.954 397.04V410.28H961.194V397.04H955.954ZM987.962 407.6V410.4H985.282V413.04H974.522V410.4H971.842V396.96H974.522V394.28H985.282V396.96H987.962V402.4H985.282V405.04H977.282V410.28H985.202V407.6H987.962ZM977.282 397.04V402.28H982.522V397.04H977.282ZM1006.61 394.28V396.96H1009.29V413.04H1003.85V397.04H1001.29V399.72H998.61V413.04H993.17V394.28H998.61V396.96H1001.17V394.28H1006.61ZM1019.94 413.04H1014.5V407.6H1019.94V413.04Z" fill="black"/>
<path d="M403.913 313.6H406.592V311.04H403.913V302.96H406.592V300.28H417.353V302.96H420.033V311.04H417.353V313.6H420.033V324.4H417.353V327.04H406.592V324.4H403.913V313.6ZM409.353 303.04V310.96H414.593V303.04H409.353ZM409.353 313.72V324.28H414.593V313.72H409.353ZM446.608 308.28V300.28H452.048V327.04H446.608V313.72H444.048V321.72H438.608V313.72H436.048V327.04H433.248V300.28H438.688V308.28H441.368V313.6H443.928V308.28H446.608ZM462.673 327.04H457.233V300.28H462.673V327.04ZM473.337 324.28H481.337V327.04H467.897V300.28H473.337V324.28ZM489.273 300.28H494.713V324.4H492.033V327.04H483.913V324.4H481.272V321.6H484.033V324.28H489.273V300.28ZM499.928 302.96H502.608V300.28H513.368V302.96H516.048V324.4H513.368V327.04H502.608V324.4H499.928V302.96ZM505.368 303.04V324.28H510.608V303.04H505.368ZM534.696 303.04H526.696V310.96H532.056V313.72H526.696V324.28H534.696V327.04H521.256V300.28H534.696V303.04ZM542.712 305.6H545.392V310.96H548.072V316.28H550.632V300.28H553.392V327.04H547.952V321.72H545.272V316.4H542.632V311.04H540.072V327.04H537.272V300.28H542.712V305.6ZM622.506 388.96H625.186V386.28H630.626V413.04H625.186V391.72H622.506V388.96ZM638.522 388.96H641.202V386.28H646.642V413.04H641.202V391.72H638.522V388.96ZM662.538 399.72H654.538V386.28H667.978V389.04H659.978V396.96H665.338V399.6H667.978V410.4H665.338V413.04H654.538V410.28H662.538V399.72ZM694.577 394.28V386.28H700.017V413.04H694.577V399.72H692.017V407.72H686.577V399.72H684.017V413.04H681.217V386.28H686.657V394.28H689.337V399.6H691.897V394.28H694.577ZM710.642 413.04H705.202V386.28H710.642V413.04ZM721.306 410.28H729.306V413.04H715.866V386.28H721.306V410.28ZM737.241 386.28H742.681V410.4H740.001V413.04H731.881V410.4H729.241V407.6H732.001V410.28H737.241V386.28ZM750.577 394.28H753.257V386.28H758.697V394.28H761.337V402.28H764.017V413.04H758.577V405.04H750.697V413.04H747.897V402.28H750.577V394.28ZM753.337 394.4V402.28H755.897V394.4H753.337ZM782.665 388.96H785.345V399.72H782.665V402.28H785.345V413.04H779.905V402.4H774.665V413.04H769.225V386.28H782.665V388.96ZM774.665 389.04V399.6H779.905V389.04H774.665ZM803.993 388.96H806.673V410.4H803.993V413.04H790.553V386.28H803.993V388.96ZM795.993 389.04V410.28H801.233V389.04H795.993ZM836.009 386.28V391.72H833.329V397.04H830.689V402.28H833.329V407.6H836.009V413.04H830.569V407.72H827.889V402.4H825.329V413.04H819.889V386.28H825.329V396.96H830.569V391.6H833.249V386.28H836.009ZM854.577 394.28V386.28H860.017V413.04H854.577V399.72H852.017V407.72H846.577V399.72H844.017V413.04H841.217V386.28H846.657V394.28H849.337V399.6H851.897V394.28H854.577Z" fill="#D9D9D9"/>
<path d="M258.28 503.6H260.96V498.28H263.6V493.04H252.96V490.28H269.04V498.4H266.4V503.72H263.72V509.04H261.04V517.04H255.6V508.96H258.28V503.6ZM274.272 492.96H276.952V490.28H287.712V492.96H290.392V514.4H287.712V517.04H276.952V514.4H274.272V492.96ZM279.712 493.04V514.28H284.952V493.04H279.712ZM311.6 498.28V493.04H306.4V501.04H303.72V503.72H295.6V501.04H292.96V492.96H295.6V490.28H314.4V498.4H311.72V503.72H309.04V509.04H306.4V517.04H303.6V508.96H306.28V503.6H308.96V498.28H311.6ZM311.6 506.28H314.28V503.6H322.4V506.28H325.04V514.4H322.4V517.04H314.28V514.4H311.6V506.28ZM298.4 493.04V500.96H300.96V493.04H298.4ZM317.04 506.4V514.28H319.6V506.4H317.04ZM349.048 503.72V517.04H343.608V490.28H349.048V500.96H351.608V498.28H357.048V500.96H359.728V517.04H354.288V501.04H351.728V503.72H349.048ZM370.376 495.72H364.936V492.96H370.376V495.72ZM370.376 517.04H364.936V498.28H370.376V517.04ZM391.72 511.6V514.4H389.04V517.04H378.28V514.4H375.6V500.96H378.28V498.28H389.04V500.96H391.72V506.4H389.04V509.04H381.04V514.28H388.96V511.6H391.72ZM381.04 501.04V506.28H386.28V501.04H381.04ZM402.368 500.96H404.928V498.28H407.728V503.72H402.368V517.04H396.928V498.28H402.368V500.96ZM426.368 498.28V506.4H423.688V511.72H421.048V517.04H415.608V511.72H412.928V506.4H410.248V498.28H415.688V506.28H418.368V511.6H420.928V498.28H426.368ZM431.577 506.28H434.257V503.6H442.257V501.04H434.257V498.28H445.017V500.96H447.697V517.04H434.257V514.4H431.577V506.28ZM437.017 506.4V514.28H442.257V506.4H437.017ZM466.345 498.28V500.96H469.025V517.04H463.585V501.04H461.025V503.72H458.345V517.04H452.905V498.28H458.345V500.96H460.905V498.28H466.345ZM487.681 500.96H490.241V498.28H493.041V503.72H487.681V517.04H482.241V498.28H487.681V500.96ZM501.001 495.72H495.561V492.96H501.001V495.72ZM501.001 517.04H495.561V498.28H501.001V517.04ZM511.665 495.72H506.225V492.96H511.665V495.72ZM506.225 517.28V498.28H511.665V519.72H509.025V522.4H503.585V519.6H506.225V517.28ZM516.889 500.96H519.569V498.28H527.569V490.28H533.009V517.04H519.569V514.4H516.889V500.96ZM522.329 501.04V514.28H527.569V501.04H522.329ZM554.337 511.6V514.4H551.657V517.04H540.897V514.4H538.217V500.96H540.897V498.28H551.657V500.96H554.337V506.4H551.657V509.04H543.657V514.28H551.577V511.6H554.337ZM543.657 501.04V506.28H548.897V501.04H543.657ZM572.985 498.28V500.96H575.665V517.04H570.225V501.04H567.665V503.72H564.985V517.04H559.545V498.28H564.985V500.96H567.545V498.28H572.985ZM588.881 500.96H591.561V498.28H602.321V500.96H605.001V514.4H602.321V517.04H591.561V514.4H588.881V500.96ZM594.321 501.04V514.28H599.561V501.04H594.321ZM623.649 500.96H626.329V514.4H623.649V517.04H615.649V522.4H610.209V498.28H623.649V500.96ZM615.649 501.04V514.28H620.889V501.04H615.649ZM644.985 498.28H652.985V500.96H655.665V514.4H652.985V517.04H639.545V490.28H644.985V498.28ZM644.985 501.04V514.28H650.225V501.04H644.985ZM676.993 511.6V514.4H674.313V517.04H663.553V514.4H660.873V500.96H663.553V498.28H674.313V500.96H676.993V506.4H674.313V509.04H666.313V514.28H674.233V511.6H676.993ZM666.313 501.04V506.28H671.553V501.04H666.313ZM695.642 498.28V500.96H698.322V517.04H692.882V501.04H690.322V503.72H687.642V517.04H682.202V498.28H687.642V500.96H690.202V498.28H695.642ZM706.21 506.28H711.53V501.04H703.53V498.28H716.97V506.4H714.33V509.04H708.97V514.28H716.97V517.04H703.53V508.96H706.21V506.28ZM727.642 495.72H722.202V492.96H727.642V495.72ZM727.642 517.04H722.202V498.28H727.642V517.04ZM746.306 498.28V500.96H748.986V517.04H743.546V501.04H740.986V503.72H738.306V517.04H732.866V498.28H738.306V500.96H740.866V498.28H746.306ZM770.314 511.6V514.4H767.634V517.04H756.874V514.4H754.194V500.96H756.874V498.28H767.634V500.96H770.314V506.4H767.634V509.04H759.634V514.28H767.554V511.6H770.314ZM759.634 501.04V506.28H764.874V501.04H759.634ZM780.962 517.04H775.522V511.6H780.962V517.04ZM269.04 535.96H271.72V557.4H269.04V560.04H255.6V533.28H269.04V535.96ZM261.04 536.04V557.28H266.28V536.04H261.04ZM282.368 538.72H276.928V535.96H282.368V538.72ZM282.368 560.04H276.928V541.28H282.368V560.04ZM284.952 541.28H287.592V535.96H293.032V541.28H295.712V544.04H293.032V560.04H287.592V544.04H284.952V541.28ZM308.944 549.28H314.264V544.04H306.264V541.28H319.704V549.4H317.064V552.04H311.704V557.28H319.704V560.04H306.264V551.96H308.944V549.28ZM324.936 543.96H327.616V541.28H338.376V543.96H341.056V557.4H338.376V560.04H327.616V557.4H324.936V543.96ZM330.376 544.04V557.28H335.616V544.04H330.376ZM351.704 543.96H354.264V541.28H357.064V546.72H351.704V560.04H346.264V541.28H351.704V543.96ZM370.264 560.04H362.264V557.4H359.584V543.96H362.264V541.28H378.384V544.04H375.704V562.72H373.024V565.4H362.264V562.6H370.264V560.04ZM365.024 544.04V557.28H370.264V544.04H365.024ZM378.272 541.28H380.913V535.96H386.353V541.28H389.033V544.04H386.353V560.04H380.913V544.04H378.272V541.28ZM415.704 541.28V549.4H413.024V554.72H410.384V560.04H404.944V554.72H402.264V549.4H399.584V541.28H405.024V549.28H407.704V554.6H410.264V541.28H415.704ZM420.913 543.96H423.592V541.28H434.353V543.96H437.033V557.4H434.353V560.04H423.592V557.4H420.913V543.96ZM426.353 544.04V557.28H431.593V544.04H426.353ZM442.241 543.96H444.921V541.28H455.681V543.96H458.361V557.4H455.681V560.04H444.921V557.4H442.241V543.96ZM447.681 544.04V557.28H452.921V544.04H447.681ZM469.009 543.96H471.569V541.28H474.369V546.72H469.009V560.04H463.569V541.28H469.009V543.96Z" fill="black"/>
<path d="M509.2 572.8V561.92H514.56V556.56H530.8V561.92H536.08V583.44H530.8V588.8H525.44V594.08H520.08V604.56H525.36H536.08V610.08H509.2V593.92H514.56V588.56H519.92V583.2H525.2V562.08H514.8V572.8H509.2ZM551.904 583.2H557.264V572.56H562.544V562.08H541.264V556.56H573.424V572.8H568.144V583.44H562.784V594.08H557.424V610.08H546.544V593.92H551.904V583.2ZM599.888 583.44H583.888V556.56H610.768V562.08H594.768V577.92H605.488V583.2H610.768V604.8H605.488V610.08H583.888V604.56H599.888V583.44ZM663.967 572.56V556.56H674.847V610.08H663.967V583.44H658.847V599.44H647.967V583.44H642.847V610.08H637.247V556.56H648.127V572.56H653.487V583.2H658.607V572.56H663.967ZM696.096 610.08H685.216V556.56H696.096V610.08ZM717.424 604.56H733.424V610.08H706.544V556.56H717.424V604.56ZM749.295 556.56H760.175V604.8H754.815V610.08H738.575V604.8H733.295V599.2H738.815V604.56H749.295V556.56ZM770.606 561.92H775.966V556.56H797.486V561.92H802.846V604.8H797.486V610.08H775.966V604.8H770.606V561.92ZM781.486 562.08V604.56H791.966V562.08H781.486ZM840.143 562.08H824.143V577.92H834.863V583.44H824.143V604.56H840.143V610.08H813.263V556.56H840.143V562.08ZM856.174 567.2H861.534V577.92H866.894V588.56H872.014V556.56H877.534V610.08H866.654V599.44H861.294V588.8H856.014V578.08H850.894V610.08H845.294V556.56H856.174V567.2Z" fill="#D9D9D9"/>
<path d="M503.96 644.28H506.6V638.96H512.04V644.28H514.72V647.04H512.04V663.04H506.6V647.04H503.96V644.28ZM517.264 646.96H519.944V644.28H530.704V646.96H533.384V660.4H530.704V663.04H519.944V660.4H517.264V646.96ZM522.704 647.04V660.28H527.944V647.04H522.704ZM552.032 644.28V646.96H554.712V663.04H549.272V647.04H546.712V649.72H544.032V663.04H538.592V644.28H544.032V646.96H546.592V644.28H552.032ZM570.608 663.04V660.4H567.928V638.96H570.608V636.28H581.368V641.72H578.608V639.04H573.368V660.28H578.608V657.6H581.368V660.4H578.728V663.04H570.608ZM583.944 638.96H586.624V636.28H597.384V638.96H600.064V660.4H597.384V663.04H586.624V660.4H583.944V638.96ZM589.384 639.04V660.28H594.624V639.04H589.384ZM605.272 644.4V638.96H607.952V636.28H616.072V638.96H618.712V649.72H616.072V652.4H613.392V655.04H610.712V660.28H613.352H618.712V663.04H605.272V654.96H607.952V652.28H610.632V649.6H613.272V639.04H608.072V644.4H605.272ZM631.952 644.28H637.392V660.28H642.632V644.28H648.072V660.4H645.392V663.04H634.632V660.4H631.952V644.28ZM658.72 641.72H653.28V638.96H658.72V641.72ZM658.72 663.04H653.28V644.28H658.72V663.04ZM661.304 644.28H663.944V638.96H669.384V644.28H672.064V647.04H669.384V663.04H663.944V647.04H661.304V644.28ZM677.408 660.28H682.608V657.72H679.968V655.04H677.288V652.4H674.608V646.96H677.288V644.28H688.048V649.72H685.288V647.04H680.048V649.6H682.728V652.28H685.408V654.96H688.048V660.4H685.408V663.04H674.608V657.6H677.408V660.28ZM690.64 644.28H693.28V638.96H698.72V644.28H701.4V647.04H698.72V663.04H693.28V647.04H690.64V644.28ZM703.944 646.96H706.624V644.28H717.384V646.96H720.064V660.4H717.384V663.04H706.624V660.4H703.944V646.96ZM709.384 647.04V660.28H714.624V647.04H709.384ZM725.272 646.96H727.952V644.28H738.712V646.96H741.392V660.4H738.712V663.04H727.952V660.4H725.272V646.96ZM730.712 647.04V660.28H735.952V647.04H730.712ZM743.96 644.28H746.6V638.96H752.04V644.28H754.72V647.04H752.04V663.04H746.6V647.04H743.96V644.28ZM778.712 646.96H781.392V660.4H778.712V663.04H770.712V668.4H765.272V644.28H778.712V646.96ZM770.712 647.04V660.28H775.952V647.04H770.712ZM802.72 657.6V660.4H800.04V663.04H789.28V660.4H786.6V646.96H789.28V644.28H800.04V646.96H802.72V652.4H800.04V655.04H792.04V660.28H799.96V657.6H802.72ZM792.04 647.04V652.28H797.28V647.04H792.04ZM813.368 646.96H815.928V644.28H818.728V649.72H813.368V663.04H807.928V644.28H813.368V646.96ZM834.696 641.72H829.256V638.96H834.696V641.72ZM829.256 663.28V644.28H834.696V665.72H832.056V668.4H826.616V665.6H829.256V663.28ZM839.92 652.28H842.6V649.6H850.6V647.04H842.6V644.28H853.36V646.96H856.04V663.04H842.6V660.4H839.92V652.28ZM845.36 652.4V660.28H850.6V652.4H845.36ZM861.248 652.28H863.928V649.6H871.928V647.04H863.928V644.28H874.688V646.96H877.368V663.04H863.928V660.4H861.248V652.28ZM866.688 652.4V660.28H871.928V652.4H866.688ZM888.017 646.96H890.577V644.28H893.377V649.72H888.017V663.04H882.577V644.28H888.017V646.96ZM901.337 657.72H895.897V636.28H901.337V657.72ZM901.337 663.04H895.897V660.28H901.337V663.04Z" fill="black"/>
<defs>
<filter id="filter0_d_220_3234" x="12.0283" y="12.0146" width="1106.95" height="806.969" filterUnits="userSpaceOnUse" color-interpolation-filters="sRGB">
<feFlood flood-opacity="0" result="BackgroundImageFix"/>
<feColorMatrix in="SourceAlpha" type="matrix" values="0 0 0 0 0 0 0 0 0 0 0 0 0 0 0 0 0 0 127 0" result="hardAlpha"/>
<feOffset dy="4"/>
<feGaussianBlur stdDeviation="2"/>
<feComposite in2="hardAlpha" operator="out"/>
<feColorMatrix type="matrix" values="0 0 0 0 0 0 0 0 0 0 0 0 0 0 0 0 0 0 0.25 0"/>
<feBlend mode="normal" in2="BackgroundImageFix" result="effect1_dropShadow_220_3234"/>
<feBlend mode="normal" in="SourceGraphic" in2="effect1_dropShadow_220_3234" result="shape"/>
</filter>
</defs>
</svg>
