<svg width="1125" height="825" viewBox="0 0 1125 825" fill="none" xmlns="http://www.w3.org/2000/svg">
<rect width="1125" height="825" fill="#322F2B"/>
<rect width="1114.98" height="810.983" fill="#D9D9D9"/>
<g filter="url(#filter0_d_220_3278)">
<rect x="16.0286" y="12.0146" width="1098.95" height="798.968" fill="#AFAFAF"/>
</g>
<rect x="40.0713" y="28.0342" width="1051.87" height="100.121" fill="#545454"/>
<rect x="1004.79" y="40.0488" width="68.1211" height="68.0825" fill="#E1E1E1"/>
<path d="M1008.79 44.0537H1072.91V108.131H1008.79V44.0537Z" fill="#322F2B"/>
<rect width="59.1051" height="60.0728" transform="translate(1008.79 44.0537)" fill="#AFAFAF"/>
<rect x="1015.79" y="51.0537" width="15.6129" height="15.3333" fill="#545454"/>
<rect x="1029.99" y="66.387" width="15.6129" height="15.3333" fill="#545454"/>
<rect x="1015.79" y="81.7205" width="15.6129" height="15.3333" fill="#545454"/>
<rect x="1044.18" y="51.0537" width="15.6129" height="15.3333" fill="#545454"/>
<rect x="1044.18" y="81.7205" width="15.6129" height="15.3333" fill="#545454"/>
<rect x="11.0195" y="213.259" width="19.0338" height="59.0716" fill="#D9D9D9"/>
<rect x="1098.95" y="314.381" width="19.0338" height="59.0716" fill="#322F2B"/>
<rect x="1103.96" y="642.779" width="19.0338" height="59.0716" fill="#322F2B"/>
<rect x="1098.95" y="534.648" width="19.0338" height="59.0716" fill="#322F2B"/>
<rect x="1103.96" y="363.44" width="19.0338" height="59.0716" fill="#322F2B"/>
<rect x="1108.97" y="701.851" width="12.0214" height="59.0716" fill="#322F2B"/>
<rect x="1103.96" y="262.318" width="19.0338" height="59.0716" fill="#322F2B"/>
<rect x="839.492" y="137.166" width="19.0231" height="59.1051" transform="rotate(-90 839.492 137.166)" fill="#545454"/>
<rect x="780.387" y="141.171" width="19.0231" height="59.1051" transform="rotate(-90 780.387 141.171)" fill="#545454"/>
<rect x="628.117" y="42.0508" width="19.0231" height="59.1051" transform="rotate(-90 628.117 42.0508)" fill="#545454"/>
<rect x="673.197" y="37.0449" width="19.0231" height="59.1051" transform="rotate(-90 673.197 37.0449)" fill="#545454"/>
<rect x="205.365" y="137.166" width="19.0231" height="59.1051" transform="rotate(-90 205.365 137.166)" fill="#545454"/>
<rect x="7.01245" y="466.565" width="19.0338" height="59.0716" fill="#D9D9D9"/>
<rect x="7.01245" y="740.898" width="19.0338" height="59.0716" fill="#D9D9D9"/>
<rect x="2.00366" y="496.602" width="19.0338" height="59.0716" fill="#D9D9D9"/>
<rect x="2.00366" y="158.191" width="19.0338" height="59.0716" fill="#D9D9D9"/>
<rect x="2.00366" y="266.323" width="19.0338" height="59.0716" fill="#D9D9D9"/>
<path d="M384.208 189.96H389.448V179.28H394.888V206.04H389.448V192.72H384.208V206.04H378.768V179.28H384.208V189.96ZM416.216 200.6V203.4H413.536V206.04H402.776V203.4H400.096V189.96H402.776V187.28H413.536V189.96H416.216V195.4H413.536V198.04H405.536V203.28H413.456V200.6H416.216ZM405.536 190.04V195.28H410.776V190.04H405.536ZM418.784 187.28H421.424V181.96H426.864V187.28H429.544V190.04H426.864V206.04H421.424V190.04H418.784V187.28ZM440.096 189.96H442.776V187.28H450.776V179.28H456.216V206.04H442.776V203.4H440.096V189.96ZM445.536 190.04V203.28H450.776V190.04H445.536ZM461.424 189.96H464.104V187.28H474.864V189.96H477.544V203.4H474.864V206.04H464.104V203.4H461.424V189.96ZM466.864 190.04V203.28H472.104V190.04H466.864ZM498.872 200.6V203.4H496.192V206.04H485.432V203.4H482.752V189.96H485.432V187.28H496.192V189.96H498.872V195.4H496.192V198.04H488.192V203.28H496.112V200.6H498.872ZM488.192 190.04V195.28H493.432V190.04H488.192ZM509.52 206.04H504.08V179.28H509.52V206.04ZM528.192 184.72H522.752V181.96H528.192V184.72ZM528.192 206.04H522.752V187.28H528.192V206.04ZM536.216 203.28H541.416V200.72H538.776V198.04H536.096V195.4H533.416V189.96H536.096V187.28H546.856V192.72H544.096V190.04H538.856V192.6H541.536V195.28H544.216V197.96H546.856V203.4H544.216V206.04H533.416V200.6H536.216V203.28ZM560.096 189.96H562.776V187.28H570.776V179.28H576.216V206.04H562.776V203.4H560.096V189.96ZM565.536 190.04V203.28H570.776V190.04H565.536ZM581.424 195.28H584.104V192.6H592.104V190.04H584.104V187.28H594.864V189.96H597.544V206.04H584.104V203.4H581.424V195.28ZM586.864 195.4V203.28H592.104V195.4H586.864ZM600.112 187.28H602.752V181.96H608.192V187.28H610.872V190.04H608.192V206.04H602.752V190.04H600.112V187.28ZM626.864 184.72H621.424V181.96H626.864V184.72ZM626.864 206.04H621.424V187.28H626.864V206.04ZM645.528 187.28V189.96H648.208V206.04H642.768V190.04H640.208V192.72H637.528V206.04H632.088V187.28H637.528V189.96H640.088V187.28H645.528ZM369.471 238.28H372.151V235.6H380.151V233.04H372.151V230.28H382.911V232.96H385.591V249.04H372.151V246.4H369.471V238.28ZM374.911 238.4V246.28H380.151V238.4H374.911ZM396.239 249.04H390.799V222.28H396.239V249.04ZM406.903 249.04H401.463V222.28H406.903V249.04ZM428.247 243.6V246.4H425.567V249.04H414.807V246.4H412.127V232.96H414.807V230.28H425.567V232.96H428.247V238.4H425.567V241.04H417.567V246.28H425.487V243.6H428.247ZM417.567 233.04V238.28H422.807V233.04H417.567ZM454.903 230.28V232.96H457.583V249.04H452.143V233.04H449.583V235.72H446.903V249.04H441.463V230.28H446.903V232.96H449.463V230.28H454.903ZM468.231 227.72H462.791V224.96H468.231V227.72ZM468.231 249.04H462.791V230.28H468.231V249.04ZM489.575 243.6V246.4H486.895V249.04H476.135V246.4H473.455V232.96H476.135V230.28H486.895V232.96H489.575V238.4H486.895V241.04H478.895V246.28H486.815V243.6H489.575ZM478.895 233.04V238.28H484.135V233.04H478.895ZM494.784 230.28H500.224V246.28H505.464V230.28H510.904V246.4H508.224V249.04H497.464V246.4H494.784V230.28ZM542.912 230.28V238.4H540.232V243.72H537.552V249.04H532.112V243.72H526.912V249.04H521.472V243.72H518.792V238.4H516.112V230.28H521.552V238.28H524.232V243.6H526.792V240.96H529.472V238.4H526.792V230.28H532.232V238.28H534.912V243.6H537.472V230.28H542.912ZM564.224 243.6V246.4H561.544V249.04H550.784V246.4H548.104V232.96H550.784V230.28H561.544V232.96H564.224V238.4H561.544V241.04H553.544V246.28H561.464V243.6H564.224ZM553.544 233.04V238.28H558.784V233.04H553.544ZM577.44 238.28H580.12V235.6H588.12V233.04H580.12V230.28H590.88V232.96H593.56V249.04H580.12V246.4H577.44V238.28ZM582.88 238.4V246.28H588.12V238.4H582.88ZM598.768 230.28H604.208V246.28H609.448V230.28H614.888V246.4H612.208V249.04H601.448V246.4H598.768V230.28ZM617.456 230.28H620.096V224.96H625.536V230.28H628.216V233.04H625.536V249.04H620.096V233.04H617.456V230.28ZM630.76 232.96H633.44V230.28H644.2V232.96H646.88V246.4H644.2V249.04H633.44V246.4H630.76V232.96ZM636.2 233.04V246.28H641.44V233.04H636.2ZM652.088 225.04V222.28H657.528V227.72H654.888V230.4H652.088V227.6H654.768V225.04H652.088ZM662.857 246.28H668.057V243.72H665.417V241.04H662.737V238.4H660.057V232.96H662.737V230.28H673.497V235.72H670.737V233.04H665.497V235.6H668.177V238.28H670.857V240.96H673.497V246.4H670.857V249.04H660.057V243.6H662.857V246.28ZM702.857 243.6V246.4H700.177V249.04H689.417V246.4H686.737V232.96H689.417V230.28H700.177V232.96H702.857V238.4H700.177V241.04H692.177V246.28H700.097V243.6H702.857ZM692.177 233.04V238.28H697.417V233.04H692.177ZM724.185 243.6V246.4H721.505V249.04H710.745V246.4H708.065V232.96H710.745V230.28H721.505V232.96H724.185V238.4H721.505V241.04H713.505V246.28H721.425V243.6H724.185ZM713.505 233.04V238.28H718.745V233.04H713.505ZM742.833 230.28V232.96H745.513V249.04H740.073V233.04H737.513V235.72H734.833V249.04H729.393V230.28H734.833V232.96H737.393V230.28H742.833ZM674.853 278.72V292.04H669.413V265.28H674.853V275.96H677.413V273.28H682.853V275.96H685.533V292.04H680.093V276.04H677.533V278.72H674.853ZM706.861 286.6V289.4H704.181V292.04H693.421V289.4H690.741V275.96H693.421V273.28H704.181V275.96H706.861V281.4H704.181V284.04H696.181V289.28H704.101V286.6H706.861ZM696.181 276.04V281.28H701.421V276.04H696.181ZM717.509 273.28H725.509V275.96H728.189V289.4H725.509V292.04H712.069V265.28H717.509V273.28ZM717.509 276.04V289.28H722.749V276.04H717.509ZM738.837 273.28H746.837V275.96H749.517V289.4H746.837V292.04H733.397V265.28H738.837V273.28ZM738.837 276.04V289.28H744.077V276.04H738.837ZM770.845 286.6V289.4H768.165V292.04H757.405V289.4H754.725V275.96H757.405V273.28H768.165V275.96H770.845V281.4H768.165V284.04H760.165V289.28H768.085V286.6H770.845ZM760.165 276.04V281.28H765.405V276.04H760.165ZM789.493 273.28V275.96H792.173V292.04H786.733V276.04H784.173V278.72H781.493V292.04H776.053V273.28H781.493V275.96H784.053V273.28H789.493ZM821.509 273.28V281.4H818.829V286.72H816.189V292.04H810.749V286.72H808.069V281.4H805.389V273.28H810.829V281.28H813.509V286.6H816.069V273.28H821.509ZM826.717 281.28H829.397V278.6H837.397V276.04H829.397V273.28H840.157V275.96H842.837V292.04H829.397V289.4H826.717V281.28ZM832.157 281.4V289.28H837.397V281.4H832.157ZM861.485 273.28V275.96H864.165V292.04H858.725V276.04H856.165V278.72H853.485V292.04H848.045V273.28H853.485V275.96H856.045V273.28H861.485Z" fill="black"/>
<path d="M661.424 187.4V181.96H664.104V179.28H672.224V181.96H674.864V192.72H672.224V195.4H669.544V198.04H666.864V203.28H669.504H674.864V206.04H661.424V197.96H664.104V195.28H666.784V192.6H669.424V182.04H664.224V187.4H661.424ZM680.096 181.96H682.776V179.28H693.536V181.96H696.216V203.4H693.536V206.04H682.776V203.4H680.096V181.96ZM685.536 182.04V203.28H690.776V182.04H685.536ZM701.424 184.72V181.96H704.104V179.28H712.224V181.96H714.864V190.04H712.224V192.6H714.864V203.4H712.224V206.04H701.424V203.28H709.424V192.72H704.104V189.96H709.424V182.04H704.224V184.72H701.424ZM720.096 181.96H722.776V179.28H733.536V181.96H736.216V203.4H733.536V206.04H722.776V203.4H720.096V181.96ZM725.536 182.04V203.28H730.776V182.04H725.536ZM274.947 273.28V281.4H272.267V286.72H269.627V292.04H264.187V286.72H261.507V281.4H258.827V273.28H264.267V281.28H266.947V286.6H269.507V273.28H274.947ZM296.275 286.6V289.4H293.595V292.04H282.835V289.4H280.155V275.96H282.835V273.28H293.595V275.96H296.275V281.4H293.595V284.04H285.595V289.28H293.515V286.6H296.275ZM285.595 276.04V281.28H290.835V276.04H285.595ZM306.923 275.96H309.483V273.28H312.283V278.72H306.923V292.04H301.483V273.28H306.923V275.96ZM338.923 273.28V275.96H341.603V292.04H336.163V276.04H333.603V278.72H330.923V292.04H325.483V276.04H322.923V278.72H320.243V292.04H314.803V273.28H320.243V275.96H322.803V273.28H328.243V275.96H333.483V273.28H338.923ZM352.235 270.72H346.795V267.96H352.235V270.72ZM352.235 292.04H346.795V273.28H352.235V292.04ZM370.899 273.28V275.96H373.579V292.04H368.139V276.04H365.579V278.72H362.899V292.04H357.459V273.28H362.899V275.96H365.459V273.28H370.899ZM378.788 275.96H381.467V273.28H389.468V265.28H394.908V292.04H381.467V289.4H378.788V275.96ZM384.228 276.04V289.28H389.468V276.04H384.228ZM416.236 286.6V289.4H413.556V292.04H402.796V289.4H400.116V275.96H402.796V273.28H413.556V275.96H416.236V281.4H413.556V284.04H405.556V289.28H413.476V286.6H416.236ZM405.556 276.04V281.28H410.796V276.04H405.556ZM426.884 275.96H429.444V273.28H432.244V278.72H426.884V292.04H421.444V273.28H426.884V275.96ZM440.204 270.72H434.764V267.96H440.204V270.72ZM440.204 292.04H434.764V273.28H440.204V292.04ZM458.868 273.28V275.96H461.548V292.04H456.108V276.04H453.548V278.72H450.868V292.04H445.428V273.28H450.868V275.96H453.428V273.28H458.868ZM477.436 292.04H469.436V289.4H466.756V275.96H469.436V273.28H485.556V276.04H482.876V294.72H480.196V297.4H469.436V294.6H477.436V292.04ZM472.196 276.04V289.28H477.436V276.04H472.196ZM501.532 270.72H496.092V267.96H501.532V270.72ZM501.532 292.04H496.092V273.28H501.532V292.04ZM520.196 273.28V275.96H522.876V292.04H517.436V276.04H514.876V278.72H512.196V292.04H506.756V273.28H512.196V275.96H514.756V273.28H520.196ZM536.092 273.28H541.532V289.28H546.772V273.28H552.212V289.4H549.532V292.04H538.772V289.4H536.092V273.28ZM562.86 270.72H557.42V267.96H562.86V270.72ZM562.86 292.04H557.42V273.28H562.86V292.04ZM565.444 273.28H568.084V267.96H573.524V273.28H576.204V276.04H573.524V292.04H568.084V276.04H565.444V273.28ZM581.548 289.28H586.748V286.72H584.108V284.04H581.428V281.4H578.748V275.96H581.428V273.28H592.188V278.72H589.428V276.04H584.188V278.6H586.868V281.28H589.548V283.96H592.188V289.4H589.548V292.04H578.748V286.6H581.548V289.28ZM594.78 273.28H597.42V267.96H602.86V273.28H605.54V276.04H602.86V292.04H597.42V276.04H594.78V273.28ZM608.084 275.96H610.764V273.28H621.524V275.96H624.204V289.4H621.524V292.04H610.764V289.4H608.084V275.96ZM613.524 276.04V289.28H618.764V276.04H613.524ZM629.413 275.96H632.092V273.28H642.853V275.96H645.533V289.4H642.853V292.04H632.092V289.4H629.413V275.96ZM634.853 276.04V289.28H640.093V276.04H634.853ZM648.101 273.28H650.741V267.96H656.181V273.28H658.861V276.04H656.181V292.04H650.741V276.04H648.101V273.28Z" fill="#D9D9D9"/>
<path d="M338.388 591.04H330.388V598.96H335.748V601.72H330.388V612.28H338.388V615.04H324.948V588.28H338.388V591.04ZM354.403 596.28V598.96H357.083V615.04H351.643V599.04H349.083V601.72H346.403V615.04H340.963V596.28H346.403V598.96H348.963V596.28H354.403ZM370.299 598.96H372.979V596.28H380.979V588.28H386.419V615.04H372.979V612.4H370.299V598.96ZM375.739 599.04V612.28H380.979V599.04H375.739ZM391.627 604.28H394.307V601.6H402.307V599.04H394.307V596.28H405.067V598.96H407.747V615.04H394.307V612.4H391.627V604.28ZM397.067 604.4V612.28H402.307V604.4H397.067ZM410.315 596.28H412.955V590.96H418.395V596.28H421.075V599.04H418.395V615.04H412.955V599.04H410.315V596.28ZM437.067 593.72H431.627V590.96H437.067V593.72ZM437.067 615.04H431.627V596.28H437.067V615.04ZM455.731 596.28V598.96H458.411V615.04H452.971V599.04H450.411V601.72H447.731V615.04H442.291V596.28H447.731V598.96H450.291V596.28H455.731ZM578.427 596.28V598.96H581.107V615.04H575.667V599.04H573.107V601.72H570.427V615.04H564.987V596.28H570.427V598.96H572.987V596.28H578.427ZM591.755 593.72H586.315V590.96H591.755V593.72ZM591.755 615.04H586.315V596.28H591.755V615.04ZM613.099 609.6V612.4H610.419V615.04H599.659V612.4H596.979V598.96H599.659V596.28H610.419V598.96H613.099V604.4H610.419V607.04H602.419V612.28H610.339V609.6H613.099ZM602.419 599.04V604.28H607.659V599.04H602.419ZM618.307 596.28H623.747V612.28H628.987V596.28H634.427V612.4H631.747V615.04H620.987V612.4H618.307V596.28ZM666.435 596.28V604.4H663.755V609.72H661.075V615.04H655.635V609.72H650.435V615.04H644.995V609.72H642.315V604.4H639.635V596.28H645.075V604.28H647.755V609.6H650.315V606.96H652.995V604.4H650.315V596.28H655.755V604.28H658.435V609.6H660.995V596.28H666.435ZM687.747 609.6V612.4H685.067V615.04H674.307V612.4H671.627V598.96H674.307V596.28H685.067V598.96H687.747V604.4H685.067V607.04H677.067V612.28H684.987V609.6H687.747ZM677.067 599.04V604.28H682.307V599.04H677.067ZM700.963 604.28H703.643V601.6H711.643V599.04H703.643V596.28H714.403V598.96H717.083V615.04H703.643V612.4H700.963V604.28ZM706.403 604.4V612.28H711.643V604.4H706.403ZM722.291 596.28H727.731V612.28H732.971V596.28H738.411V612.4H735.731V615.04H724.971V612.4H722.291V596.28ZM740.98 596.28H743.62V590.96H749.06V596.28H751.74V599.04H749.06V615.04H743.62V599.04H740.98V596.28ZM754.284 598.96H756.964V596.28H767.724V598.96H770.404V612.4H767.724V615.04H756.964V612.4H754.284V598.96ZM759.724 599.04V612.28H764.964V599.04H759.724ZM775.612 591.04V588.28H781.052V593.72H778.412V596.4H775.612V593.6H778.292V591.04H775.612ZM786.38 612.28H791.58V609.72H788.94V607.04H786.26V604.4H783.58V598.96H786.26V596.28H797.02V601.72H794.26V599.04H789.02V601.6H791.7V604.28H794.38V606.96H797.02V612.4H794.38V615.04H783.58V609.6H786.38V612.28ZM543.755 639.28V641.96H546.435V658.04H540.995V642.04H538.435V644.72H535.755V658.04H530.315V642.04H527.755V644.72H525.075V658.04H519.635V639.28H525.075V641.96H527.635V639.28H533.075V641.96H538.315V639.28H543.755ZM567.747 652.6V655.4H565.067V658.04H554.307V655.4H551.627V641.96H554.307V639.28H565.067V641.96H567.747V647.4H565.067V650.04H557.067V655.28H564.987V652.6H567.747ZM557.067 642.04V647.28H562.307V642.04H557.067ZM589.075 652.6V655.4H586.395V658.04H575.635V655.4H572.955V641.96H575.635V639.28H586.395V641.96H589.075V647.4H586.395V650.04H578.395V655.28H586.315V652.6H589.075ZM578.395 642.04V647.28H583.635V642.04H578.395ZM599.724 641.96H602.284V639.28H605.084V644.72H599.724V658.04H594.284V639.28H599.724V641.96ZM615.612 639.28H621.052V655.28H626.292V639.28H631.732V655.4H629.052V658.04H618.292V655.4H615.612V639.28ZM642.38 636.72H636.94V633.96H642.38V636.72ZM642.38 658.04H636.94V639.28H642.38V658.04ZM644.964 639.28H647.604V633.96H653.044V639.28H655.724V642.04H653.044V658.04H647.604V642.04H644.964V639.28ZM661.068 655.28H666.268V652.72H663.628V650.04H660.948V647.4H658.268V641.96H660.948V639.28H671.708V644.72H668.948V642.04H663.708V644.6H666.388V647.28H669.068V649.96H671.708V655.4H669.068V658.04H658.268V652.6H661.068V655.28ZM674.3 639.28H676.94V633.96H682.38V639.28H685.06V642.04H682.38V658.04H676.94V642.04H674.3V639.28ZM687.604 641.96H690.284V639.28H701.044V641.96H703.724V655.4H701.044V658.04H690.284V655.4H687.604V641.96ZM693.044 642.04V655.28H698.284V642.04H693.044ZM706.292 639.28H708.932V633.96H714.372V639.28H717.052V642.04H714.372V658.04H708.932V642.04H706.292V639.28ZM735.716 652.6V655.4H733.036V658.04H722.276V655.4H719.596V641.96H722.276V639.28H733.036V641.96H735.716V647.4H733.036V650.04H725.036V655.28H732.956V652.6H735.716ZM725.036 642.04V647.28H730.276V642.04H725.036ZM754.364 639.28V641.96H757.044V658.04H751.604V642.04H749.044V644.72H746.364V658.04H740.924V639.28H746.364V641.96H748.924V639.28H754.364ZM767.692 658.04H762.252V652.6H767.692V658.04Z" fill="black"/>
<path d="M479.635 596.4V590.96H482.315V588.28H490.435V590.96H493.075V601.72H490.435V604.4H487.755V607.04H485.075V612.28H487.715H493.075V615.04H479.635V606.96H482.315V604.28H484.995V601.6H487.635V591.04H482.435V596.4H479.635ZM498.307 590.96H500.987V588.28H511.747V590.96H514.427V612.4H511.747V615.04H500.987V612.4H498.307V590.96ZM503.747 591.04V612.28H508.987V591.04H503.747ZM519.635 593.72V590.96H522.315V588.28H530.435V590.96H533.075V599.04H530.435V601.6H533.075V612.4H530.435V615.04H519.635V612.28H527.635V601.72H522.315V598.96H527.635V591.04H522.435V593.72H519.635ZM546.307 601.72H538.307V588.28H551.747V591.04H543.747V598.96H549.107V601.6H551.747V612.4H549.107V615.04H538.307V612.28H546.307V601.72ZM364.964 658.04H356.964V655.4H354.284V641.96H356.964V639.28H373.084V642.04H370.404V660.72H367.724V663.4H356.964V660.6H364.964V658.04ZM359.724 642.04V655.28H364.964V642.04H359.724ZM391.732 652.6V655.4H389.052V658.04H378.292V655.4H375.612V641.96H378.292V639.28H389.052V641.96H391.732V647.4H389.052V650.04H381.052V655.28H388.972V652.6H391.732ZM381.052 642.04V647.28H386.292V642.04H381.052ZM413.06 652.6V655.4H410.38V658.04H399.62V655.4H396.94V641.96H399.62V639.28H410.38V641.96H413.06V647.4H410.38V650.04H402.38V655.28H410.3V652.6H413.06ZM402.38 642.04V647.28H407.62V642.04H402.38ZM431.708 639.28V641.96H434.388V658.04H428.948V642.04H426.388V644.72H423.708V658.04H418.268V639.28H423.708V641.96H426.268V639.28H431.708ZM450.284 658.04V655.4H447.604V633.96H450.284V631.28H461.044V636.72H458.284V634.04H453.044V655.28H458.284V652.6H461.044V655.4H458.404V658.04H450.284ZM463.62 633.96H466.3V631.28H477.06V633.96H479.74V655.4H477.06V658.04H466.3V655.4H463.62V633.96ZM469.06 634.04V655.28H474.3V634.04H469.06ZM484.948 639.4V633.96H487.628V631.28H495.748V633.96H498.388V644.72H495.748V647.4H493.068V650.04H490.388V655.28H493.028H498.388V658.04H484.948V649.96H487.628V647.28H490.308V644.6H492.948V634.04H487.748V639.4H484.948Z" fill="#D9D9D9"/>
<path d="M516.05 415.56H482.05V358.44H539.17V370.17H505.17V403.83H527.95V415.05H539.17V460.95H527.95V472.17H482.05V460.44H516.05V415.56ZM595.405 415.56H561.405V358.44H618.525V370.17H584.525V403.83H607.305V415.05H618.525V460.95H607.305V472.17H561.405V460.44H595.405V415.56Z" fill="#020202"/>
<path d="M508.056 492.96H510.736V506.4H508.056V509.04H500.056V514.4H494.616V490.28H508.056V492.96ZM500.056 493.04V506.28H505.296V493.04H500.056ZM521.384 492.96H523.944V490.28H526.744V495.72H521.384V509.04H515.944V490.28H521.384V492.96ZM529.264 492.96H531.944V490.28H542.704V492.96H545.384V506.4H542.704V509.04H531.944V506.4H529.264V492.96ZM534.704 493.04V506.28H539.944V493.04H534.704ZM553.272 509.04V506.4H550.592V492.96H553.272V490.28H564.032V495.72H561.272V493.04H556.032V506.28H561.272V503.6H564.032V506.4H561.392V509.04H553.272ZM585.384 503.6V506.4H582.704V509.04H571.944V506.4H569.264V492.96H571.944V490.28H582.704V492.96H585.384V498.4H582.704V501.04H574.704V506.28H582.624V503.6H585.384ZM574.704 493.04V498.28H579.944V493.04H574.704ZM604.032 490.28V492.96H606.712V509.04H601.272V493.04H598.712V495.72H596.032V509.04H590.592V490.28H596.032V492.96H598.592V490.28H604.032ZM609.28 490.28H611.92V484.96H617.36V490.28H620.04V493.04H617.36V509.04H611.92V493.04H609.28V490.28Z" fill="#020202"/>
<rect x="683.867" y="375" width="50.1438" height="57.0602" fill="#474747"/>
<rect x="666" y="430.331" width="87.0312" height="25.3601" fill="#474747"/>
<rect x="672.34" y="454.539" width="74.3512" height="6.91639" fill="#474747"/>
<rect x="678.68" y="461.455" width="61.0948" height="5.76366" fill="#474747"/>
<rect x="683.867" y="466.066" width="50.1429" height="8.06897" fill="#474747"/>
<rect x="691.36" y="471.253" width="35.1576" height="8.64532" fill="#474747"/>
<rect x="696.547" y="477.593" width="24.2069" height="8.64532" fill="#474747"/>
<rect x="703.464" y="483.357" width="11.5271" height="8.64532" fill="#474747"/>
<rect x="366.867" y="375" width="50.1438" height="57.0602" fill="#474747"/>
<rect x="349" y="430.331" width="87.0312" height="25.3601" fill="#474747"/>
<rect x="355.34" y="454.539" width="74.3512" height="6.91639" fill="#474747"/>
<rect x="361.68" y="461.455" width="61.0948" height="5.76366" fill="#474747"/>
<rect x="366.867" y="466.066" width="50.1429" height="8.06897" fill="#474747"/>
<rect x="374.36" y="471.253" width="35.1576" height="8.64532" fill="#474747"/>
<rect x="379.547" y="477.593" width="24.2069" height="8.64532" fill="#474747"/>
<rect x="386.464" y="483.357" width="11.5271" height="8.64532" fill="#474747"/>
<defs>
<filter id="filter0_d_220_3278" x="12.0286" y="12.0146" width="1106.95" height="806.969" filterUnits="userSpaceOnUse" color-interpolation-filters="sRGB">
<feFlood flood-opacity="0" result="BackgroundImageFix"/>
<feColorMatrix in="SourceAlpha" type="matrix" values="0 0 0 0 0 0 0 0 0 0 0 0 0 0 0 0 0 0 127 0" result="hardAlpha"/>
<feOffset dy="4"/>
<feGaussianBlur stdDeviation="2"/>
<feComposite in2="hardAlpha" operator="out"/>
<feColorMatrix type="matrix" values="0 0 0 0 0 0 0 0 0 0 0 0 0 0 0 0 0 0 0.25 0"/>
<feBlend mode="normal" in2="BackgroundImageFix" result="effect1_dropShadow_220_3278"/>
<feBlend mode="normal" in="SourceGraphic" in2="effect1_dropShadow_220_3278" result="shape"/>
</filter>
</defs>
</svg>
