<svg width="676" height="152" viewBox="0 0 676 152" fill="none" xmlns="http://www.w3.org/2000/svg">
<rect x="18" y="12" width="640" height="128" fill="#D4E8AC"/>
<rect x="34" width="605" height="12" fill="#0B7529"/>
<rect x="34" y="140" width="605" height="12" fill="#0B7529"/>
<rect y="130" width="107" height="18" transform="rotate(-90 0 130)" fill="#0B7529"/>
<rect x="658" y="129" width="107" height="18" transform="rotate(-90 658 129)" fill="#0B7529"/>
<rect x="639" y="129" width="19" height="11" fill="#52A469"/>
<rect x="639" y="12" width="19" height="11" fill="#52A469"/>
<rect x="18" y="12" width="19" height="11" fill="#52A469"/>
<rect x="18" y="129" width="19" height="11" fill="#52A469"/>
<path d="M117.75 59.6V69.75H114.4V83.05H111.05V93.05H104.25V83.05H97.75V93.05H90.95V83.05H87.6V69.75H84.25V59.6H91.05V69.6H94.4V82.95H97.6V79.6H100.95V69.75H97.6V59.6H104.4V69.6H107.75V82.95H110.95V59.6H117.75ZM124.24 62.95H127.59V59.6H141.04V62.95H144.39V89.75H141.04V93.05H127.59V89.75H124.24V62.95ZM131.04 63.05V89.6H137.59V63.05H131.04ZM167.7 62.95H171.05V76.4H167.7V79.6H171.05V93.05H164.25V79.75H157.7V93.05H150.9V59.6H167.7V62.95ZM157.7 63.05V76.25H164.25V63.05H157.7ZM194.361 62.95H197.711V89.75H194.361V93.05H177.561V59.6H194.361V62.95ZM184.361 63.05V89.6H190.911V63.05H184.361ZM200.921 59.6H221.021V63.05H214.371V93.05H207.571V63.05H200.921V59.6ZM237.75 89.6H244.25V79.75H237.6V76.4H234.25V62.95H237.6V59.6H251.05V66.4H247.6V63.05H241.05V72.95H247.75V76.25H251.05V89.75H247.75V93.05H234.25V86.25H237.75V89.6ZM254.29 59.6H274.39V63.05H267.74V93.05H260.94V63.05H254.29V59.6ZM277.59 69.6H280.94V59.6H287.74V69.6H291.04V79.6H294.39V93.05H287.59V83.05H277.74V93.05H274.24V79.6H277.59V69.6ZM281.04 69.75V79.6H284.24V69.75H281.04ZM317.7 62.95H321.05V89.75H317.7V93.05H300.9V59.6H317.7V62.95ZM307.7 63.05V89.6H314.25V63.05H307.7ZM331.061 89.6H337.561V79.75H330.911V76.4H327.561V62.95H330.911V59.6H344.361V66.4H340.911V63.05H334.361V72.95H341.061V76.25H344.361V89.75H341.061V93.05H327.561V86.25H331.061V89.6ZM371.05 59.6V69.75H367.7V83.05H364.4V93.05H357.6V83.05H354.25V69.75H350.9V59.6H357.7V69.6H361.05V82.95H364.25V59.6H371.05ZM394.361 63.05H384.361V72.95H391.061V76.4H384.361V89.6H394.361V93.05H377.561V59.6H394.361V63.05ZM414.38 62.95H417.73V76.4H414.38V79.6H417.73V93.05H410.93V79.75H404.38V93.05H397.58V59.6H414.38V62.95ZM404.38 63.05V76.25H410.93V63.05H404.38ZM427.59 93.05V89.75H424.24V62.95H427.59V59.6H444.39V66.4H440.94V63.05H431.04V89.6H437.59V79.75H434.24V76.25H444.39V93.05H440.94V89.75H437.74V93.05H427.59ZM467.7 62.95H471.05V76.4H467.7V79.6H471.05V93.05H464.25V79.75H457.7V93.05H450.9V59.6H467.7V62.95ZM457.7 63.05V76.25H464.25V63.05H457.7ZM477.561 62.95H480.911V59.6H494.361V62.95H497.711V89.75H494.361V93.05H480.911V89.75H477.561V62.95ZM484.361 63.05V89.6H490.911V63.05H484.361ZM521.021 63.05H511.021V72.95H517.721V76.4H511.021V89.6H521.021V93.05H504.221V59.6H521.021V63.05ZM531.04 66.25H534.39V72.95H537.74V79.6H540.94V59.6H544.39V93.05H537.59V86.4H534.24V79.75H530.94V73.05H527.74V93.05H524.24V59.6H531.04V66.25ZM567.7 63.05H557.7V72.95H564.4V76.4H557.7V89.6H567.7V93.05H550.9V59.6H567.7V63.05ZM587.72 62.95H591.07V76.4H587.72V79.6H591.07V93.05H584.27V79.75H577.72V93.05H570.92V59.6H587.72V62.95ZM577.72 63.05V76.25H584.27V63.05H577.72Z" fill="#00402C"/>
</svg>
