<svg width="738" height="510" viewBox="0 0 738 510" fill="none" xmlns="http://www.w3.org/2000/svg">
<g clip-path="url(#clip0_242_1461)">
<path d="M722.043 265.815H0.169067V485.735H722.043V265.815Z" fill="#AFAFB0"/>
<path d="M699.181 451.112H45.678V505.54H699.181V451.112Z" fill="#AFAFB0"/>
<path d="M414.804 247.73H53.6213V274.709H414.804V247.73Z" fill="#AFAFB0"/>
<path d="M668.206 254.289H564.113V277.215H668.206V254.289Z" fill="#AFAFB0"/>
<path d="M14.596 265.815H0V347.485H14.596V265.815Z" fill="black"/>
<path d="M46.0005 265.815H5.07019V274.709H46.0005V265.815Z" fill="black"/>
<path d="M61.2419 247.549H45.9852V265.815H61.2419V247.549Z" fill="black"/>
<path d="M184.202 247.549H51.547V256.687H184.202V247.549Z" fill="black"/>
<path d="M245.751 247.549H199.797V256.687H245.751V247.549Z" fill="black"/>
<path d="M414.804 247.549H261.161V256.687H414.804V247.549Z" fill="black"/>
<path d="M568.431 256.687H414.804V265.689H568.431V256.687Z" fill="black"/>
<path d="M676.288 247.73H552.975V256.686H676.288V247.73Z" fill="black"/>
<path d="M706.633 256.687H660.663V265.689H706.633V256.687Z" fill="black"/>
<path d="M722.028 265.688H706.633V319.981H722.028V265.688Z" fill="black"/>
<path d="M737.453 311.06H722.043V473.739H737.453V311.06Z" fill="black"/>
<path d="M722.043 464.737H706.74V491.743H722.043V464.737Z" fill="black"/>
<path d="M706.74 482.686H691.622V509.91H706.74V482.686Z" fill="black"/>
<path d="M706.74 501.07H45.6779V510H706.74V501.07Z" fill="black"/>
<path d="M61.4262 491.915H30.7899V501.07H61.4262V491.915Z" fill="black"/>
<path d="M45.6933 483.021H0.169067V491.915H45.6933V483.021Z" fill="black"/>
<path d="M14.9034 392.413H0.169067V485.744H14.9034V392.413Z" fill="black"/>
<path d="M14.9034 374.219H0.169067V382.895H14.9034V374.219Z" fill="black"/>
<path d="M15.8405 356.134H0V365.461H15.8405V356.134Z" fill="black"/>
</g>
<rect x="104.156" y="213.557" width="126.893" height="36.28" fill="#AFAFB0"/>
<rect x="90.0273" y="213.125" width="14.6826" height="36.6525" fill="black"/>
<rect x="228.844" y="213.125" width="13.3479" height="36.6525" fill="black"/>
<rect x="103.375" y="213.253" width="10.0349" height="132.094" transform="rotate(-90 103.375 213.253)" fill="black"/>
<path d="M158.285 226.178H160.295V242.258H158.285V244.238H148.205V224.168H158.285V226.178ZM152.285 226.238V242.168H156.215V226.238H152.285ZM170.291 236.258H164.201V234.158H170.291V236.258ZM178.272 228.158V232.238H176.292V236.168H180.192V224.168H184.272V236.168H186.282V238.238H184.272V244.238H180.192V238.238H174.192V232.178H176.202V228.158H178.272Z" fill="black"/>
<defs>
<clipPath id="clip0_242_1461">
<rect width="737.438" height="262.451" fill="white" transform="translate(0 247.549)"/>
</clipPath>
</defs>
</svg>
