<svg width="580" height="370" viewBox="0 0 580 370" fill="none" xmlns="http://www.w3.org/2000/svg">
<rect width="580" height="370" fill="#F26F91"/>
<rect width="568.981" height="357.07" fill="#FBD4E0"/>
<rect x="11.0195" y="7.95703" width="557.962" height="349.113" fill="#FFA7C1"/>
<rect x="24.043" y="17.9033" width="530.915" height="93.4946" fill="#FF93B3"/>
<rect x="484.836" y="35.8064" width="53.0915" height="58.6828" fill="#FBD4E0"/>
<rect x="488.844" y="40.7795" width="49.0846" height="53.7097" fill="#F26F91"/>
<rect width="42.0725" height="47.7419" transform="translate(488.844 40.7795)" fill="#FFA7C1"/>
<rect x="494.844" y="49.7795" width="11" height="10" fill="#F26F91"/>
<rect x="504.844" y="59.7795" width="11" height="10" fill="#F26F91"/>
<rect x="494.844" y="69.7795" width="11" height="10" fill="#F26F91"/>
<rect x="514.844" y="49.7795" width="11" height="10" fill="#F26F91"/>
<rect x="514.844" y="69.7795" width="11" height="10" fill="#F26F91"/>
<path d="M148.576 183.056H152.506V175.046H156.586V195.116H152.506V185.126H148.576V195.116H144.496V175.046H148.576V183.056ZM172.582 191.036V193.136H170.572V195.116H162.502V193.136H160.492V183.056H162.502V181.046H170.572V183.056H172.582V187.136H170.572V189.116H164.572V193.046H170.512V191.036H172.582ZM164.572 183.116V187.046H168.502V183.116H164.572ZM174.508 181.046H176.488V177.056H180.568V181.046H182.578V183.116H180.568V195.116H176.488V183.116H174.508V181.046ZM210.592 181.046V187.136H208.582V191.126H206.572V195.116H202.492V191.126H198.592V195.116H194.512V191.126H192.502V187.136H190.492V181.046H194.572V187.046H196.582V191.036H198.502V189.056H200.512V187.136H198.502V181.046H202.582V187.046H204.592V191.036H206.512V181.046H210.592ZM214.486 187.046H216.496V185.036H222.496V183.116H216.496V181.046H224.566V183.056H226.576V195.116H216.496V193.136H214.486V187.046ZM218.566 187.136V193.046H222.496V187.136H218.566ZM230.482 187.046H232.492V185.036H238.492V183.116H232.492V181.046H240.562V183.056H242.572V195.116H232.492V193.136H230.482V187.046ZM234.562 187.136V193.046H238.492V187.136H234.562ZM250.558 183.056H252.478V181.046H254.578V185.126H250.558V195.116H246.478V181.046H250.558V183.056ZM260.548 181.046H266.548V183.056H268.558V193.136H266.548V195.116H256.468V175.046H260.548V181.046ZM260.548 183.116V193.046H264.478V183.116H260.548ZM272.465 183.056H274.475V181.046H282.545V183.056H284.555V193.136H282.545V195.116H274.475V193.136H272.465V183.056ZM276.545 183.116V193.046H280.475V183.116H276.545ZM292.541 183.056H294.461V181.046H296.561V185.126H292.541V195.116H288.461V181.046H292.541V183.056ZM306.461 195.116H300.461V193.136H298.451V183.056H300.461V181.046H312.551V183.116H310.541V197.126H308.531V199.136H300.461V197.036H306.461V195.116ZM302.531 183.116V193.046H306.461V183.116H302.531ZM326.537 191.036V193.136H324.527V195.116H316.457V193.136H314.447V183.056H316.457V181.046H324.527V183.056H326.537V187.136H324.527V189.116H318.527V193.046H324.467V191.036H326.537ZM318.527 183.116V187.046H322.457V183.116H318.527ZM340.523 181.046V183.056H342.533V195.116H338.453V183.116H336.533V185.126H334.523V195.116H330.443V181.046H334.523V183.056H336.443V181.046H340.523ZM364.535 181.046V187.136H362.525V191.126H360.545V195.116H356.465V191.126H354.455V187.136H352.445V181.046H356.525V187.046H358.535V191.036H360.455V181.046H364.535ZM368.441 187.046H370.451V185.036H376.451V183.116H370.451V181.046H378.521V183.056H380.531V195.116H370.451V193.136H368.441V187.046ZM372.521 187.136V193.046H376.451V187.136H372.521ZM394.517 181.046V183.056H396.527V195.116H392.447V183.116H390.527V185.126H388.517V195.116H384.437V181.046H388.517V183.056H390.437V181.046H394.517ZM418.529 191.036V193.136H416.519V195.116H408.449V193.136H406.439V183.056H408.449V181.046H416.519V183.056H418.529V187.136H416.519V189.116H410.519V193.046H416.459V191.036H418.529ZM410.519 183.116V187.046H414.449V183.116H410.519ZM434.525 191.036V193.136H432.515V195.116H424.445V193.136H422.435V183.056H424.445V181.046H432.515V183.056H434.525V187.136H432.515V189.116H426.515V193.046H432.455V191.036H434.525ZM426.515 183.116V187.046H430.445V183.116H426.515ZM448.511 181.046V183.056H450.521V195.116H446.441V183.116H444.521V185.126H442.511V195.116H438.431V181.046H442.511V183.056H444.431V181.046H448.511ZM159.577 215.056H161.497V213.046H163.597V217.126H159.577V227.116H155.497V213.046H159.577V215.056ZM177.577 223.036V225.136H175.567V227.116H167.497V225.136H165.487V215.056H167.497V213.046H175.567V215.056H177.577V219.136H175.567V221.116H169.567V225.046H175.507V223.036H177.577ZM169.567 215.116V219.046H173.497V215.116H169.567ZM183.493 227.116V225.136H181.483V215.056H183.493V213.046H191.563V217.126H189.493V215.116H185.563V225.046H189.493V223.036H191.563V225.136H189.583V227.116H183.493ZM199.567 217.126V227.116H195.487V207.046H199.567V215.056H201.487V213.046H205.567V215.056H207.577V227.116H203.497V215.116H201.577V217.126H199.567ZM209.503 213.046H211.483V209.056H215.563V213.046H217.573V215.116H215.563V227.116H211.483V215.116H209.503V213.046ZM231.571 213.046V219.136H229.561V223.126H227.581V227.116H223.501V223.126H221.491V219.136H219.481V213.046H223.561V219.046H225.571V223.036H227.491V213.046H231.571ZM235.477 219.046H237.487V217.036H243.487V215.116H237.487V213.046H245.557V215.056H247.567V227.116H237.487V225.136H235.477V219.046ZM239.557 219.136V225.046H243.487V219.136H239.557ZM251.473 219.046H253.483V217.036H259.483V215.116H253.483V213.046H261.553V215.056H263.563V227.116H253.483V225.136H251.473V219.046ZM255.553 219.136V225.046H259.483V219.136H255.553ZM271.549 215.056H273.469V213.046H275.569V217.126H271.549V227.116H267.469V213.046H271.549V215.056ZM277.46 215.056H279.47V213.046H285.47V207.046H289.55V227.116H279.47V225.136H277.46V215.056ZM281.54 215.116V225.046H285.47V215.116H281.54ZM297.536 211.126H293.456V209.056H297.536V211.126ZM297.536 227.116H293.456V213.046H297.536V227.116ZM309.464 227.116H303.464V225.136H301.454V215.056H303.464V213.046H315.554V215.116H313.544V229.126H311.534V231.136H303.464V229.036H309.464V227.116ZM305.534 215.116V225.046H309.464V215.116H305.534ZM329.54 223.036V225.136H327.53V227.116H319.46V225.136H317.45V215.056H319.46V213.046H327.53V215.056H329.54V219.136H327.53V221.116H321.53V225.046H327.47V223.036H329.54ZM321.53 215.116V219.046H325.46V215.116H321.53ZM337.472 213.046H339.452V209.056H343.532V213.046H345.542V215.116H343.532V227.116H339.452V215.116H337.472V213.046ZM351.53 215.056H353.45V213.046H355.55V217.126H351.53V227.116H347.45V213.046H351.53V215.056ZM357.44 219.046H359.45V217.036H365.45V215.116H359.45V213.046H367.52V215.056H369.53V227.116H359.45V225.136H357.44V219.046ZM361.52 219.136V225.046H365.45V219.136H361.52ZM383.516 213.046V215.056H385.526V227.116H381.446V215.116H379.526V217.126H377.516V227.116H373.436V213.046H377.516V215.056H379.436V213.046H383.516ZM391.532 225.046H395.432V223.126H393.452V221.116H391.442V219.136H389.432V215.056H391.442V213.046H399.512V217.126H397.442V215.116H393.512V217.036H395.522V219.046H397.532V221.056H399.512V225.136H397.532V227.116H389.432V223.036H391.532V225.046ZM407.516 211.126H403.436V209.056H407.516V211.126ZM407.516 227.116H403.436V213.046H407.516V227.116ZM409.454 213.046H411.434V209.056H415.514V213.046H417.524V215.116H415.514V227.116H411.434V215.116H409.454V213.046ZM423.512 211.126H419.432V209.056H423.512V211.126ZM423.512 227.116H419.432V213.046H423.512V227.116ZM439.52 223.036V225.136H437.51V227.116H429.44V225.136H427.43V215.056H429.44V213.046H437.51V215.056H439.52V219.136H437.51V221.116H431.51V225.046H437.45V223.036H439.52ZM431.51 215.116V219.046H435.44V215.116H431.51ZM190.585 245.046V251.136H188.575V255.126H186.595V259.116H182.515V255.126H180.505V251.136H178.495V245.046H182.575V251.046H184.585V255.036H186.505V245.046H190.585ZM194.491 247.056H196.501V245.046H204.571V247.056H206.581V257.136H204.571V259.116H196.501V257.136H194.491V247.056ZM198.571 247.116V257.046H202.501V247.116H198.571ZM210.487 247.056H212.497V245.046H220.567V247.056H222.577V257.136H220.567V259.116H212.497V257.136H210.487V247.056ZM214.567 247.116V257.046H218.497V247.116H214.567ZM230.563 247.056H232.483V245.046H234.583V249.126H230.563V259.116H226.483V245.046H230.563V247.056ZM242.479 251.046H244.489V249.036H250.489V247.116H244.489V245.046H252.559V247.056H254.569V259.116H244.489V257.136H242.479V251.046ZM246.559 251.136V257.046H250.489V251.136H246.559ZM262.555 259.116H258.475V239.046H262.555V259.116ZM270.553 259.116H266.473V239.046H270.553V259.116ZM286.561 255.036V257.136H284.551V259.116H276.481V257.136H274.471V247.056H276.481V245.046H284.551V247.056H286.561V251.136H284.551V253.116H278.551V257.046H284.491V255.036H286.561ZM278.551 247.116V251.046H282.481V247.116H278.551ZM300.553 247.056H302.473V245.046H304.573V249.126H300.553V259.116H296.473V245.046H300.553V247.056ZM318.554 255.036V257.136H316.544V259.116H308.474V257.136H306.464V247.056H308.474V245.046H316.544V247.056H318.554V251.136H316.544V253.116H310.544V257.046H316.484V255.036H318.554ZM310.544 247.116V251.046H314.474V247.116H310.544ZM330.47 259.116H324.47V257.136H322.46V247.056H324.47V245.046H336.56V247.116H334.55V261.126H332.54V263.136H324.47V261.036H330.47V259.116ZM326.54 247.116V257.046H330.47V247.116H326.54ZM342.536 243.126H338.456V241.056H342.536V243.126ZM342.536 259.116H338.456V245.046H342.536V259.116ZM346.454 247.056H348.464V245.046H356.534V247.056H358.544V257.136H356.534V259.116H348.464V257.136H346.454V247.056ZM350.534 247.116V257.046H354.464V247.116H350.534ZM362.45 241.116V239.046H366.53V243.126H364.55V245.136H362.45V243.036H364.46V241.116H362.45ZM370.526 257.046H374.426V255.126H372.446V253.116H370.436V251.136H368.426V247.056H370.436V245.046H378.506V249.126H376.436V247.116H372.506V249.036H374.516V251.046H376.526V253.056H378.506V257.136H376.526V259.116H368.426V255.036H370.526V257.046ZM400.526 255.036V257.136H398.516V259.116H390.446V257.136H388.436V247.056H390.446V245.046H398.516V247.056H400.526V251.136H398.516V253.116H392.516V257.046H398.456V255.036H400.526ZM392.516 247.116V251.046H396.446V247.116H392.516ZM414.512 245.046V247.056H416.522V259.116H412.442V247.116H410.522V249.126H408.512V259.116H404.432V245.046H408.512V247.056H410.432V245.046H414.512ZM189.493 291.116H183.493V289.136H181.483V279.056H183.493V277.046H195.583V279.116H193.573V293.126H191.563V295.136H183.493V293.036H189.493V291.116ZM185.563 279.116V289.046H189.493V279.116H185.563ZM209.569 287.036V289.136H207.559V291.116H199.489V289.136H197.479V279.056H199.489V277.046H207.559V279.056H209.569V283.136H207.559V285.116H201.559V289.046H207.499V287.036H209.569ZM201.559 279.116V283.046H205.489V279.116H201.559ZM231.565 277.046V279.056H233.575V291.116H229.495V279.116H227.575V281.126H225.565V291.116H221.485V279.116H219.565V281.126H217.555V291.116H213.475V277.046H217.555V279.056H219.475V277.046H223.555V279.056H227.485V277.046H231.565ZM249.559 287.036V289.136H247.549V291.116H239.479V289.136H237.469V279.056H239.479V277.046H247.549V279.056H249.559V283.136H247.549V285.116H241.549V289.046H247.489V287.036H249.559ZM241.549 279.116V283.046H245.479V279.116H241.549ZM265.555 287.036V289.136H263.545V291.116H255.475V289.136H253.465V279.056H255.475V277.046H263.545V279.056H265.555V283.136H263.545V285.116H257.545V289.046H263.485V287.036H265.555ZM257.545 279.116V283.046H261.475V279.116H257.545ZM279.542 277.046V279.056H281.552V291.116H277.472V279.116H275.552V281.126H273.542V291.116H269.462V277.046H273.542V279.056H275.462V277.046H279.542ZM287.558 289.046H291.458V287.126H289.478V285.116H287.468V283.136H285.458V279.056H287.468V277.046H295.538V281.126H293.468V279.116H289.538V281.036H291.548V283.046H293.558V285.056H295.538V289.136H293.558V291.116H285.458V287.036H287.558V289.046ZM301.472 291.116V289.136H299.462V279.056H301.472V277.046H309.542V281.126H307.472V279.116H303.542V289.046H307.472V287.036H309.542V289.136H307.562V291.116H301.472ZM317.545 281.126V291.116H313.465V271.046H317.545V279.056H319.465V277.046H323.545V279.056H325.555V291.116H321.475V279.116H319.555V281.126H317.545ZM329.462 283.046H331.472V281.036H337.472V279.116H331.472V277.046H339.542V279.056H341.552V291.116H331.472V289.136H329.462V283.046ZM333.542 283.136V289.046H337.472V283.136H333.542ZM355.538 279.056H357.548V289.136H355.538V291.116H349.538V295.136H345.458V277.046H355.538V279.056ZM349.538 279.116V289.046H353.468V279.116H349.538ZM371.534 279.056H373.544V289.136H371.534V291.116H365.534V295.136H361.454V277.046H371.534V279.056ZM365.534 279.116V289.046H369.464V279.116H365.534ZM389.54 287.036V289.136H387.53V291.116H379.46V289.136H377.45V279.056H379.46V277.046H387.53V279.056H389.54V283.136H387.53V285.116H381.53V289.046H387.47V287.036H389.54ZM381.53 279.116V283.046H385.46V279.116H381.53ZM403.526 277.046V279.056H405.536V291.116H401.456V279.116H399.536V281.126H397.526V291.116H393.446V277.046H397.526V279.056H399.446V277.046H403.526ZM413.522 291.116H409.442V287.036H413.522V291.116Z" fill="#AF556C"/>
</svg>
