<svg width="580" height="370" viewBox="0 0 580 370" fill="none" xmlns="http://www.w3.org/2000/svg">
<rect width="580" height="370" fill="#8BAB64"/>
<rect width="568.981" height="357.07" fill="#DDF3C4"/>
<rect x="11.0195" y="7.957" width="557.962" height="349.113" fill="#C5DAAD"/>
<rect x="24.043" y="17.9032" width="530.915" height="93.4946" fill="#ABD37C"/>
<rect x="484.836" y="35.8064" width="53.0915" height="58.6828" fill="#DDF3C4"/>
<rect x="488.844" y="40.7795" width="49.0846" height="53.7097" fill="#8BAB64"/>
<rect width="42.0725" height="47.7419" transform="translate(488.844 40.7795)" fill="#C5DAAD"/>
<rect x="494.844" y="49.7795" width="11" height="10" fill="#8BAB64"/>
<rect x="504.844" y="59.7795" width="11" height="10" fill="#8BAB64"/>
<rect x="494.844" y="69.7795" width="11" height="10" fill="#8BAB64"/>
<rect x="514.844" y="49.7795" width="11" height="10" fill="#8BAB64"/>
<rect x="514.844" y="69.7795" width="11" height="10" fill="#8BAB64"/>
<path d="M162.05 173.97H165.98V165.96H170.06V186.03H165.98V176.04H162.05V186.03H157.97V165.96H162.05V173.97ZM186.056 181.95V184.05H184.046V186.03H175.976V184.05H173.966V173.97H175.976V171.96H184.046V173.97H186.056V178.05H184.046V180.03H178.046V183.96H183.986V181.95H186.056ZM178.046 174.03V177.96H181.976V174.03H178.046ZM187.982 171.96H189.962V167.97H194.042V171.96H196.052V174.03H194.042V186.03H189.962V174.03H187.982V171.96ZM206.066 183.96H209.966V182.04H207.986V180.03H205.976V178.05H203.966V173.97H205.976V171.96H214.046V176.04H211.976V174.03H208.046V175.95H210.056V177.96H212.066V179.97H214.046V184.05H212.066V186.03H203.966V181.95H206.066V183.96ZM215.99 171.96H217.97V167.97H222.05V171.96H224.06V174.03H222.05V186.03H217.97V174.03H215.99V171.96ZM230.048 170.04H225.968V167.97H230.048V170.04ZM230.048 186.03H225.968V171.96H230.048V186.03ZM252.056 171.96V173.97H254.066V186.03H249.986V174.03H248.066V176.04H246.056V186.03H241.976V174.03H240.056V176.04H238.046V186.03H233.966V171.96H238.046V173.97H239.966V171.96H244.046V173.97H247.976V171.96H252.056ZM257.96 171.96H262.04V183.96H265.97V171.96H270.05V184.05H268.04V186.03H259.97V184.05H257.96V171.96ZM278.036 186.03H273.956V165.96H278.036V186.03ZM294.044 181.95V184.05H292.034V186.03H283.964V184.05H281.954V173.97H283.964V171.96H292.034V173.97H294.044V178.05H292.034V180.03H286.034V183.96H291.974V181.95H294.044ZM286.034 174.03V177.96H289.964V174.03H286.034ZM302.03 173.97H303.95V171.96H306.05V176.04H302.03V186.03H297.95V171.96H302.03V173.97ZM320.03 181.95V184.05H318.02V186.03H309.95V184.05H307.94V173.97H309.95V171.96H318.02V173.97H320.03V178.05H318.02V180.03H312.02V183.96H317.96V181.95H320.03ZM312.02 174.03V177.96H315.95V174.03H312.02ZM334.016 171.96V173.97H336.026V186.03H331.946V174.03H330.026V176.04H328.016V186.03H323.936V171.96H328.016V173.97H329.936V171.96H334.016ZM358.028 171.96V178.05H356.018V182.04H354.038V186.03H349.958V182.04H347.948V178.05H345.938V171.96H350.018V177.96H352.028V181.95H353.948V171.96H358.028ZM361.934 177.96H363.944V175.95H369.944V174.03H363.944V171.96H372.014V173.97H374.024V186.03H363.944V184.05H361.934V177.96ZM366.014 178.05V183.96H369.944V178.05H366.014ZM388.01 171.96V173.97H390.02V186.03H385.94V174.03H384.02V176.04H382.01V186.03H377.93V171.96H382.01V173.97H383.93V171.96H388.01ZM399.932 173.97H401.942V171.96H407.942V165.96H412.022V186.03H401.942V184.05H399.932V173.97ZM404.012 174.03V183.96H407.942V174.03H404.012ZM428.019 181.95V184.05H426.009V186.03H417.939V184.05H415.929V173.97H417.939V171.96H426.009V173.97H428.019V178.05H426.009V180.03H420.009V183.96H425.949V181.95H428.019ZM420.009 174.03V177.96H423.939V174.03H420.009ZM173.983 218.03V216.05H171.973V205.97H173.983V203.96H182.053V208.04H179.983V206.03H176.053V215.96H179.983V213.95H182.053V216.05H180.073V218.03H173.983ZM190.057 202.04H185.977V199.97H190.057V202.04ZM190.057 218.03H185.977V203.96H190.057V218.03ZM198.055 205.97H199.975V203.96H202.075V208.04H198.055V218.03H193.975V203.96H198.055V205.97ZM205.976 218.03V216.05H203.966V205.97H205.976V203.96H214.046V208.04H211.976V206.03H208.046V215.96H211.976V213.95H214.046V216.05H212.066V218.03H205.976ZM217.97 203.96H222.05V215.96H225.98V203.96H230.06V216.05H228.05V218.03H219.98V216.05H217.97V203.96ZM238.046 218.03H233.966V197.96H238.046V218.03ZM241.964 209.96H243.974V207.95H249.974V206.03H243.974V203.96H252.044V205.97H254.054V218.03H243.974V216.05H241.964V209.96ZM246.044 210.05V215.96H249.974V210.05H246.044ZM262.04 202.04H257.96V199.97H262.04V202.04ZM262.04 218.03H257.96V203.96H262.04V218.03ZM270.038 205.97H271.958V203.96H274.058V208.04H270.038V218.03H265.958V203.96H270.038V205.97ZM288.038 213.95V216.05H286.028V218.03H277.958V216.05H275.948V205.97H277.958V203.96H286.028V205.97H288.038V210.05H286.028V212.03H280.028V215.96H285.968V213.95H288.038ZM280.028 206.03V209.96H283.958V206.03H280.028ZM310.04 213.95V216.05H308.03V218.03H299.96V216.05H297.95V205.97H299.96V203.96H308.03V205.97H310.04V210.05H308.03V212.03H302.03V215.96H307.97V213.95H310.04ZM302.03 206.03V209.96H305.96V206.03H302.03ZM315.956 218.03V216.05H313.946V205.97H315.956V203.96H324.026V208.04H321.956V206.03H318.026V215.96H321.956V213.95H324.026V216.05H322.046V218.03H315.956ZM327.95 205.97H329.96V203.96H338.03V205.97H340.04V216.05H338.03V218.03H329.96V216.05H327.95V205.97ZM332.03 206.03V215.96H335.96V206.03H332.03ZM354.026 203.96V205.97H356.036V218.03H351.956V206.03H350.036V208.04H348.026V218.03H343.946V203.96H348.026V205.97H349.946V203.96H354.026ZM359.942 205.97H361.952V203.96H370.022V205.97H372.032V216.05H370.022V218.03H361.952V216.05H359.942V205.97ZM364.022 206.03V215.96H367.952V206.03H364.022ZM394.028 203.96V205.97H396.038V218.03H391.958V206.03H390.038V208.04H388.028V218.03H383.948V206.03H382.028V208.04H380.018V218.03H375.938V203.96H380.018V205.97H381.938V203.96H386.018V205.97H389.948V203.96H394.028ZM404.012 202.04H399.932V199.97H404.012V202.04ZM404.012 218.03H399.932V203.96H404.012V218.03ZM420.02 213.95V216.05H418.01V218.03H409.94V216.05H407.93V205.97H409.94V203.96H418.01V205.97H420.02V210.05H418.01V212.03H412.01V215.96H417.95V213.95H420.02ZM412.01 206.03V209.96H415.94V206.03H412.01ZM191.969 237.97H193.979V235.96H199.979V229.96H204.059V250.03H193.979V248.05H191.969V237.97ZM196.049 238.03V247.96H199.979V238.03H196.049ZM207.965 237.97H209.975V235.96H218.045V237.97H220.055V248.05H218.045V250.03H209.975V248.05H207.965V237.97ZM212.045 238.03V247.96H215.975V238.03H212.045ZM223.961 237.97H225.971V235.96H234.041V237.97H236.051V248.05H234.041V250.03H225.971V248.05H223.961V237.97ZM228.041 238.03V247.96H231.971V238.03H228.041ZM244.037 237.97H245.957V235.96H248.057V240.04H244.037V250.03H239.957V235.96H244.037V237.97ZM260.033 240.04V250.03H255.953V229.96H260.033V237.97H261.953V235.96H266.033V237.97H268.043V250.03H263.963V238.03H262.043V240.04H260.033ZM284.039 245.95V248.05H282.029V250.03H273.959V248.05H271.949V237.97H273.959V235.96H282.029V237.97H284.039V242.05H282.029V244.03H276.029V247.96H281.969V245.95H284.039ZM276.029 238.03V241.96H279.959V238.03H276.029ZM285.965 235.96H287.945V231.97H292.025V235.96H294.035V238.03H292.025V250.03H287.945V238.03H285.965V235.96ZM301.949 241.96H303.959V239.95H309.959V238.03H303.959V235.96H312.029V237.97H314.039V250.03H303.959V248.05H301.949V241.96ZM306.029 242.05V247.96H309.959V242.05H306.029ZM315.965 235.96H317.945V231.97H319.955V229.96H326.045V232.03H322.025V235.96H326.045V238.03H322.025V250.03H317.945V238.03H315.965V235.96ZM340.025 235.96V242.05H338.015V246.04H336.035V250.03H331.955V246.04H329.945V242.05H327.935V235.96H332.015V241.96H334.025V245.95H335.945V235.96H340.025ZM343.931 241.96H345.941V239.95H351.941V238.03H345.941V235.96H354.011V237.97H356.021V250.03H345.941V248.05H343.931V241.96ZM348.011 242.05V247.96H351.941V242.05H348.011ZM364.008 250.03H359.928V229.96H364.008V250.03ZM371.951 235.96H373.931V231.97H378.011V235.96H380.021V238.03H378.011V250.03H373.931V238.03H371.951V235.96ZM394.019 245.95V248.05H392.009V250.03H383.939V248.05H381.929V237.97H383.939V235.96H392.009V237.97H394.019V242.05H392.009V244.03H386.009V247.96H391.949V245.95H394.019ZM386.009 238.03V241.96H389.939V238.03H386.009ZM224.062 267.96V269.97H226.072V282.03H221.992V270.03H220.072V272.04H218.062V282.03H213.982V270.03H212.062V272.04H210.052V282.03H205.972V267.96H210.052V269.97H211.972V267.96H216.052V269.97H219.982V267.96H224.062ZM234.047 266.04H229.967V263.97H234.047V266.04ZM234.047 282.03H229.967V267.96H234.047V282.03ZM248.045 267.96V269.97H250.055V282.03H245.975V270.03H244.055V272.04H242.045V282.03H237.965V267.96H242.045V269.97H243.965V267.96H248.045ZM258.041 266.04H253.961V263.97H258.041V266.04ZM258.041 282.03H253.961V267.96H258.041V282.03ZM280.049 267.96V269.97H282.059V282.03H277.979V270.03H276.059V272.04H274.049V282.03H269.969V270.03H268.049V272.04H266.039V282.03H261.959V267.96H266.039V269.97H267.959V267.96H272.039V269.97H275.969V267.96H280.049ZM285.953 273.96H287.963V271.95H293.963V270.03H287.963V267.96H296.033V269.97H298.043V282.03H287.963V280.05H285.953V273.96ZM290.033 274.05V279.96H293.963V274.05H290.033ZM306.029 282.03H301.949V261.96H306.029V282.03ZM314.027 266.04H309.947V263.97H314.027V266.04ZM314.027 282.03H309.947V267.96H314.027V282.03ZM320.045 279.96H323.945V278.04H321.965V276.03H319.955V274.05H317.945V269.97H319.955V267.96H328.025V272.04H325.955V270.03H322.025V271.95H324.035V273.96H326.045V275.97H328.025V280.05H326.045V282.03H317.945V277.95H320.045V279.96ZM344.039 277.95V280.05H342.029V282.03H333.959V280.05H331.949V269.97H333.959V267.96H342.029V269.97H344.039V274.05H342.029V276.03H336.029V279.96H341.969V277.95H344.039ZM336.029 270.03V273.96H339.959V270.03H336.029ZM352.025 269.97H353.945V267.96H356.045V272.04H352.025V282.03H347.945V267.96H352.025V269.97ZM370.025 277.95V280.05H368.015V282.03H359.945V280.05H357.935V269.97H359.945V267.96H368.015V269.97H370.025V274.05H368.015V276.03H362.015V279.96H367.955V277.95H370.025ZM362.015 270.03V273.96H365.945V270.03H362.015ZM384.011 267.96V269.97H386.021V282.03H381.941V270.03H380.021V272.04H378.011V282.03H373.931V267.96H378.011V269.97H379.931V267.96H384.011Z" fill="#64764E"/>
</svg>
