<svg width="600" height="380" viewBox="0 0 600 380" fill="none" xmlns="http://www.w3.org/2000/svg">
<rect width="600" height="380" fill="#FCC560"/>
<rect width="588.601" height="366.72" fill="#F4EBBC"/>
<rect x="11.5586" y="8.17114" width="578.201" height="358.548" fill="#FFF8C8"/>
<rect x="25.0547" y="18.3865" width="550.173" height="96.0215" fill="#FFD17E"/>
<rect x="502.559" y="36.7735" width="55.0173" height="60.2688" fill="#F4EBBC"/>
<rect x="506.711" y="41.8812" width="50.8651" height="55.1613" fill="#FCC560"/>
<rect width="43.5986" height="49.0323" transform="translate(506.711 41.8812)" fill="#FFF8C8"/>
<rect x="510.426" y="48.6429" width="11" height="10" fill="#FCC560"/>
<rect x="520.426" y="58.6429" width="11" height="10" fill="#FCC560"/>
<rect x="510.426" y="68.6429" width="11" height="10" fill="#FCC560"/>
<rect x="530.426" y="48.6429" width="11" height="10" fill="#FCC560"/>
<rect x="530.426" y="68.6429" width="11" height="10" fill="#FCC560"/>
<path d="M219.043 165.105H221.053V181.185H219.043V183.165H208.963V163.095H219.043V165.105ZM213.043 165.165V181.095H216.973V165.165H213.043ZM237.049 179.085V181.185H235.039V183.165H226.969V181.185H224.959V171.105H226.969V169.095H235.039V171.105H237.049V175.185H235.039V177.165H229.039V181.095H234.979V179.085H237.049ZM229.039 171.165V175.095H232.969V171.165H229.039ZM246.961 169.095H251.041V181.095H254.971V169.095H259.051V181.185H257.041V183.165H248.971V181.185H246.961V169.095ZM267.037 167.175H262.957V165.105H267.037V167.175ZM267.037 183.165H262.957V169.095H267.037V183.165ZM268.975 169.095H270.955V165.105H275.035V169.095H277.045V171.165H275.035V183.165H270.955V171.165H268.975V169.095ZM281.053 181.095H284.953V179.175H282.973V177.165H280.963V175.185H278.953V171.105H280.963V169.095H289.033V173.175H286.963V171.165H283.033V173.085H285.043V175.095H287.053V177.105H289.033V181.185H287.053V183.165H278.953V179.085H281.053V181.095ZM290.977 169.095H292.957V165.105H297.037V169.095H299.047V171.165H297.037V183.165H292.957V171.165H290.977V169.095ZM300.955 171.105H302.965V169.095H311.035V171.105H313.045V181.185H311.035V183.165H302.965V181.185H300.955V171.105ZM305.035 171.165V181.095H308.965V171.165H305.035ZM316.951 171.105H318.961V169.095H327.031V171.105H329.041V181.185H327.031V183.165H318.961V181.185H316.951V171.105ZM321.031 171.165V181.095H324.961V171.165H321.031ZM330.967 169.095H332.947V165.105H337.027V169.095H339.037V171.165H337.027V183.165H332.947V171.165H330.967V169.095ZM359.041 169.095V175.185H357.031V179.175H355.051V183.165H350.971V179.175H348.961V175.185H346.951V169.095H351.031V175.095H353.041V179.085H354.961V169.095H359.041ZM362.947 175.095H364.957V173.085H370.957V171.165H364.957V169.095H373.027V171.105H375.037V183.165H364.957V181.185H362.947V175.095ZM367.027 175.185V181.095H370.957V175.185H367.027ZM389.023 169.095V171.105H391.033V183.165H386.953V171.165H385.033V173.175H383.023V183.165H378.943V169.095H383.023V171.105H384.943V169.095H389.023ZM202.056 201.095H208.056V203.105H210.066V213.185H208.056V215.165H197.976V195.095H202.056V201.095ZM202.056 203.165V213.095H205.986V203.165H202.056ZM218.052 203.105H219.972V201.095H222.072V205.175H218.052V215.165H213.972V201.095H218.052V203.105ZM223.963 203.105H225.973V201.095H234.043V203.105H236.053V213.185H234.043V215.165H225.973V213.185H223.963V203.105ZM228.043 203.165V213.095H231.973V203.165H228.043ZM252.049 211.085V213.185H250.039V215.165H241.969V213.185H239.959V203.105H241.969V201.095H250.039V203.105H252.049V207.185H250.039V209.165H244.039V213.095H249.979V211.085H252.049ZM244.039 203.165V207.095H247.969V203.165H244.039ZM260.035 199.175H255.955V197.105H260.035V199.175ZM260.035 215.165H255.955V201.095H260.035V215.165ZM276.043 201.095V203.165H274.033V205.175H272.053V209.105H274.033V211.085H276.043V215.165H271.963V211.175H269.953V209.165H268.033V215.165H263.953V195.095H268.033V207.095H269.953V205.085H271.963V203.105H273.973V201.095H276.043ZM279.949 207.095H281.959V205.085H287.959V203.165H281.959V201.095H290.029V203.105H292.039V215.165H281.959V213.185H279.949V207.095ZM284.029 207.185V213.095H287.959V207.185H284.029ZM298.045 213.095H301.945V211.175H299.965V209.165H297.955V207.185H295.945V203.105H297.955V201.095H306.025V205.175H303.955V203.165H300.025V205.085H302.035V207.095H304.045V209.105H306.025V213.185H304.045V215.165H295.945V211.085H298.045V213.095ZM317.959 215.165H311.959V213.185H309.949V203.105H311.959V201.095H324.049V203.165H322.039V217.175H320.029V219.185H311.959V217.085H317.959V215.165ZM314.029 203.165V213.095H317.959V203.165H314.029ZM325.945 207.095H327.955V205.085H333.955V203.165H327.955V201.095H336.025V203.105H338.035V215.165H327.955V213.185H325.945V207.095ZM330.025 207.185V213.095H333.955V207.185H330.025ZM344.041 213.095H347.941V211.175H345.961V209.165H343.951V207.185H341.941V203.105H343.951V201.095H352.021V205.175H349.951V203.165H346.021V205.085H348.031V207.095H350.041V209.105H352.021V213.185H350.041V215.165H341.941V211.085H344.041V213.095ZM356.024 213.095H359.924V211.175H357.944V209.165H355.934V207.185H353.924V203.105H355.934V201.095H364.004V205.175H361.934V203.165H358.004V205.085H360.014V207.095H362.024V209.105H364.004V213.185H362.024V215.165H353.924V211.085H356.024V213.095ZM380.018 211.085V213.185H378.008V215.165H369.938V213.185H367.928V203.105H369.938V201.095H378.008V203.105H380.018V207.185H378.008V209.165H372.008V213.095H377.948V211.085H380.018ZM372.008 203.165V207.095H375.938V203.165H372.008ZM394.004 201.095V203.105H396.014V215.165H391.934V203.165H390.014V205.175H388.004V215.165H383.924V201.095H388.004V203.105H389.924V201.095H394.004ZM152.067 233.095V235.105H154.077V247.165H149.997V235.165H148.077V237.175H146.067V247.165H141.987V235.165H140.067V237.175H138.057V247.165H133.977V233.095H138.057V235.105H139.977V233.095H144.057V235.105H147.987V233.095H152.067ZM170.061 243.085V245.185H168.051V247.165H159.981V245.185H157.971V235.105H159.981V233.095H168.051V235.105H170.061V239.185H168.051V241.165H162.051V245.095H167.991V243.085H170.061ZM162.051 235.165V239.095H165.981V235.165H162.051ZM171.988 233.095H173.968V229.105H178.048V233.095H180.058V235.165H178.048V247.165H173.968V235.165H171.988V233.095ZM193.971 237.175H187.971V227.095H198.051V229.165H192.051V235.105H196.071V237.085H198.051V245.185H196.071V247.165H187.971V245.095H193.971V237.175ZM207.975 237.175H201.975V227.095H212.055V229.165H206.055V235.105H210.075V237.085H212.055V245.185H210.075V247.165H201.975V245.095H207.975V237.175ZM227.979 233.095V229.165H224.079V235.165H222.069V237.175H215.979V235.165H213.999V229.105H215.979V227.095H230.079V233.185H228.069V237.175H226.059V241.165H224.079V247.165H221.979V241.105H223.989V237.085H225.999V233.095H227.979ZM227.979 239.095H229.989V237.085H236.079V239.095H238.059V245.185H236.079V247.165H229.989V245.185H227.979V239.095ZM218.079 229.165V235.105H219.999V229.165H218.079ZM232.059 239.185V245.095H233.979V239.185H232.059ZM243.999 233.095H245.979V229.105H250.059V233.095H252.069V235.165H250.059V247.165H245.979V235.165H243.999V233.095ZM266.067 243.085V245.185H264.057V247.165H255.987V245.185H253.977V235.105H255.987V233.095H264.057V235.105H266.067V239.185H264.057V241.165H258.057V245.095H263.997V243.085H266.067ZM258.057 235.165V239.095H261.987V235.165H258.057ZM288.069 233.095V239.185H286.059V243.175H284.079V247.165H279.999V243.175H277.989V239.185H275.979V233.095H280.059V239.095H282.069V243.085H283.989V233.095H288.069ZM304.065 243.085V245.185H302.055V247.165H293.985V245.185H291.975V235.105H293.985V233.095H302.055V235.105H304.065V239.185H302.055V241.165H296.055V245.095H301.995V243.085H304.065ZM296.055 235.165V239.095H299.985V235.165H296.055ZM312.051 235.105H313.971V233.095H316.071V237.175H312.051V247.165H307.971V233.095H312.051V235.105ZM336.052 233.095V235.105H338.062V247.165H333.982V235.165H332.062V237.175H330.052V247.165H325.972V235.165H324.052V237.175H322.042V247.165H317.962V233.095H322.042V235.105H323.962V233.095H328.042V235.105H331.972V233.095H336.052ZM346.036 231.175H341.956V229.105H346.036V231.175ZM346.036 247.165H341.956V233.095H346.036V247.165ZM360.034 233.095V235.105H362.044V247.165H357.964V235.165H356.044V237.175H354.034V247.165H349.954V233.095H354.034V235.105H355.954V233.095H360.034ZM365.95 235.105H367.96V233.095H373.96V227.095H378.04V247.165H367.96V245.185H365.95V235.105ZM370.03 235.165V245.095H373.96V235.165H370.03ZM394.036 243.085V245.185H392.026V247.165H383.956V245.185H381.946V235.105H383.956V233.095H392.026V235.105H394.036V239.185H392.026V241.165H386.026V245.095H391.966V243.085H394.036ZM386.026 235.165V239.095H389.956V235.165H386.026ZM402.022 235.105H403.942V233.095H406.042V237.175H402.022V247.165H397.942V233.095H402.022V235.105ZM420.022 243.085V245.185H418.012V247.165H409.942V245.185H407.932V235.105H409.942V233.095H418.012V235.105H420.022V239.185H418.012V241.165H412.012V245.095H417.952V243.085H420.022ZM412.012 235.165V239.095H415.942V235.165H412.012ZM434.008 233.095V235.105H436.018V247.165H431.938V235.165H430.018V237.175H428.008V247.165H423.928V233.095H428.008V235.105H429.928V233.095H434.008ZM450.01 231.175H445.93V229.105H450.01V231.175ZM450.01 247.165H445.93V233.095H450.01V247.165ZM464.008 233.095V235.105H466.018V247.165H461.938V235.165H460.018V237.175H458.008V247.165H453.928V233.095H458.008V235.105H459.928V233.095H464.008ZM267.952 265.185V261.105H269.962V259.095H276.052V261.105H278.032V269.175H276.052V271.185H274.042V273.165H272.032V277.095H274.012H278.032V279.165H267.952V273.105H269.962V271.095H271.972V269.085H273.952V261.165H270.052V265.185H267.952ZM281.956 261.105H283.966V259.095H292.036V261.105H294.046V277.185H292.036V279.165H283.966V277.185H281.956V261.105ZM286.036 261.165V277.095H289.966V261.165H286.036ZM297.952 263.175V261.105H299.962V259.095H306.052V261.105H308.032V267.165H306.052V269.085H308.032V277.185H306.052V279.165H297.952V277.095H303.952V269.175H299.962V267.105H303.952V261.165H300.052V263.175H297.952ZM311.956 261.105H313.966V259.095H322.036V261.105H324.046V277.185H322.036V279.165H313.966V277.185H311.956V261.105ZM316.036 261.165V277.095H319.966V261.165H316.036ZM332.032 279.165H327.952V275.085H332.032V279.165Z" fill="#A18755"/>
</svg>
