<svg width="580" height="370" viewBox="0 0 580 370" fill="none" xmlns="http://www.w3.org/2000/svg">
<rect width="580" height="370" fill="#8BAB64"/>
<rect width="568.981" height="357.07" fill="#DDF3C4"/>
<rect x="11.0195" y="10.9413" width="557.962" height="349.113" fill="#C5DAAD"/>
<rect x="24.043" y="20.8875" width="530.915" height="93.4946" fill="#ABD37C"/>
<rect x="484.836" y="38.7908" width="53.0915" height="58.6828" fill="#DDF3C4"/>
<rect x="488.844" y="43.7639" width="49.0846" height="53.7097" fill="#8BAB64"/>
<rect width="42.0725" height="47.7419" transform="translate(488.844 43.7639)" fill="#C5DAAD"/>
<rect x="494.844" y="52.7639" width="11" height="10" fill="#8BAB64"/>
<rect x="504.844" y="62.7639" width="11" height="10" fill="#8BAB64"/>
<rect x="494.844" y="72.7639" width="11" height="10" fill="#8BAB64"/>
<rect x="514.844" y="52.7639" width="11" height="10" fill="#8BAB64"/>
<rect x="514.844" y="72.7639" width="11" height="10" fill="#8BAB64"/>
<path d="M152.554 155.174H154.564V171.254H152.554V173.234H142.474V153.164H152.554V155.174ZM146.554 155.234V171.164H150.484V155.234H146.554ZM170.56 169.154V171.254H168.55V173.234H160.48V171.254H158.47V161.174H160.48V159.164H168.55V161.174H170.56V165.254H168.55V167.234H162.55V171.164H168.49V169.154H170.56ZM162.55 161.234V165.164H166.48V161.234H162.55ZM190.552 155.234H184.552V161.174H188.572V163.244H184.552V171.164H190.552V173.234H180.472V153.164H190.552V155.234ZM192.484 159.164H196.564V171.164H200.494V159.164H204.574V171.254H202.564V173.234H194.494V171.254H192.484V159.164ZM212.56 161.174H214.48V159.164H216.58V163.244H212.56V173.234H208.48V159.164H212.56V161.174ZM218.47 161.174H220.48V159.164H228.55V161.174H230.56V171.254H228.55V173.234H220.48V171.254H218.47V161.174ZM222.55 161.234V171.164H226.48V161.234H222.55ZM244.546 161.174H246.556V171.254H244.546V173.234H238.546V177.254H234.466V159.164H244.546V161.174ZM238.546 161.234V171.164H242.476V161.234H238.546ZM262.553 169.154V171.254H260.543V173.234H252.473V171.254H250.463V161.174H252.473V159.164H260.543V161.174H262.553V165.254H260.543V167.234H254.543V171.164H260.483V169.154H262.553ZM254.543 161.234V165.164H258.473V161.234H254.543ZM266.459 165.164H268.469V163.154H274.469V161.234H268.469V159.164H276.539V161.174H278.549V173.234H268.469V171.254H266.459V165.164ZM270.539 165.254V171.164H274.469V165.254H270.539ZM292.535 159.164V161.174H294.545V173.234H290.465V161.234H288.545V163.244H286.535V173.234H282.455V159.164H286.535V161.174H288.455V159.164H292.535ZM306.467 173.234V171.254H304.457V155.174H306.467V153.164H316.547V157.244H314.477V155.234H308.537V171.164H312.467V165.254H310.457V163.154H316.547V173.234H314.477V171.254H312.557V173.234H306.467ZM324.533 161.174H326.453V159.164H328.553V163.244H324.533V173.234H320.453V159.164H324.533V161.174ZM342.533 169.154V171.254H340.523V173.234H332.453V171.254H330.443V161.174H332.453V159.164H340.523V161.174H342.533V165.254H340.523V167.234H334.523V171.164H340.463V169.154H342.533ZM334.523 161.234V165.164H338.453V161.234H334.523ZM358.529 169.154V171.254H356.519V173.234H348.449V171.254H346.439V161.174H348.449V159.164H356.519V161.174H358.529V165.254H356.519V167.234H350.519V171.164H356.459V169.154H358.529ZM350.519 161.234V165.164H354.449V161.234H350.519ZM372.515 159.164V161.174H374.525V173.234H370.445V161.234H368.525V163.244H366.515V173.234H362.435V159.164H366.515V161.174H368.435V159.164H372.515ZM394.517 155.174H396.527V171.254H394.517V173.234H384.437V153.164H394.517V155.174ZM388.517 155.234V171.164H392.447V155.234H388.517ZM412.523 169.154V171.254H410.513V173.234H402.443V171.254H400.433V161.174H402.443V159.164H410.513V161.174H412.523V165.254H410.513V167.234H404.513V171.164H410.453V169.154H412.523ZM404.513 161.234V165.164H408.443V161.234H404.513ZM416.429 165.164H418.439V163.154H424.439V161.234H418.439V159.164H426.509V161.174H428.519V173.234H418.439V171.254H416.429V165.164ZM420.509 165.254V171.164H424.439V165.254H420.509ZM436.505 173.234H432.425V153.164H436.505V173.234ZM74.5426 189.244H70.4626V187.174H74.5426V189.244ZM74.5426 205.234H70.4626V191.164H74.5426V205.234ZM80.5606 203.164H84.4606V201.244H82.4806V199.234H80.4706V197.254H78.4606V193.174H80.4706V191.164H88.5406V195.244H86.4706V193.234H82.5406V195.154H84.5506V197.164H86.5606V199.174H88.5406V203.254H86.5606V205.234H78.4606V201.154H80.5606V203.164ZM110.56 201.154V203.254H108.55V205.234H100.48V203.254H98.4704V193.174H100.48V191.164H108.55V193.174H110.56V197.254H108.55V199.234H102.55V203.164H108.49V201.154H110.56ZM102.55 193.234V197.164H106.48V193.234H102.55ZM126.556 201.154V203.254H124.546V205.234H116.476V203.254H114.466V193.174H116.476V191.164H124.546V193.174H126.556V197.254H124.546V199.234H118.546V203.164H124.486V201.154H126.556ZM118.546 193.234V197.164H122.476V193.234H118.546ZM140.543 191.164V193.174H142.553V205.234H138.473V193.234H136.553V195.244H134.543V205.234H130.463V191.164H134.543V193.174H136.463V191.164H140.543ZM152.465 197.164H154.475V195.154H160.475V193.234H154.475V191.164H162.545V193.174H164.555V205.234H154.475V203.254H152.465V197.164ZM156.545 197.254V203.164H160.475V197.254H156.545ZM170.471 205.234V203.254H168.461V193.174H170.471V191.164H178.541V195.244H176.471V193.234H172.541V203.164H176.471V201.154H178.541V203.254H176.561V205.234H170.471ZM180.485 191.164H182.465V187.174H186.545V191.164H188.555V193.234H186.545V205.234H182.465V193.234H180.485V191.164ZM194.543 189.244H190.463V187.174H194.543V189.244ZM194.543 205.234H190.463V191.164H194.543V205.234ZM210.551 201.154V203.254H208.541V205.234H200.471V203.254H198.461V193.174H200.471V191.164H208.541V193.174H210.551V197.254H208.541V199.234H202.541V203.164H208.481V201.154H210.551ZM202.541 193.234V197.164H206.471V193.234H202.541ZM224.537 193.174H226.547V203.254H224.537V205.234H218.537V209.254H214.457V191.164H224.537V193.174ZM218.537 193.234V203.164H222.467V193.234H218.537ZM234.533 205.234H230.453V185.164H234.533V205.234ZM238.451 197.164H240.461V195.154H246.461V193.234H240.461V191.164H248.531V193.174H250.541V205.234H240.461V203.254H238.451V197.164ZM242.531 197.254V203.164H246.461V197.254H242.531ZM264.527 191.164V193.174H266.537V205.234H262.457V193.234H260.537V195.244H258.527V205.234H254.447V191.164H258.527V193.174H260.447V191.164H264.527ZM288.539 191.164V197.254H286.529V201.244H284.549V205.234H280.469V201.244H278.459V197.254H276.449V191.164H280.529V197.164H282.539V201.154H284.459V191.164H288.539ZM292.445 197.164H294.455V195.154H300.455V193.234H294.455V191.164H302.525V193.174H304.535V205.234H294.455V203.254H292.445V197.164ZM296.525 197.254V203.164H300.455V197.254H296.525ZM318.521 191.164V193.174H320.531V205.234H316.451V193.234H314.531V195.244H312.521V205.234H308.441V191.164H312.521V193.174H314.441V191.164H318.521ZM330.443 193.174H332.453V191.164H338.453V185.164H342.533V205.234H332.453V203.254H330.443V193.174ZM334.523 193.234V203.164H338.453V193.234H334.523ZM358.529 201.154V203.254H356.519V205.234H348.449V203.254H346.439V193.174H348.449V191.164H356.519V193.174H358.529V197.254H356.519V199.234H350.519V203.164H356.459V201.154H358.529ZM350.519 193.234V197.164H354.449V193.234H350.519ZM378.521 187.234H372.521V193.174H376.541V195.244H372.521V203.164H378.521V205.234H368.441V185.164H378.521V187.234ZM380.453 185.164H384.533V203.164H388.463V185.164H392.543V203.254H390.533V205.234H382.463V203.254H380.453V185.164ZM402.455 193.174H404.465V191.164H412.535V193.174H414.545V203.254H412.535V205.234H404.465V203.254H402.455V193.174ZM406.535 193.234V203.164H410.465V193.234H406.535ZM436.541 191.164V193.174H438.551V205.234H434.471V193.234H432.551V195.244H430.541V205.234H426.461V193.234H424.541V195.244H422.531V205.234H418.451V191.164H422.531V193.174H424.451V191.164H428.531V193.174H432.461V191.164H436.541ZM452.531 195.244V205.234H448.451V185.164H452.531V193.174H454.451V191.164H458.531V193.174H460.541V205.234H456.461V193.234H454.541V195.244H452.531ZM464.447 197.164H466.457V195.154H472.457V193.234H466.457V191.164H474.527V193.174H476.537V205.234H466.457V203.254H464.447V197.164ZM468.527 197.254V203.164H472.457V197.254H468.527ZM480.443 197.164H482.453V195.154H488.453V193.234H482.453V191.164H490.523V193.174H492.533V205.234H482.453V203.254H480.443V197.164ZM484.523 197.254V203.164H488.453V197.254H484.523ZM500.519 193.174H502.439V191.164H504.539V195.244H500.519V205.234H496.439V191.164H500.519V193.174ZM97.5819 233.154V235.254H95.5719V237.234H87.5019V235.254H85.4919V225.174H87.5019V223.164H95.5719V225.174H97.5819V229.254H95.5719V231.234H89.5719V235.164H95.5119V233.154H97.5819ZM89.5719 225.234V229.164H93.5019V225.234H89.5719ZM103.498 237.234V235.254H101.488V225.174H103.498V223.164H111.568V227.244H109.498V225.234H105.568V235.164H109.498V233.154H111.568V235.254H109.588V237.234H103.498ZM115.492 225.174H117.502V223.164H125.572V225.174H127.582V235.254H125.572V237.234H117.502V235.254H115.492V225.174ZM119.572 225.234V235.164H123.502V225.234H119.572ZM141.568 223.164V225.174H143.578V237.234H139.498V225.234H137.578V227.244H135.568V237.234H131.488V223.164H135.568V225.174H137.488V223.164H141.568ZM147.484 225.174H149.494V223.164H157.564V225.174H159.574V235.254H157.564V237.234H149.494V235.254H147.484V225.174ZM151.564 225.234V235.164H155.494V225.234H151.564ZM181.57 223.164V225.174H183.58V237.234H179.5V225.234H177.58V227.244H175.57V237.234H171.49V225.234H169.57V227.244H167.56V237.234H163.48V223.164H167.56V225.174H169.48V223.164H173.56V225.174H177.49V223.164H181.57ZM191.554 221.244H187.474V219.174H191.554V221.244ZM191.554 237.234H187.474V223.164H191.554V237.234ZM207.562 233.154V235.254H205.552V237.234H197.482V235.254H195.472V225.174H197.482V223.164H205.552V225.174H207.562V229.254H205.552V231.234H199.552V235.164H205.492V233.154H207.562ZM199.552 225.234V229.164H203.482V225.234H199.552ZM215.494 223.164H217.474V219.174H221.554V223.164H223.564V225.234H221.554V237.234H217.474V225.234H215.494V223.164ZM237.562 233.154V235.254H235.552V237.234H227.482V235.254H225.472V225.174H227.482V223.164H235.552V225.174H237.562V229.254H235.552V231.234H229.552V235.164H235.492V233.154H237.562ZM229.552 225.234V229.164H233.482V225.234H229.552ZM259.564 223.164V229.254H257.554V233.244H255.574V237.234H251.494V233.244H249.484V229.254H247.474V223.164H251.554V229.164H253.564V233.154H255.484V223.164H259.564ZM275.56 233.154V235.254H273.55V237.234H265.48V235.254H263.47V225.174H265.48V223.164H273.55V225.174H275.56V229.254H273.55V231.234H267.55V235.164H273.49V233.154H275.56ZM267.55 225.234V229.164H271.48V225.234H267.55ZM283.546 225.174H285.466V223.164H287.566V227.244H283.546V237.234H279.466V223.164H283.546V225.174ZM289.457 225.174H291.467V223.164H297.467V217.164H301.547V237.234H291.467V235.254H289.457V225.174ZM293.537 225.234V235.164H297.467V225.234H293.537ZM305.453 223.164H309.533V235.164H313.463V223.164H317.543V235.254H315.533V237.234H307.463V235.254H305.453V223.164ZM321.449 223.164H325.529V235.164H329.459V223.164H333.539V235.254H331.529V237.234H323.459V235.254H321.449V223.164ZM341.525 225.174H343.445V223.164H345.545V227.244H341.525V237.234H337.445V223.164H341.525V225.174ZM349.445 229.164H353.435V225.234H347.435V223.164H357.515V229.254H355.535V231.234H351.515V235.164H357.515V237.234H347.435V231.174H349.445V229.164ZM361.439 229.164H363.449V227.154H369.449V225.234H363.449V223.164H371.519V225.174H373.529V237.234H363.449V235.254H361.439V229.164ZM365.519 229.254V235.164H369.449V229.254H365.519ZM395.525 223.164V225.174H397.535V237.234H393.455V225.234H391.535V227.244H389.525V237.234H385.445V225.234H383.525V227.244H381.515V237.234H377.435V223.164H381.515V225.174H383.435V223.164H387.515V225.174H391.445V223.164H395.525ZM413.519 233.154V235.254H411.509V237.234H403.439V235.254H401.429V225.174H403.439V223.164H411.509V225.174H413.519V229.254H411.509V231.234H405.509V235.164H411.449V233.154H413.519ZM405.509 225.234V229.164H409.439V225.234H405.509ZM427.505 223.164V225.174H429.515V237.234H425.435V225.234H423.515V227.244H421.505V237.234H417.425V223.164H421.505V225.174H423.425V223.164H427.505ZM439.427 225.174H441.437V223.164H447.437V217.164H451.517V237.234H441.437V235.254H439.427V225.174ZM443.507 225.234V235.164H447.437V225.234H443.507ZM455.424 225.174H457.434V223.164H465.504V225.174H467.514V235.254H465.504V237.234H457.434V235.254H455.424V225.174ZM459.504 225.234V235.164H463.434V225.234H459.504ZM471.42 225.174H473.43V223.164H481.5V225.174H483.51V235.254H481.5V237.234H473.43V235.254H471.42V225.174ZM475.5 225.234V235.164H479.43V225.234H475.5ZM491.496 225.174H493.416V223.164H495.516V227.244H491.496V237.234H487.416V223.164H491.496V225.174ZM135.58 255.164V257.234H133.57V259.244H131.59V263.174H133.57V265.154H135.58V269.234H131.5V265.244H129.49V263.234H127.57V269.234H123.49V249.164H127.57V261.164H129.49V259.154H131.5V257.174H133.51V255.164H135.58ZM143.566 269.234H139.486V249.164H143.566V269.234ZM151.564 253.244H147.484V251.174H151.564V253.244ZM151.564 269.234H147.484V255.164H151.564V269.234ZM173.572 255.164V257.174H175.582V269.234H171.502V257.234H169.582V259.244H167.572V269.234H163.492V257.234H161.572V259.244H159.562V269.234H155.482V255.164H159.562V257.174H161.482V255.164H165.562V257.174H169.492V255.164H173.572ZM179.476 261.164H181.486V259.154H187.486V257.234H181.486V255.164H189.556V257.174H191.566V269.234H181.486V267.254H179.476V261.164ZM183.556 261.254V267.164H187.486V261.254H183.556ZM195.472 261.164H197.482V259.154H203.482V257.234H197.482V255.164H205.552V257.174H207.562V269.234H197.482V267.254H195.472V261.164ZM199.552 261.254V267.164H203.482V261.254H199.552ZM209.488 255.164H211.468V251.174H215.548V255.164H217.558V257.234H215.548V269.234H211.468V257.234H209.488V255.164ZM229.546 255.164V257.174H231.556V269.234H227.476V257.234H225.556V259.244H223.546V269.234H219.466V255.164H223.546V257.174H225.466V255.164H229.546ZM247.553 265.154V267.254H245.543V269.234H237.473V267.254H235.463V257.174H237.473V255.164H245.543V257.174H247.553V261.254H245.543V263.234H239.543V267.164H245.483V265.154H247.553ZM239.543 257.234V261.164H243.473V257.234H239.543ZM251.459 255.164H255.539V267.164H259.469V255.164H263.549V267.254H261.539V269.234H253.469V267.254H251.459V255.164ZM265.475 255.164H267.455V251.174H271.535V255.164H273.545V257.234H271.535V269.234H267.455V257.234H265.475V255.164ZM279.533 257.174H281.453V255.164H283.553V259.244H279.533V269.234H275.453V255.164H279.533V257.174ZM285.443 261.164H287.453V259.154H293.453V257.234H287.453V255.164H295.523V257.174H297.533V269.234H287.453V267.254H285.443V261.164ZM289.523 261.254V267.164H293.453V261.254H289.523ZM301.439 261.164H303.449V259.154H309.449V257.234H303.449V255.164H311.519V257.174H313.529V269.234H303.449V267.254H301.439V261.164ZM305.519 261.254V267.164H309.449V261.254H305.519ZM321.515 269.234H317.435V249.164H321.515V269.234ZM329.459 255.164H331.439V251.174H335.519V255.164H337.529V257.234H335.519V269.234H331.439V257.234H329.459V255.164ZM351.527 265.154V267.254H349.517V269.234H341.447V267.254H339.437V257.174H341.447V255.164H349.517V257.174H351.527V261.254H349.517V263.234H343.517V267.164H349.457V265.154H351.527ZM343.517 257.234V261.164H347.447V257.234H343.517ZM381.539 255.164V261.254H379.529V265.244H377.519V269.234H373.439V265.244H369.539V269.234H365.459V265.244H363.449V261.254H361.439V255.164H365.519V261.164H367.529V265.154H369.449V263.174H371.459V261.254H369.449V255.164H373.529V261.164H375.539V265.154H377.459V255.164H381.539ZM385.433 257.174H387.443V255.164H395.513V257.174H397.523V267.254H395.513V269.234H387.443V267.254H385.433V257.174ZM389.513 257.234V267.164H393.443V257.234H389.513ZM405.509 257.174H407.429V255.164H409.529V259.244H405.509V269.234H401.429V255.164H405.509V257.174ZM411.42 257.174H413.43V255.164H419.43V249.164H423.51V269.234H413.43V267.254H411.42V257.174ZM415.5 257.234V267.164H419.43V257.234H415.5ZM439.506 265.154V267.254H437.496V269.234H429.426V267.254H427.416V257.174H429.426V255.164H437.496V257.174H439.506V261.254H437.496V263.234H431.496V267.164H437.436V265.154H439.506ZM431.496 257.234V261.164H435.426V257.234H431.496ZM453.492 255.164V257.174H455.502V269.234H451.422V257.234H449.502V259.244H447.492V269.234H443.412V255.164H447.492V257.174H449.412V255.164H453.492ZM121.549 285.244H117.469V283.174H121.549V285.244ZM121.549 301.234H117.469V287.164H121.549V301.234ZM135.547 287.164V289.174H137.557V301.234H133.477V289.234H131.557V291.244H129.547V301.234H125.467V287.164H129.547V289.174H131.467V287.164H135.547ZM147.469 287.254V283.174H149.479V281.164H155.569V283.174H157.549V291.244H155.569V293.254H153.559V295.234H151.549V299.164H153.529H157.549V301.234H147.469V295.174H149.479V293.164H151.489V291.154H153.469V283.234H149.569V287.254H147.469ZM161.473 283.174H163.483V281.164H171.553V283.174H173.563V299.254H171.553V301.234H163.483V299.254H161.473V283.174ZM165.553 283.234V299.164H169.483V283.234H165.553ZM183.469 291.244H177.469V281.164H187.549V283.234H181.549V289.174H185.569V291.154H187.549V299.254H185.569V301.234H177.469V299.164H183.469V291.244ZM191.473 283.174H193.483V281.164H201.553V283.174H203.563V299.254H201.553V301.234H193.483V299.254H191.473V283.174ZM195.553 283.234V299.164H199.483V283.234H195.553ZM231.565 287.164V289.174H233.575V301.234H229.495V289.234H227.575V291.244H225.565V301.234H221.485V289.234H219.565V291.244H217.555V301.234H213.475V287.164H217.555V289.174H219.475V287.164H223.555V289.174H227.485V287.164H231.565ZM249.559 297.154V299.254H247.549V301.234H239.479V299.254H237.469V289.174H239.479V287.164H247.549V289.174H249.559V293.254H247.549V295.234H241.549V299.164H247.489V297.154H249.559ZM241.549 289.234V293.164H245.479V289.234H241.549ZM251.485 287.164H253.465V283.174H257.545V287.164H259.555V289.234H257.545V301.234H253.465V289.234H251.485V287.164ZM267.469 293.164H269.479V291.154H275.479V289.234H269.479V287.164H277.549V289.174H279.559V301.234H269.479V299.254H267.469V293.164ZM271.549 293.254V299.164H275.479V293.254H271.549ZM287.545 301.234H283.465V281.164H287.545V301.234ZM293.564 299.164H297.464V297.244H295.484V295.234H293.474V293.254H291.464V289.174H293.474V287.164H301.544V291.244H299.474V289.234H295.544V291.154H297.554V293.164H299.564V295.174H301.544V299.254H299.564V301.234H291.464V297.154H293.564V299.164ZM323.563 287.164V289.234H321.553V291.244H319.573V295.174H321.553V297.154H323.563V301.234H319.483V297.244H317.473V295.234H315.553V301.234H311.473V281.164H315.553V293.164H317.473V291.154H319.483V289.174H321.493V287.164H323.563ZM339.559 297.154V299.254H337.549V301.234H329.479V299.254H327.469V289.174H329.479V287.164H337.549V289.174H339.559V293.254H337.549V295.234H331.549V299.164H337.489V297.154H339.559ZM331.549 289.234V293.164H335.479V289.234H331.549ZM347.546 289.174H349.466V287.164H351.566V291.244H347.546V301.234H343.466V287.164H347.546V289.174ZM363.536 287.164V289.174H365.546V301.234H361.466V289.234H359.546V291.244H357.536V301.234H353.456V287.164H357.536V289.174H359.456V287.164H363.536ZM369.452 289.174H371.462V287.164H377.462V281.164H381.542V301.234H371.462V299.254H369.452V289.174ZM373.532 289.234V299.164H377.462V289.234H373.532ZM385.448 289.174H387.458V287.164H395.528V289.174H397.538V299.254H395.528V301.234H387.458V299.254H385.448V289.174ZM389.528 289.234V299.164H393.458V289.234H389.528ZM413.534 297.154V299.254H411.524V301.234H403.454V299.254H401.444V289.174H403.454V287.164H411.524V289.174H413.534V293.254H411.524V295.234H405.524V299.164H411.464V297.154H413.534ZM405.524 289.234V293.164H409.454V289.234H405.524ZM421.52 301.234H417.44V281.164H421.52V301.234ZM437.528 297.154V299.254H435.518V301.234H427.448V299.254H425.438V289.174H427.448V287.164H435.518V289.174H437.528V293.254H435.518V295.234H429.518V299.164H435.458V297.154H437.528ZM429.518 289.234V293.164H433.448V289.234H429.518ZM451.514 287.164V289.174H453.524V301.234H449.444V289.234H447.524V291.244H445.514V301.234H441.434V287.164H445.514V289.174H447.434V287.164H451.514ZM461.51 293.254H457.43V289.174H461.51V293.254ZM461.51 301.234H457.43V297.154H461.51V301.234Z" fill="#64764E"/>
</svg>
