<svg width="580" height="370" viewBox="0 0 580 370" fill="none" xmlns="http://www.w3.org/2000/svg">
<rect width="580" height="370" fill="#F26F91"/>
<rect width="568.981" height="357.07" fill="#FBD4E0"/>
<rect x="11.0195" y="7.957" width="557.962" height="349.113" fill="#FFA7C1"/>
<rect x="24.043" y="17.9032" width="530.915" height="93.4946" fill="#FF93B3"/>
<rect x="484.836" y="35.8064" width="53.0915" height="58.6828" fill="#FBD4E0"/>
<rect x="488.844" y="40.7795" width="49.0846" height="53.7097" fill="#F26F91"/>
<rect width="42.0725" height="47.7419" transform="translate(488.844 40.7795)" fill="#FFA7C1"/>
<rect x="494.844" y="49.7795" width="11" height="10" fill="#F26F91"/>
<rect x="504.844" y="59.7795" width="11" height="10" fill="#F26F91"/>
<rect x="494.844" y="69.7795" width="11" height="10" fill="#F26F91"/>
<rect x="514.844" y="49.7795" width="11" height="10" fill="#F26F91"/>
<rect x="514.844" y="69.7795" width="11" height="10" fill="#F26F91"/>
<path d="M102.478 151.97H106.408V143.96H110.488V164.03H106.408V154.04H102.478V164.03H98.3981V143.96H102.478V151.97ZM126.484 159.95V162.05H124.474V164.03H116.404V162.05H114.394V151.97H116.404V149.96H124.474V151.97H126.484V156.05H124.474V158.03H118.474V161.96H124.414V159.95H126.484ZM118.474 152.03V155.96H122.404V152.03H118.474ZM128.41 149.96H130.39V145.97H134.47V149.96H136.48V152.03H134.47V164.03H130.39V152.03H128.41V149.96ZM152.404 164.03H146.404V162.05H144.394V151.97H146.404V149.96H158.494V152.03H156.484V166.04H154.474V168.05H146.404V165.95H152.404V164.03ZM148.474 152.03V161.96H152.404V152.03H148.474ZM172.48 159.95V162.05H170.47V164.03H162.4V162.05H160.39V151.97H162.4V149.96H170.47V151.97H172.48V156.05H170.47V158.03H164.47V161.96H170.41V159.95H172.48ZM164.47 152.03V155.96H168.4V152.03H164.47ZM180.466 149.96H186.466V151.97H188.476V162.05H186.466V164.03H176.386V143.96H180.466V149.96ZM180.466 152.03V161.96H184.396V152.03H180.466ZM196.462 151.97H198.382V149.96H200.482V154.04H196.462V164.03H192.382V149.96H196.462V151.97ZM202.373 149.96H206.453V161.96H210.383V149.96H214.463V162.05H212.453V164.03H204.383V162.05H202.373V149.96ZM222.449 148.04H218.369V145.97H222.449V148.04ZM222.449 164.03H218.369V149.96H222.449V164.03ZM238.457 149.96V152.03H236.447V154.04H234.467V157.97H236.447V159.95H238.457V164.03H234.377V160.04H232.367V158.03H230.447V164.03H226.367V143.96H230.447V155.96H232.367V153.95H234.377V151.97H236.387V149.96H238.457ZM260.459 149.96V156.05H258.449V160.04H256.469V164.03H252.389V160.04H250.379V156.05H248.369V149.96H252.449V155.96H254.459V159.95H256.379V149.96H260.459ZM264.365 155.96H266.375V153.95H272.375V152.03H266.375V149.96H274.445V151.97H276.455V164.03H266.375V162.05H264.365V155.96ZM268.445 156.05V161.96H272.375V156.05H268.445ZM290.441 149.96V151.97H292.451V164.03H288.371V152.03H286.451V154.04H284.441V164.03H280.361V149.96H284.441V151.97H286.361V149.96H290.441ZM312.449 154.04V164.03H308.369V143.96H312.449V151.97H314.369V149.96H318.449V151.97H320.459V164.03H316.379V152.03H314.459V154.04H312.449ZM336.455 159.95V162.05H334.445V164.03H326.375V162.05H324.365V151.97H326.375V149.96H334.445V151.97H336.455V156.05H334.445V158.03H328.445V161.96H334.385V159.95H336.455ZM328.445 152.03V155.96H332.375V152.03H328.445ZM344.441 151.97H346.361V149.96H348.461V154.04H344.441V164.03H340.361V149.96H344.441V151.97ZM360.431 149.96V151.97H362.441V164.03H358.361V152.03H356.441V154.04H354.431V164.03H350.351V149.96H354.431V151.97H356.351V149.96H360.431ZM370.427 148.04H366.347V145.97H370.427V148.04ZM370.427 164.03H366.347V149.96H370.427V164.03ZM386.435 159.95V162.05H384.425V164.03H376.355V162.05H374.345V151.97H376.355V149.96H384.425V151.97H386.435V156.05H384.425V158.03H378.425V161.96H384.365V159.95H386.435ZM378.425 152.03V155.96H382.355V152.03H378.425ZM390.341 149.96H394.421V161.96H398.351V149.96H402.431V162.05H400.421V164.03H392.351V162.05H390.341V149.96ZM426.438 149.96V156.05H424.428V160.04H422.418V164.03H418.338V160.04H414.438V164.03H410.358V160.04H408.348V156.05H406.338V149.96H410.418V155.96H412.428V159.95H414.348V157.97H416.358V156.05H414.348V149.96H418.428V155.96H420.438V159.95H422.358V149.96H426.438ZM434.412 149.96H440.412V151.97H442.422V162.05H440.412V164.03H430.332V143.96H434.412V149.96ZM434.412 152.03V161.96H438.342V152.03H434.412ZM446.328 155.96H448.338V153.95H454.338V152.03H448.338V149.96H456.408V151.97H458.418V164.03H448.338V162.05H446.328V155.96ZM450.408 156.05V161.96H454.338V156.05H450.408ZM466.404 151.97H468.324V149.96H470.424V154.04H466.404V164.03H462.324V149.96H466.404V151.97ZM484.404 159.95V162.05H482.394V164.03H474.324V162.05H472.314V151.97H474.324V149.96H482.394V151.97H484.404V156.05H482.394V158.03H476.394V161.96H482.334V159.95H484.404ZM476.394 152.03V155.96H480.324V152.03H476.394ZM84.5018 191.95V194.05H82.4918V196.03H74.4218V194.05H72.4118V183.97H74.4218V181.96H82.4918V183.97H84.5018V188.05H82.4918V190.03H76.4918V193.96H82.4318V191.95H84.5018ZM76.4918 184.03V187.96H80.4218V184.03H76.4918ZM98.4879 181.96V183.97H100.498V196.03H96.4179V184.03H94.4979V186.04H92.4879V196.03H88.4079V181.96H92.4879V183.97H94.4079V181.96H98.4879ZM116.494 191.95V194.05H114.484V196.03H106.414V194.05H104.404V183.97H106.414V181.96H114.484V183.97H116.494V188.05H114.484V190.03H108.484V193.96H114.424V191.95H116.494ZM108.484 184.03V187.96H112.414V184.03H108.484ZM124.48 183.97H126.4V181.96H128.5V186.04H124.48V196.03H120.4V181.96H124.48V183.97ZM138.4 196.03H132.4V194.05H130.39V183.97H132.4V181.96H144.49V184.03H142.48V198.04H140.47V200.05H132.4V197.95H138.4V196.03ZM134.47 184.03V193.96H138.4V184.03H134.47ZM150.466 180.04H146.386V177.97H150.466V180.04ZM150.466 196.03H146.386V181.96H150.466V196.03ZM166.474 191.95V194.05H164.464V196.03H156.394V194.05H154.384V183.97H156.394V181.96H164.464V183.97H166.474V188.05H164.464V190.03H158.464V193.96H164.404V191.95H166.474ZM158.464 184.03V187.96H162.394V184.03H158.464ZM174.461 181.96H180.461V183.97H182.471V194.05H180.461V196.03H170.381V175.96H174.461V181.96ZM174.461 184.03V193.96H178.391V184.03H174.461ZM190.457 183.97H192.377V181.96H194.477V186.04H190.457V196.03H186.377V181.96H190.457V183.97ZM196.367 183.97H198.377V181.96H206.447V183.97H208.457V194.05H206.447V196.03H198.377V194.05H196.367V183.97ZM200.447 184.03V193.96H204.377V184.03H200.447ZM222.443 181.96V183.97H224.453V196.03H220.373V184.03H218.453V186.04H216.443V196.03H212.363V181.96H216.443V183.97H218.363V181.96H222.443ZM238.439 181.96V183.97H240.449V196.03H236.369V184.03H234.449V186.04H232.439V196.03H228.359V181.96H232.439V183.97H234.359V181.96H238.439ZM256.445 191.95V194.05H254.435V196.03H246.365V194.05H244.355V183.97H246.365V181.96H254.435V183.97H256.445V188.05H254.435V190.03H248.435V193.96H254.375V191.95H256.445ZM248.435 184.03V187.96H252.365V184.03H248.435ZM270.431 181.96V183.97H272.441V196.03H268.361V184.03H266.441V186.04H264.431V196.03H260.351V181.96H264.431V183.97H266.351V181.96H270.431ZM286.433 181.96H292.433V183.97H294.443V194.05H292.433V196.03H282.353V175.96H286.433V181.96ZM286.433 184.03V193.96H290.363V184.03H286.433ZM310.439 191.95V194.05H308.429V196.03H300.359V194.05H298.349V183.97H300.359V181.96H308.429V183.97H310.439V188.05H308.429V190.03H302.429V193.96H308.369V191.95H310.439ZM302.429 184.03V187.96H306.359V184.03H302.429ZM326.435 181.96V188.05H324.425V192.04H322.445V196.03H318.365V192.04H316.355V188.05H314.345V181.96H318.425V187.96H320.435V191.95H322.355V181.96H326.435ZM330.341 183.97H332.351V181.96H340.421V183.97H342.431V194.05H340.421V196.03H332.351V194.05H330.341V183.97ZM334.421 184.03V193.96H338.351V184.03H334.421ZM350.418 183.97H352.338V181.96H354.438V186.04H350.418V196.03H346.338V181.96H350.418V183.97ZM356.328 183.97H358.338V181.96H364.338V175.96H368.418V196.03H358.338V194.05H356.328V183.97ZM360.408 184.03V193.96H364.338V184.03H360.408ZM384.414 191.95V194.05H382.404V196.03H374.334V194.05H372.324V183.97H374.334V181.96H382.404V183.97H384.414V188.05H382.404V190.03H376.404V193.96H382.344V191.95H384.414ZM376.404 184.03V187.96H380.334V184.03H376.404ZM392.4 183.97H394.32V181.96H396.42V186.04H392.4V196.03H388.32V181.96H392.4V183.97ZM410.4 191.95V194.05H408.39V196.03H400.32V194.05H398.31V183.97H400.32V181.96H408.39V183.97H410.4V188.05H408.39V190.03H402.39V193.96H408.33V191.95H410.4ZM402.39 184.03V187.96H406.32V184.03H402.39ZM424.386 181.96V183.97H426.396V196.03H422.316V184.03H420.396V186.04H418.386V196.03H414.306V181.96H418.386V183.97H420.306V181.96H424.386ZM448.398 191.95V194.05H446.388V196.03H438.318V194.05H436.308V183.97H438.318V181.96H446.388V183.97H448.398V188.05H446.388V190.03H440.388V193.96H446.328V191.95H448.398ZM440.388 184.03V187.96H444.318V184.03H440.388ZM462.384 181.96V183.97H464.394V196.03H460.314V184.03H458.394V186.04H456.384V196.03H452.304V181.96H456.384V183.97H458.304V181.96H462.384ZM478.386 186.04V196.03H474.306V175.96H478.386V183.97H480.306V181.96H484.386V183.97H486.396V196.03H482.316V184.03H480.396V186.04H478.386ZM502.392 191.95V194.05H500.382V196.03H492.312V194.05H490.302V183.97H492.312V181.96H500.382V183.97H502.392V188.05H500.382V190.03H494.382V193.96H500.322V191.95H502.392ZM494.382 184.03V187.96H498.312V184.03H494.382ZM504.318 181.96H506.298V177.97H510.378V181.96H512.388V184.03H510.378V196.03H506.298V184.03H504.318V181.96ZM132.49 213.96V220.05H130.48V224.04H128.5V228.03H124.42V224.04H122.41V220.05H120.4V213.96H124.48V219.96H126.49V223.95H128.41V213.96H132.49ZM148.486 223.95V226.05H146.476V228.03H138.406V226.05H136.396V215.97H138.406V213.96H146.476V215.97H148.486V220.05H146.476V222.03H140.476V225.96H146.416V223.95H148.486ZM140.476 216.03V219.96H144.406V216.03H140.476ZM156.472 215.97H158.392V213.96H160.492V218.04H156.472V228.03H152.392V213.96H156.472V215.97ZM166.462 213.96H172.462V215.97H174.472V226.05H172.462V228.03H162.382V207.96H166.462V213.96ZM166.462 216.03V225.96H170.392V216.03H166.462ZM190.469 223.95V226.05H188.459V228.03H180.389V226.05H178.379V215.97H180.389V213.96H188.459V215.97H190.469V220.05H188.459V222.03H182.459V225.96H188.399V223.95H190.469ZM182.459 216.03V219.96H186.389V216.03H182.459ZM192.395 213.96H194.375V209.97H198.455V213.96H200.465V216.03H198.455V228.03H194.375V216.03H192.395V213.96ZM214.463 223.95V226.05H212.453V228.03H204.383V226.05H202.373V215.97H204.383V213.96H212.453V215.97H214.463V220.05H212.453V222.03H206.453V225.96H212.393V223.95H214.463ZM206.453 216.03V219.96H210.383V216.03H206.453ZM222.449 215.97H224.369V213.96H226.469V218.04H222.449V228.03H218.369V213.96H222.449V215.97ZM240.449 223.95V226.05H238.439V228.03H230.369V226.05H228.359V215.97H230.369V213.96H238.439V215.97H240.449V220.05H238.439V222.03H232.439V225.96H238.379V223.95H240.449ZM232.439 216.03V219.96H236.369V216.03H232.439ZM254.435 213.96V215.97H256.445V228.03H252.365V216.03H250.445V218.04H248.435V228.03H244.355V213.96H248.435V215.97H250.355V213.96H254.435ZM278.447 213.96V220.05H276.437V224.04H274.457V228.03H270.377V224.04H268.367V220.05H266.357V213.96H270.437V219.96H272.447V223.95H274.367V213.96H278.447ZM282.353 219.96H284.363V217.95H290.363V216.03H284.363V213.96H292.433V215.97H294.443V228.03H284.363V226.05H282.353V219.96ZM286.433 220.05V225.96H290.363V220.05H286.433ZM308.429 213.96V215.97H310.439V228.03H306.359V216.03H304.439V218.04H302.429V228.03H298.349V213.96H302.429V215.97H304.349V213.96H308.429ZM320.351 215.97H322.361V213.96H328.361V207.96H332.441V228.03H322.361V226.05H320.351V215.97ZM324.431 216.03V225.96H328.361V216.03H324.431ZM348.437 223.95V226.05H346.427V228.03H338.357V226.05H336.347V215.97H338.357V213.96H346.427V215.97H348.437V220.05H346.427V222.03H340.427V225.96H346.367V223.95H348.437ZM340.427 216.03V219.96H344.357V216.03H340.427ZM370.439 223.95V226.05H368.429V228.03H360.359V226.05H358.349V215.97H360.359V213.96H368.429V215.97H370.439V220.05H368.429V222.03H362.429V225.96H368.369V223.95H370.439ZM362.429 216.03V219.96H366.359V216.03H362.429ZM384.425 213.96V215.97H386.435V228.03H382.355V216.03H380.435V218.04H378.425V228.03H374.345V213.96H378.425V215.97H380.345V213.96H384.425ZM402.431 223.95V226.05H400.421V228.03H392.351V226.05H390.341V215.97H392.351V213.96H400.421V215.97H402.431V220.05H400.421V222.03H394.421V225.96H400.361V223.95H402.431ZM394.421 216.03V219.96H398.351V216.03H394.421ZM410.418 215.97H412.338V213.96H414.438V218.04H410.418V228.03H406.338V213.96H410.418V215.97ZM424.338 228.03H418.338V226.05H416.328V215.97H418.338V213.96H430.428V216.03H428.418V230.04H426.408V232.05H418.338V229.95H424.338V228.03ZM420.408 216.03V225.96H424.338V216.03H420.408ZM436.404 212.04H432.324V209.97H436.404V212.04ZM436.404 228.03H432.324V213.96H436.404V228.03ZM452.412 223.95V226.05H450.402V228.03H442.332V226.05H440.322V215.97H442.332V213.96H450.402V215.97H452.412V220.05H450.402V222.03H444.402V225.96H450.342V223.95H452.412ZM444.402 216.03V219.96H448.332V216.03H444.402ZM462.408 220.05H456.318V217.95H462.408V220.05ZM241.46 255.95V258.05H239.45V260.03H231.38V258.05H229.37V247.97H231.38V245.96H239.45V247.97H241.46V252.05H239.45V254.03H233.45V257.96H239.39V255.95H241.46ZM233.45 248.03V251.96H237.38V248.03H233.45ZM243.386 245.96H245.366V241.97H247.376V239.96H253.466V242.03H249.446V245.96H253.466V248.03H249.446V260.03H245.366V248.03H243.386V245.96ZM253.376 245.96H255.356V241.97H257.366V239.96L267.446 239.93V242.03H259.436V245.96L267.446 245.93V260.03H263.366V248.03H259.436V260.03H255.356V248.03H253.376V245.96ZM273.362 260.03V258.05H271.352V247.97H273.362V245.96H281.432V250.04H279.362V248.03H275.432V257.96H279.362V255.95H281.432V258.05H279.452V260.03H273.362ZM289.436 244.04H285.356V241.97H289.436V244.04ZM289.436 260.03H285.356V245.96H289.436V260.03ZM305.444 255.95V258.05H303.434V260.03H295.364V258.05H293.354V247.97H295.364V245.96H303.434V247.97H305.444V252.05H303.434V254.03H297.434V257.96H303.374V255.95H305.444ZM297.434 248.03V251.96H301.364V248.03H297.434ZM297.434 244.04H295.364V241.97H297.434V244.04ZM303.434 244.04H301.364V241.97H303.434V244.04ZM319.43 245.96V247.97H321.44V260.03H317.36V248.03H315.44V250.04H313.43V260.03H309.35V245.96H313.43V247.97H315.35V245.96H319.43ZM323.366 245.96H325.346V241.97H329.426V245.96H331.436V248.03H329.426V260.03H325.346V248.03H323.366V245.96ZM337.424 244.04H333.344V241.97H337.424V244.04ZM337.424 260.03H333.344V245.96H337.424V260.03ZM353.432 255.95V258.05H351.422V260.03H343.352V258.05H341.342V247.97H343.352V245.96H351.422V247.97H353.432V252.05H351.422V254.03H345.422V257.96H351.362V255.95H353.432ZM345.422 248.03V251.96H349.352V248.03H345.422Z" fill="#AF556C"/>
</svg>
