<svg width="580" height="370" viewBox="0 0 580 370" fill="none" xmlns="http://www.w3.org/2000/svg">
<rect width="580" height="370" fill="#8BAB64"/>
<rect width="568.981" height="357.07" fill="#DDF3C4"/>
<rect x="11.0195" y="7.95697" width="557.962" height="349.113" fill="#C5DAAD"/>
<rect x="24.043" y="17.9031" width="530.915" height="93.4946" fill="#ABD37C"/>
<rect x="484.836" y="35.8064" width="53.0915" height="58.6828" fill="#DDF3C4"/>
<rect x="488.844" y="40.7795" width="49.0846" height="53.7097" fill="#8BAB64"/>
<rect width="42.0725" height="47.7419" transform="translate(488.844 40.7795)" fill="#C5DAAD"/>
<rect x="494.844" y="49.7795" width="11" height="10" fill="#8BAB64"/>
<rect x="504.844" y="59.7795" width="11" height="10" fill="#8BAB64"/>
<rect x="494.844" y="69.7795" width="11" height="10" fill="#8BAB64"/>
<rect x="514.844" y="49.7795" width="11" height="10" fill="#8BAB64"/>
<rect x="514.844" y="69.7795" width="11" height="10" fill="#8BAB64"/>
<path d="M185.045 166.97H188.975V158.96H193.055V179.03H188.975V169.04H185.045V179.03H180.965V158.96H185.045V166.97ZM209.051 174.95V177.05H207.041V179.03H198.971V177.05H196.961V166.97H198.971V164.96H207.041V166.97H209.051V171.05H207.041V173.03H201.041V176.96H206.981V174.95H209.051ZM201.041 167.03V170.96H204.971V167.03H201.041ZM210.977 164.96H212.957V160.97H217.037V164.96H219.047V167.03H217.037V179.03H212.957V167.03H210.977V164.96ZM231.041 164.96H237.041V166.97H239.051V177.05H237.041V179.03H226.961V158.96H231.041V164.96ZM231.041 167.03V176.96H234.971V167.03H231.041ZM255.047 174.95V177.05H253.037V179.03H244.967V177.05H242.957V166.97H244.967V164.96H253.037V166.97H255.047V171.05H253.037V173.03H247.037V176.96H252.977V174.95H255.047ZM247.037 167.03V170.96H250.967V167.03H247.037ZM261.053 176.96H264.953V175.04H262.973V173.03H260.963V171.05H258.953V166.97H260.963V164.96H269.033V169.04H266.963V167.03H263.033V168.95H265.043V170.96H267.053V172.97H269.033V177.05H267.053V179.03H258.953V174.95H261.053V176.96ZM274.967 179.03V177.05H272.957V166.97H274.967V164.96H283.037V169.04H280.967V167.03H277.037V176.96H280.967V174.95H283.037V177.05H281.057V179.03H274.967ZM291.041 169.04V179.03H286.961V158.96H291.041V166.97H292.961V164.96H297.041V166.97H299.051V179.03H294.971V167.03H293.051V169.04H291.041ZM315.047 174.95V177.05H313.037V179.03H304.967V177.05H302.957V166.97H304.967V164.96H313.037V166.97H315.047V171.05H313.037V173.03H307.037V176.96H312.977V174.95H315.047ZM307.037 167.03V170.96H310.967V167.03H307.037ZM323.033 166.97H324.953V164.96H327.053V169.04H323.033V179.03H318.953V164.96H323.033V166.97ZM347.033 164.96V166.97H349.043V179.03H344.963V167.03H343.043V169.04H341.033V179.03H336.953V167.03H335.033V169.04H333.023V179.03H328.943V164.96H333.023V166.97H334.943V164.96H339.023V166.97H342.953V164.96H347.033ZM365.027 174.95V177.05H363.017V179.03H354.947V177.05H352.937V166.97H354.947V164.96H363.017V166.97H365.027V171.05H363.017V173.03H357.017V176.96H362.957V174.95H365.027ZM357.017 167.03V170.96H360.947V167.03H357.017ZM379.013 164.96V166.97H381.023V179.03H376.943V167.03H375.023V169.04H373.013V179.03H368.933V164.96H373.013V166.97H374.933V164.96H379.013ZM169.061 206.95V209.05H167.051V211.03H158.981V209.05H156.971V198.97H158.981V196.96H167.051V198.97H169.061V203.05H167.051V205.03H161.051V208.96H166.991V206.95H169.061ZM161.051 199.03V202.96H164.981V199.03H161.051ZM183.047 196.96V198.97H185.057V211.03H180.977V199.03H179.057V201.04H177.047V211.03H172.967V196.96H177.047V198.97H178.967V196.96H183.047ZM199.049 201.04V211.03H194.969V190.96H199.049V198.97H200.969V196.96H205.049V198.97H207.059V211.03H202.979V199.03H201.059V201.04H199.049ZM223.055 206.95V209.05H221.045V211.03H212.975V209.05H210.965V198.97H212.975V196.96H221.045V198.97H223.055V203.05H221.045V205.03H215.045V208.96H220.985V206.95H223.055ZM215.045 199.03V202.96H218.975V199.03H215.045ZM231.041 198.97H232.961V196.96H235.061V201.04H231.041V211.03H226.961V196.96H231.041V198.97ZM239.051 208.96H242.951V207.04H240.971V205.03H238.961V203.05H236.951V198.97H238.961V196.96H247.031V201.04H244.961V199.03H241.031V200.95H243.041V202.96H245.051V204.97H247.031V209.05H245.051V211.03H236.951V206.95H239.051V208.96ZM248.975 196.96H250.955V192.97H255.035V196.96H257.045V199.03H255.035V211.03H250.955V199.03H248.975V196.96ZM271.043 206.95V209.05H269.033V211.03H260.963V209.05H258.953V198.97H260.963V196.96H269.033V198.97H271.043V203.05H269.033V205.03H263.033V208.96H268.973V206.95H271.043ZM263.033 199.03V202.96H266.963V199.03H263.033ZM279.029 211.03H274.949V190.96H279.029V211.03ZM287.027 211.03H282.947V190.96H287.027V211.03ZM303.035 206.95V209.05H301.025V211.03H292.955V209.05H290.945V198.97H292.955V196.96H301.025V198.97H303.035V203.05H301.025V205.03H295.025V208.96H300.965V206.95H303.035ZM295.025 199.03V202.96H298.955V199.03H295.025ZM317.021 196.96V198.97H319.031V211.03H314.951V199.03H313.031V201.04H311.021V211.03H306.941V196.96H311.021V198.97H312.941V196.96H317.021ZM341.033 196.96V203.05H339.023V207.04H337.043V211.03H332.963V207.04H330.953V203.05H328.943V196.96H333.023V202.96H335.033V206.95H336.953V196.96H341.033ZM344.939 202.96H346.949V200.95H352.949V199.03H346.949V196.96H355.019V198.97H357.029V211.03H346.949V209.05H344.939V202.96ZM349.019 203.05V208.96H352.949V203.05H349.019ZM371.015 196.96V198.97H373.025V211.03H368.945V199.03H367.025V201.04H365.015V211.03H360.935V196.96H365.015V198.97H366.935V196.96H371.015ZM382.937 198.97H384.947V196.96H390.947V190.96H395.027V211.03H384.947V209.05H382.937V198.97ZM387.017 199.03V208.96H390.947V199.03H387.017ZM411.023 206.95V209.05H409.013V211.03H400.943V209.05H398.933V198.97H400.943V196.96H409.013V198.97H411.023V203.05H409.013V205.03H403.013V208.96H408.953V206.95H411.023ZM403.013 199.03V202.96H406.943V199.03H403.013ZM164.053 228.96H170.053V230.97H172.063V241.05H170.053V243.03H159.973V222.96H164.053V228.96ZM164.053 231.03V240.96H167.983V231.03H164.053ZM180.05 227.04H175.97V224.97H180.05V227.04ZM180.05 243.03H175.97V228.96H180.05V243.03ZM183.968 230.97H185.978V228.96H194.048V230.97H196.058V241.05H194.048V243.03H185.978V241.05H183.968V230.97ZM188.048 231.03V240.96H191.978V231.03H188.048ZM199.964 230.97H201.974V228.96H207.974V222.96H212.054V243.03H201.974V241.05H199.964V230.97ZM204.044 231.03V240.96H207.974V231.03H204.044ZM220.04 227.04H215.96V224.97H220.04V227.04ZM220.04 243.03H215.96V228.96H220.04V243.03ZM236.048 228.96V235.05H234.038V239.04H232.058V243.03H227.978V239.04H225.968V235.05H223.958V228.96H228.038V234.96H230.048V238.95H231.968V228.96H236.048ZM252.044 238.95V241.05H250.034V243.03H241.964V241.05H239.954V230.97H241.964V228.96H250.034V230.97H252.044V235.05H250.034V237.03H244.034V240.96H249.974V238.95H252.044ZM244.034 231.03V234.96H247.964V231.03H244.034ZM260.03 230.97H261.95V228.96H264.05V233.04H260.03V243.03H255.95V228.96H260.03V230.97ZM268.04 240.96H271.94V239.04H269.96V237.03H267.95V235.05H265.94V230.97H267.95V228.96H276.02V233.04H273.95V231.03H270.02V232.95H272.03V234.96H274.04V236.97H276.02V241.05H274.04V243.03H265.94V238.95H268.04V240.96ZM284.024 227.04H279.944V224.97H284.024V227.04ZM284.024 243.03H279.944V228.96H284.024V243.03ZM285.962 228.96H287.942V224.97H292.022V228.96H294.032V231.03H292.022V243.03H287.942V231.03H285.962V228.96ZM308.03 238.95V241.05H306.02V243.03H297.95V241.05H295.94V230.97H297.95V228.96H306.02V230.97H308.03V235.05H306.02V237.03H300.02V240.96H305.96V238.95H308.03ZM300.02 231.03V234.96H303.95V231.03H300.02ZM316.016 227.04H311.936V224.97H316.016V227.04ZM316.016 243.03H311.936V228.96H316.016V243.03ZM317.954 228.96H319.934V224.97H324.014V228.96H326.024V231.03H324.014V243.03H319.934V231.03H317.954V228.96ZM346.028 238.95V241.05H344.018V243.03H335.948V241.05H333.938V230.97H335.948V228.96H344.018V230.97H346.028V235.05H344.018V237.03H338.018V240.96H343.958V238.95H346.028ZM338.018 231.03V234.96H341.948V231.03H338.018ZM360.014 228.96V230.97H362.024V243.03H357.944V231.03H356.024V233.04H354.014V243.03H349.934V228.96H354.014V230.97H355.934V228.96H360.014ZM376.016 233.04V243.03H371.936V222.96H376.016V230.97H377.936V228.96H382.016V230.97H384.026V243.03H379.946V231.03H378.026V233.04H376.016ZM400.022 238.95V241.05H398.012V243.03H389.942V241.05H387.932V230.97H389.942V228.96H398.012V230.97H400.022V235.05H398.012V237.03H392.012V240.96H397.952V238.95H400.022ZM392.012 231.03V234.96H395.942V231.03H392.012ZM401.949 228.96H403.929V224.97H408.009V228.96H410.019V231.03H408.009V243.03H403.929V231.03H401.949V228.96ZM119.983 262.97H121.993V260.96H130.063V262.97H132.073V273.05H130.063V275.03H121.993V273.05H119.983V262.97ZM124.063 263.03V272.96H127.993V263.03H124.063ZM146.059 260.96V262.97H148.069V275.03H143.989V263.03H142.069V265.04H140.059V275.03H135.979V260.96H140.059V262.97H141.979V260.96H146.059ZM151.975 262.97H153.985V260.96H159.985V254.96H164.065V275.03H153.985V273.05H151.975V262.97ZM156.055 263.03V272.96H159.985V263.03H156.055ZM180.061 270.95V273.05H178.051V275.03H169.981V273.05H167.971V262.97H169.981V260.96H178.051V262.97H180.061V267.05H178.051V269.03H172.051V272.96H177.991V270.95H180.061ZM172.051 263.03V266.96H175.981V263.03H172.051ZM188.048 262.97H189.968V260.96H192.068V265.04H188.048V275.03H183.968V260.96H188.048V262.97ZM196.058 272.96H199.958V271.04H197.978V269.03H195.968V267.05H193.958V262.97H195.968V260.96H204.038V265.04H201.968V263.03H198.038V264.95H200.048V266.96H202.058V268.97H204.038V273.05H202.058V275.03H193.958V270.95H196.058V272.96ZM205.982 260.96H207.962V256.97H212.042V260.96H214.052V263.03H212.042V275.03H207.962V263.03H205.982V260.96ZM228.05 270.95V273.05H226.04V275.03H217.97V273.05H215.96V262.97H217.97V260.96H226.04V262.97H228.05V267.05H226.04V269.03H220.04V272.96H225.98V270.95H228.05ZM220.04 263.03V266.96H223.97V263.03H220.04ZM231.956 260.96H236.036V272.96H239.966V260.96H244.046V273.05H242.036V275.03H233.966V273.05H231.956V260.96ZM258.032 260.96V262.97H260.042V275.03H255.962V263.03H254.042V265.04H252.032V275.03H247.952V260.96H252.032V262.97H253.952V260.96H258.032ZM276.038 270.95V273.05H274.028V275.03H265.958V273.05H263.948V262.97H265.958V260.96H274.028V262.97H276.038V267.05H274.028V269.03H268.028V272.96H273.968V270.95H276.038ZM268.028 263.03V266.96H271.958V263.03H268.028ZM290.024 260.96V262.97H292.034V275.03H287.954V263.03H286.034V265.04H284.024V275.03H279.944V260.96H284.024V262.97H285.944V260.96H290.024ZM314.036 260.96V267.05H312.026V271.04H310.046V275.03H305.966V271.04H303.956V267.05H301.946V260.96H306.026V266.96H308.036V270.95H309.956V260.96H314.036ZM317.942 266.96H319.952V264.95H325.952V263.03H319.952V260.96H328.022V262.97H330.032V275.03H319.952V273.05H317.942V266.96ZM322.022 267.05V272.96H325.952V267.05H322.022ZM344.018 260.96V262.97H346.028V275.03H341.948V263.03H340.028V265.04H338.018V275.03H333.938V260.96H338.018V262.97H339.938V260.96H344.018ZM355.94 262.97H357.95V260.96H363.95V254.96H368.03V275.03H357.95V273.05H355.94V262.97ZM360.02 263.03V272.96H363.95V263.03H360.02ZM376.016 259.04H371.936V256.97H376.016V259.04ZM376.016 275.03H371.936V260.96H376.016V275.03ZM392.024 260.96V267.05H390.014V271.04H388.034V275.03H383.954V271.04H381.944V267.05H379.934V260.96H384.014V266.96H386.024V270.95H387.944V260.96H392.024ZM408.02 270.95V273.05H406.01V275.03H397.94V273.05H395.93V262.97H397.94V260.96H406.01V262.97H408.02V267.05H406.01V269.03H400.01V272.96H405.95V270.95H408.02ZM400.01 263.03V266.96H403.94V263.03H400.01ZM416.007 262.97H417.927V260.96H420.027V265.04H416.007V275.03H411.927V260.96H416.007V262.97ZM424.017 272.96H427.917V271.04H425.937V269.03H423.927V267.05H421.917V262.97H423.927V260.96H431.997V265.04H429.927V263.03H425.997V264.95H428.007V266.96H430.017V268.97H431.997V273.05H430.017V275.03H421.917V270.95H424.017V272.96ZM448.011 270.95V273.05H446.001V275.03H437.931V273.05H435.921V262.97H437.931V260.96H446.001V262.97H448.011V267.05H446.001V269.03H440.001V272.96H445.941V270.95H448.011ZM440.001 263.03V266.96H443.931V263.03H440.001ZM226.046 307.03H221.966V286.96H226.046V307.03ZM229.964 298.96H231.974V296.95H237.974V295.03H231.974V292.96H240.044V294.97H242.054V307.03H231.974V305.05H229.964V298.96ZM234.044 299.05V304.96H237.974V299.05H234.044ZM256.04 292.96V294.97H258.05V307.03H253.97V295.03H252.05V297.04H250.04V307.03H245.96V292.96H250.04V294.97H251.96V292.96H256.04ZM261.956 294.97H263.966V292.96H269.966V286.96H274.046V307.03H263.966V305.05H261.956V294.97ZM266.036 295.03V304.96H269.966V295.03H266.036ZM282.032 292.96H288.032V294.97H290.042V305.05H288.032V307.03H277.952V286.96H282.032V292.96ZM282.032 295.03V304.96H285.962V295.03H282.032ZM293.948 294.97H295.958V292.96H304.028V294.97H306.038V305.05H304.028V307.03H295.958V305.05H293.948V294.97ZM298.028 295.03V304.96H301.958V295.03H298.028ZM309.944 292.96H314.024V304.96H317.954V292.96H322.034V305.05H320.024V307.03H311.954V305.05H309.944V292.96ZM346.04 292.96V299.05H344.03V303.04H342.02V307.03H337.94V303.04H334.04V307.03H329.96V303.04H327.95V299.05H325.94V292.96H330.02V298.96H332.03V302.95H333.95V300.97H335.96V299.05H333.95V292.96H338.03V298.96H340.04V302.95H341.96V292.96H346.04Z" fill="#64764E"/>
</svg>
