<svg width="580" height="370" viewBox="0 0 580 370" fill="none" xmlns="http://www.w3.org/2000/svg">
<rect width="580" height="370" fill="#8BAB64"/>
<rect width="568.981" height="357.07" fill="#DDF3C4"/>
<rect x="9.01562" y="8.95166" width="557.962" height="349.113" fill="#C5DAAD"/>
<rect x="22.0391" y="18.8978" width="530.915" height="93.4946" fill="#ABD37C"/>
<rect x="482.832" y="36.801" width="53.0915" height="58.6828" fill="#DDF3C4"/>
<rect x="486.84" y="41.7742" width="49.0846" height="53.7097" fill="#8BAB64"/>
<rect width="42.0725" height="47.7419" transform="translate(486.84 41.7742)" fill="#C5DAAD"/>
<rect x="492.84" y="50.7742" width="11" height="10" fill="#8BAB64"/>
<rect x="502.84" y="60.7742" width="11" height="10" fill="#8BAB64"/>
<rect x="492.84" y="70.7742" width="11" height="10" fill="#8BAB64"/>
<rect x="512.84" y="50.7742" width="11" height="10" fill="#8BAB64"/>
<rect x="512.84" y="70.7742" width="11" height="10" fill="#8BAB64"/>
<path d="M92.9238 192.082H82.9238V201.982H89.6238V205.432H82.9238V218.632H92.9238V222.082H76.1238V188.632H92.9238V192.082ZM96.1433 198.632H102.943V218.632H109.493V198.632H116.293V218.782H112.943V222.082H99.4933V218.782H96.1433V198.632ZM129.603 201.982H132.803V198.632H136.303V205.432H129.603V222.082H122.803V198.632H129.603V201.982ZM139.454 201.982H142.804V198.632H156.254V201.982H159.604V218.782H156.254V222.082H142.804V218.782H139.454V201.982ZM146.254 202.082V218.632H152.804V202.082H146.254ZM182.914 201.982H186.264V218.782H182.914V222.082H172.914V228.782H166.114V198.632H182.914V201.982ZM172.914 202.082V218.632H179.464V202.082H172.914ZM212.924 215.282V218.782H209.574V222.082H196.124V218.782H192.774V201.982H196.124V198.632H209.574V201.982H212.924V208.782H209.574V212.082H199.574V218.632H209.474V215.282H212.924ZM199.574 202.082V208.632H206.124V202.082H199.574ZM219.434 208.632H222.784V205.282H232.784V202.082H222.784V198.632H236.234V201.982H239.584V222.082H222.784V218.782H219.434V208.632ZM226.234 208.782V218.632H232.784V208.782H226.234ZM262.895 198.632V201.982H266.245V222.082H259.445V202.082H256.245V205.432H252.895V222.082H246.095V198.632H252.895V201.982H256.095V198.632H262.895ZM286.114 222.082V218.782H282.764V191.982H286.114V188.632H302.914V195.432H299.464V192.082H289.564V218.632H296.114V208.782H292.764V205.282H302.914V222.082H299.464V218.782H296.264V222.082H286.114ZM316.225 201.982H319.425V198.632H322.925V205.432H316.225V222.082H309.425V198.632H316.225V201.982ZM346.225 215.282V218.782H342.875V222.082H329.425V218.782H326.075V201.982H329.425V198.632H342.875V201.982H346.225V208.782H342.875V212.082H332.875V218.632H342.775V215.282H346.225ZM332.875 202.082V208.632H339.425V202.082H332.875ZM372.885 215.282V218.782H369.535V222.082H356.085V218.782H352.735V201.982H356.085V198.632H369.535V201.982H372.885V208.782H369.535V212.082H359.535V218.632H369.435V215.282H372.885ZM359.535 202.082V208.632H366.085V202.082H359.535ZM396.195 198.632V201.982H399.545V222.082H392.745V202.082H389.545V205.432H386.195V222.082H379.395V198.632H386.195V201.982H389.395V198.632H396.195ZM432.865 191.982H436.215V218.782H432.865V222.082H416.065V188.632H432.865V191.982ZM422.865 192.082V218.632H429.415V192.082H422.865ZM462.875 215.282V218.782H459.525V222.082H446.075V218.782H442.725V201.982H446.075V198.632H459.525V201.982H462.875V208.782H459.525V212.082H449.525V218.632H459.425V215.282H462.875ZM449.525 202.082V208.632H456.075V202.082H449.525ZM469.386 208.632H472.736V205.282H482.736V202.082H472.736V198.632H486.186V201.982H489.536V222.082H472.736V218.782H469.386V208.632ZM476.186 208.782V218.632H482.736V208.782H476.186ZM502.846 222.082H496.046V188.632H502.846V222.082Z" fill="#64764E"/>
</svg>
